STARTFONT 2.3
FONT -FontForge-Righteous-Book-R-Normal--32-320-72-72-P-173-ISO10646-1
SIZE 32 72 72  4
FONTBOUNDINGBOX 40 41 -5 -9
COMMENT "Generated by fontforge, http://fontforge.sourceforge.net"
COMMENT "Copyright (c) 2011 by Brian J. Bonislawsky DBA Astigmatic (AOETI) (astigma@astigmatic.com), with ReservedFont Name "Righteous""
STARTPROPERTIES 40
FOUNDRY "FontForge"
FAMILY_NAME "Righteous"
WEIGHT_NAME "Book"
SLANT "R"
SETWIDTH_NAME "Normal"
ADD_STYLE_NAME ""
PIXEL_SIZE 32
POINT_SIZE 320
RESOLUTION_X 72
RESOLUTION_Y 72
SPACING "P"
AVERAGE_WIDTH 173
CHARSET_REGISTRY "ISO10646"
CHARSET_ENCODING "1"
FONTNAME_REGISTRY ""
CHARSET_COLLECTIONS "ISO8859-2 ISO8859-9 ISO8859-4 ISO10646-1"
BITS_PER_PIXEL 4
FONT_NAME "Righteous-Regular"
FACE_NAME "Righteous"
COPYRIGHT "Copyright (c) 2011 by Brian J. Bonislawsky DBA Astigmatic (AOETI) (astigma@astigmatic.com), with ReservedFont Name "Righteous""
FONT_VERSION "1.000"
FONT_ASCENT 26
FONT_DESCENT 6
UNDERLINE_POSITION -4
UNDERLINE_THICKNESS 1
X_HEIGHT 16
CAP_HEIGHT 22
RAW_ASCENT 799
RAW_DESCENT 200
NORM_SPACE 9
RELATIVE_WEIGHT 40
RELATIVE_SETWIDTH 50
SUPERSCRIPT_X 0
SUPERSCRIPT_Y 15
SUPERSCRIPT_SIZE 20
SUBSCRIPT_X 0
SUBSCRIPT_Y 4
SUBSCRIPT_SIZE 20
AVG_LOWERCASE_WIDTH 170
AVG_UPPERCASE_WIDTH 205
ENDPROPERTIES
CHARS 372
STARTCHAR space
ENCODING 32
SWIDTH 279 0
DWIDTH 9 0
BBX 1 1 0 0
BITMAP
00
ENDCHAR
STARTCHAR exclam
ENCODING 33
SWIDTH 274 0
DWIDTH 9 0
BBX 7 25 1 -2
BITMAP
26666610
4FFFFF10
3FFFFF00
2FFFFE00
1FFFFD00
0FFFFC00
0FFFFC00
0EFFFB00
0DFFFA00
0CFFF900
0BFFF800
0AFFF700
09FFF600
09FFF500
08FFF500
07FFF400
06FFF300
02777100
00131000
06FFE400
1FFFFD00
3FFFFF00
1EFFFC00
04DFC200
00010000
ENDCHAR
STARTCHAR quotedbl
ENCODING 34
SWIDTH 409 0
DWIDTH 13 0
BBX 11 8 1 15
BITMAP
366660666630
5FFFF0EFFF60
4FFFE0CFFF50
3FFFC0BFFF40
1FFFB0AFFF20
0FFF908FFF10
0EFF807FFF00
08AA404AA900
ENDCHAR
STARTCHAR numbersign
ENCODING 35
SWIDTH 561 0
DWIDTH 18 0
BBX 16 16 1 3
BITMAP
0000057770077750
00000DFFC03FFF70
00002FFF807FFF20
00369FFF96DFFE65
00BFFFFFFFFFFFFA
01FFFFFFFFFFFFF5
03CDFFFDCEFFFCC1
0008FFF20DFFC000
000CFFD02FFF8000
2CCFFFECDFFFDC30
6FFFFFFFFFFFFE00
AFFFFFFFFFFFFB00
67FFFC79FFF97300
03FFF708FFF20000
07FFF30CFFD00000
0466600666400000
ENDCHAR
STARTCHAR dollar
ENCODING 36
SWIDTH 458 0
DWIDTH 15 0
BBX 13 23 1 0
BITMAP
00000666000000
00000EFE000000
00000EFE000000
00000EFE000000
00002EFE333100
008EFFFFFFF900
0AFFFFFFFFF900
4FFFFFFFFFF900
8FFF5444444200
8FFE2111100000
5FFFFFFFFD6000
0CFFFFFFFFF800
01BFFFFFFFFF30
000356667FFF60
233333335FFF60
9FFFFFFFFFFF20
9FFFFFFFFFF800
9FFFFFFFFE7000
23333EFE300000
00000EFE000000
00000EFE000000
00000EFE000000
00000EFE000000
ENDCHAR
STARTCHAR percent
ENCODING 37
SWIDTH 685 0
DWIDTH 22 0
BBX 20 24 1 -1
BITMAP
004ABA60000000466500
07FFFFFC000001EFF600
3FFFFFFF700008FFC000
8FFC38FFD0002FFF4000
BFF500EFF100AFFB0000
CFF300CFF203FFF30000
CFF300DFF20BFF900000
BFF601FFF15FFF200000
7FFE7CFFC0DFF8000000
1EFFFFFF66FFE1000000
04EFFFF91EFF60000000
001687308FFD00000000
00000002EFF52AEFD700
00000009FFC2EFFFFF90
0000003FFF4AFFFFFFF3
000000BFFA0FFF40BFF8
000004FFF23FFD005FFA
00000CFF903FFC003FFB
00005FFE103FFC004FFB
0000DFF7001FFF209FF9
0007FFD1000CFFDBFFF5
001EFF600005FFFFFFC0
008FFC0000006EFFFB20
00000000000001442000
ENDCHAR
STARTCHAR ampersand
ENCODING 38
SWIDTH 485 0
DWIDTH 16 0
BBX 13 23 1 0
BITMAP
00000057710000
000000BFF30000
000000BFF30000
000058DFFA9950
003DFFFFFFFF90
02EFFFFFFFFF90
0AFFFECCCCCC70
0FFFA000000000
1FFF5000000000
0FFFA000000000
0AFFFDCCCC1000
02EFFFFFFF1000
04FFFFFFFF1000
0BFFFB99990000
0FFF8000000000
1FFF5000000000
0EFFB100000000
09FFFFEEEEEE80
01DFFFFFFFFF90
002CFFFFFFFF90
000036DFF87740
000000BFF30000
000000BFF30000
ENDCHAR
STARTCHAR quotesingle
ENCODING 39
SWIDTH 238 0
DWIDTH 8 0
BBX 5 8 1 15
BITMAP
366660
5FFFF0
4FFFE0
3FFFC0
1FFFB0
0FFF90
0EFF80
08AA40
ENDCHAR
STARTCHAR parenleft
ENCODING 40
SWIDTH 351 0
DWIDTH 11 0
BBX 10 30 1 -4
BITMAP
0000299995
0001DFFFD1
0009FFFF40
003FFFFA00
00BFFFF200
03FFFFA000
08FFFF3000
0DFFFD0000
2FFFF80000
5FFFF40000
8FFFF10000
AFFFD00000
BFFFC00000
CFFFB00000
CFFFA00000
CFFFB00000
BFFFC00000
9FFFE00000
7FFFF20000
4FFFF60000
1FFFFA0000
0BFFFE0000
07FFFF5000
01FFFFB000
00AFFFF300
003FFFFA00
000AFFFF30
0002FFFFB0
00008FFFF5
0000033332
ENDCHAR
STARTCHAR parenright
ENCODING 41
SWIDTH 351 0
DWIDTH 11 0
BBX 11 30 0 -4
BITMAP
399995000000
0BFFFE300000
02EFFFC00000
007FFFF60000
000DFFFE0000
0007FFFF6000
0001FFFFB000
0000AFFFF100
00005FFFF500
00001FFFF800
00000DFFFB00
00000AFFFD00
000009FFFE00
000008FFFF00
000007FFFF10
000008FFFF00
000009FFFE00
00000BFFFD00
00000EFFFA00
00002FFFF700
00007FFFF400
0000CFFFE000
0002FFFFA000
0008FFFF4000
001EFFFD0000
007FFFF60000
01EFFFD00000
08FFFF500000
2FFFFB000000
133331000000
ENDCHAR
STARTCHAR asterisk
ENCODING 42
SWIDTH 589 0
DWIDTH 19 0
BBX 17 17 1 10
BITMAP
000000799960000000
000000CFFFA0000000
000000CFFFA0000000
003000CFFFA0003000
05FB30CFFFA04BF500
0DFFFADFFFCBFFFC00
6FFFFFFFFFFFFFFF40
7FFFFFFFFFFFFFFF70
02AFFFFFFFFFFFA200
0004CFFFFFFFA20000
00004FFFFFFE200000
0003EFFFFFFFD10000
002DFFFFEFFFFC1000
01CFFFFD2DFFFFC100
01DFFFE303FFFFD200
001CFF50006FFB1000
0001B800000AA00000
ENDCHAR
STARTCHAR plus
ENCODING 43
SWIDTH 485 0
DWIDTH 16 0
BBX 14 15 1 4
BITMAP
00000111100000
00005FFFE00000
00005FFFE00000
00005FFFE00000
00005FFFE00000
57779FFFE77772
CFFFFFFFFFFFF5
CFFFFFFFFFFFF5
CFFFFFFFFFFFF5
ACCCDFFFFCCCC4
00005FFFE00000
00005FFFE00000
00005FFFE00000
00005FFFE00000
00000111100000
ENDCHAR
STARTCHAR comma
ENCODING 44
SWIDTH 264 0
DWIDTH 8 0
BBX 6 9 1 -4
BITMAP
001300
08FFC2
4FFFFA
6FFFFD
3FFFFC
06EFF9
006FF4
01DFC0
006D20
ENDCHAR
STARTCHAR hyphen
ENCODING 45
SWIDTH 528 0
DWIDTH 17 0
BBX 14 5 1 9
BITMAP
17777777777777
2FFFFFFFFFFFFF
2FFFFFFFFFFFFF
2FFFFFFFFFFFFF
1CCCCCCCCCCCCC
ENDCHAR
STARTCHAR period
ENCODING 46
SWIDTH 263 0
DWIDTH 8 0
BBX 6 7 1 -2
BITMAP
001300
08FFD2
4FFFFA
6FFFFC
3FFFF9
06EFB1
000100
ENDCHAR
STARTCHAR slash
ENCODING 47
SWIDTH 490 0
DWIDTH 16 0
BBX 14 23 1 0
BITMAP
00000000066664
000000003FFFF6
000000009FFFE1
00000001EFFF90
00000007FFFF20
0000000DFFFB00
0000004FFFF500
000000AFFFE000
000002FFFF8000
000008FFFF2000
00000EFFFA0000
00005FFFF40000
0000BFFFD00000
0003FFFF700000
0009FFFE100000
001EFFF9000000
006FFFF3000000
00CFFFC0000000
04FFFF50000000
0AFFFE00000000
1FFFF800000000
7FFFF200000000
DFFFB000000000
ENDCHAR
STARTCHAR zero
ENCODING 48
SWIDTH 642 0
DWIDTH 21 0
BBX 19 24 1 -1
BITMAP
00000158AA9720000000
00007EFFFFFFFB200000
000AFFFFFFFFFFE40000
008FFFFFFFFFFFFE1000
03FFFFFC87AEFFFFA000
09FFFF800002DFFFF200
0EFFFB0000003FFFF800
3FFFF40000000AFFFB00
7FFFE000000006FFFE00
8FFFC000000003FFFF10
9FFFA000000001FFFF20
AFFFA000000001FFFF30
AFFFA000000001FFFF30
9FFFB000000002FFFF20
8FFFD000000004FFFF10
5FFFF100000007FFFD00
2FFFF60000000DFFFA00
0DFFFE1000006FFFF600
06FFFFD40017FFFFE100
01DFFFFFEDFFFFFF7000
004FFFFFFFFFFFFB0000
0004EFFFFFFFFFB10000
000018EFFFFFC5000000
00000002443100000000
ENDCHAR
STARTCHAR one
ENCODING 49
SWIDTH 317 0
DWIDTH 10 0
BBX 7 23 1 0
BITMAP
56666660
CFFFFFE0
CFFFFFE0
CFFFFFE0
CFFFFFE0
119FFFE0
008FFFE0
008FFFE0
008FFFE0
008FFFE0
008FFFE0
008FFFE0
008FFFE0
008FFFE0
008FFFE0
008FFFE0
008FFFE0
008FFFE0
008FFFE0
008FFFE0
008FFFE0
008FFFE0
008FFFE0
ENDCHAR
STARTCHAR two
ENCODING 50
SWIDTH 570 0
DWIDTH 18 0
BBX 16 23 1 0
BITMAP
0466666666410000
0AFFFFFFFFFF9100
0AFFFFFFFFFFFD20
0AFFFFFFFFFFFFC0
0AFFFFFFFFFFFFF6
01111111127FFFFC
000000000009FFFF
000000000007FFFF
00000000000CFFFE
0000036777CFFFFA
0005DFFFFFFFFFF3
009FFFFFFFFFFF80
06FFFFFFFFFFF800
1EFFFFFFFFEA3000
5FFFFB3110000000
8FFFF10000000000
9FFFD00000000000
9FFFD00000000000
9FFFE77777777773
9FFFFFFFFFFFFFF7
9FFFFFFFFFFFFFF7
9FFFFFFFFFFFFFF7
9FFFFFFFFFFFFFF7
ENDCHAR
STARTCHAR three
ENCODING 51
SWIDTH 586 0
DWIDTH 19 0
BBX 17 23 1 0
BITMAP
366666666651000000
7FFFFFFFFFFFA20000
7FFFFFFFFFFFFE3000
7FFFFFFFFFFFFFE100
7FFFFFFFFFFFFFF900
01111111115EFFFE00
000000000007FFFF30
000000000004FFFF30
000000000009FFFF20
0004777777BFFFFD00
0009FFFFFFFFFFF600
0009FFFFFFFFFFB000
0009FFFFFFFFFFE200
0009FFFFFFFFFFF900
00001111115EFFFE00
000000000006FFFF30
000000000004FFFF30
00000000000AFFFF20
3777777778BFFFFD00
7FFFFFFFFFFFFFF600
7FFFFFFFFFFFFFA000
7FFFFFFFFFFFFA1000
7FFFFFFFFFEA400000
ENDCHAR
STARTCHAR four
ENCODING 52
SWIDTH 630 0
DWIDTH 20 0
BBX 18 23 1 0
BITMAP
004666500000000000
00BFFFC00000000000
00DFFF900002222100
00FFFF70000DFFF900
02FFFF50000DFFF900
04FFFF30000DFFF900
06FFFF10000DFFF900
08FFFE00000DFFF900
0AFFFB00000DFFF900
0CFFF900000DFFF900
0EFFF700000DFFF900
2FFFF500000DFFF900
4FFFF300000DFFF900
6FFFF100000DFFF900
8FFFFEEEEEEFFFFFEC
AFFFFFFFFFFFFFFFFD
CFFFFFFFFFFFFFFFFD
EFFFFFFFFFFFFFFFFD
88888888888EFFFC87
00000000000DFFF900
00000000000DFFF900
00000000000DFFF900
00000000000DFFF900
ENDCHAR
STARTCHAR five
ENCODING 53
SWIDTH 585 0
DWIDTH 19 0
BBX 17 23 1 0
BITMAP
016666666666666400
03FFFFFFFFFFFFFB00
05FFFFFFFFFFFFFB00
06FFFFFFFFFFFFFB00
08FFFFFFFFFFFFFB00
09FFFD111111111100
0BFFFB000000000000
0DFFFA000000000000
0EFFF9111100000000
1FFFFFFFFFFC710000
2FFFFFFFFFFFFD3000
4FFFFFFFFFFFFFE200
5FFFFFFFFFFFFFFB00
36666666669FFFFF30
000000000005FFFF70
000000000000EFFF90
000000000000EFFF90
000000000005FFFF70
3777777777AFFFFF30
7FFFFFFFFFFFFFFB00
7FFFFFFFFFFFFFE200
7FFFFFFFFFFFFD2000
7FFFFFFFFFEB600000
ENDCHAR
STARTCHAR six
ENCODING 54
SWIDTH 615 0
DWIDTH 20 0
BBX 18 24 1 -1
BITMAP
000000566666200000
000008FFFFE5000000
00007FFFFE30000000
0005FFFFE200000000
001EFFFF4000000000
008FFFF70000000000
01EFFFC49B97300000
07FFFFEFFFFFFB2000
0DFFFFFFFFFFFFE300
2FFFFFFFFFFFFFFE10
5FFFFFFB77BFFFFF90
8FFFFF500004FFFFF1
AFFFFA0000008FFFF5
BFFFF30000001FFFF7
CFFFF10000000EFFF8
BFFFF10000000EFFF8
9FFFF50000004FFFF6
5FFFFD100000CFFFF2
1EFFFFD3002BFFFFC0
06FFFFFFEDFFFFFF40
00AFFFFFFFFFFFF800
0009FFFFFFFFFF9000
00005DFFFFFFD50000
000000379974000000
ENDCHAR
STARTCHAR seven
ENCODING 55
SWIDTH 516 0
DWIDTH 17 0
BBX 17 23 0 0
BITMAP
166666666666666620
4FFFFFFFFFFFFFFF20
4FFFFFFFFFFFFFFC00
4FFFFFFFFFFFFFF700
4FFFFFFFFFFFFFF200
0111111111DFFFC000
0000000003FFFF7000
0000000008FFFF1000
000000000DFFFB0000
000000004FFFF60000
000000009FFFF10000
00000000EFFFB00000
00000005FFFF600000
0000000AFFFF100000
0000001EFFFB000000
0000006FFFF5000000
000000BFFFE1000000
000001FFFFA0000000
000006FFFF50000000
00000CFFFE10000000
00002FFFFA00000000
00007FFFF500000000
0000CFFFE000000000
ENDCHAR
STARTCHAR eight
ENCODING 56
SWIDTH 618 0
DWIDTH 20 0
BBX 18 25 1 -1
BITMAP
000000001100000000
000006BFFFEA400000
0002CFFFFFFFFB1000
002EFFFFFFFFFFC100
00CFFFFFFFFFFFF900
04FFFFE7238FFFFF10
07FFFF400007FFFF40
08FFFE000001FFFF50
06FFFF100003FFFF30
02FFFFB1002DFFFD00
009FFFFECCFFFFF600
001CFFFFFFFFFFA000
005EFFFFFFFFFFD300
05FFFFFFEEFFFFFE20
1EFFFF92003AFFFFC0
7FFFF60000008FFFF4
BFFFC00000001EFFF8
DFFF900000000CFFF9
CFFFC00000001EFFF8
8FFFF7000000AFFFF5
2EFFFFB5336DFFFFD0
06FFFFFFFFFFFFFE30
006FFFFFFFFFFFE400
0002AFFFFFFFE81000
000001578874000000
ENDCHAR
STARTCHAR nine
ENCODING 57
SWIDTH 616 0
DWIDTH 20 0
BBX 18 23 1 0
BITMAP
000016BEFEC8200000
0004DFFFFFFFF80000
005FFFFFFFFFFFB100
03FFFFFFFFFFFFFA00
0CFFFFE978EFFFFF50
4FFFFD30001BFFFFC0
9FFFF4000001EFFFF2
CFFFC00000008FFFF5
DFFF900000005FFFF7
DFFFA00000005FFFF7
BFFFD00000009FFFF6
8FFFF7000003FFFFF5
3FFFFF81005EFFFFF2
0BFFFFFEDEFFFFFFE0
02EFFFFFFFFFFFFFA0
003DFFFFFFFFFFFF50
00018DFFFFBEFFFE10
00000024526FFFF800
0000000002EFFFE100
000000001DFFFF6000
00000001BFFFFA0000
0000001CFFFFB00000
000004EFFFFB100000
ENDCHAR
STARTCHAR colon
ENCODING 58
SWIDTH 276 0
DWIDTH 9 0
BBX 7 16 1 -2
BITMAP
00120000
05EFE300
1EFFFD00
3FFFFF10
1EFFFD00
04DFD300
00010000
00000000
00000000
00131000
05EFE400
1EFFFD00
3FFFFF10
1EFFFC00
04DFC300
00010000
ENDCHAR
STARTCHAR semicolon
ENCODING 59
SWIDTH 276 0
DWIDTH 9 0
BBX 7 18 1 -4
BITMAP
00120000
05EFE300
1EFFFD00
3FFFFF10
1EFFFD00
04DFD300
00010000
00000000
00000000
00131000
05EFE400
1EFFFD00
3FFFFF10
1EFFFF00
04DFFC00
003FF700
00BFE100
004D4000
ENDCHAR
STARTCHAR less
ENCODING 60
SWIDTH 478 0
DWIDTH 15 0
BBX 13 19 1 3
BITMAP
00000000180000
00000001CFB100
0000001CFFFB10
000001BFFFFF70
00000BFFFFF900
0000AFFFFF9000
000AFFFFF90000
00AFFFFF900000
09FFFFF9000000
8FFFFFA0000000
8FFFFFE3000000
07FFFFFE400000
006FFFFFF50000
0005FFFFFF6000
00004FFFFFF700
000004EFFFFF70
0000003EFFFC10
00000003EFD200
000000002C2000
ENDCHAR
STARTCHAR equal
ENCODING 61
SWIDTH 539 0
DWIDTH 17 0
BBX 14 11 2 6
BITMAP
9AAAAAAAAAAAA2
EFFFFFFFFFFFF3
EFFFFFFFFFFFF3
EFFFFFFFFFFFF3
99999999999992
00000000000000
34444444444441
EFFFFFFFFFFFF3
EFFFFFFFFFFFF3
EFFFFFFFFFFFF3
EFFFFFFFFFFFF3
ENDCHAR
STARTCHAR greater
ENCODING 62
SWIDTH 478 0
DWIDTH 15 0
BBX 14 19 1 3
BITMAP
00064000000000
007FE300000000
08FFFE30000000
3FFFFFE3000000
05FFFFFE200000
005FFFFFD20000
0005FFFFFD2000
00005FFFFFD100
000005FFFFFC10
0000006FFFFFC1
000001BFFFFFB1
00001CFFFFFB10
0002DFFFFFA000
003EFFFFF90000
04EFFFFF800000
2FFFFFF7000000
09FFFF60000000
00AFF600000000
001B5000000000
ENDCHAR
STARTCHAR question
ENCODING 63
SWIDTH 603 0
DWIDTH 19 0
BBX 18 25 1 -2
BITMAP
566666666665100000
BFFFFFFFFFFFFA2000
BFFFFFFFFFFFFFE300
BFFFFFFFFFFFFFFE10
BFFFFFFFFFFFFFFF90
111111111125EFFFE0
0000000000007FFFF2
0000000000004FFFF3
000000000000AFFFF2
00000000157BFFFFD0
0000002AFFFFFFFF60
000002DFFFFFFFFB00
00000CFFFFFFFFA100
00005FFFFFFEB50000
0000AFFFF610000000
0000DFFFB000000000
0000EFFF9000000000
000067774000000000
000001300000000000
00006FFD3000000000
0002FFFFC000000000
0004FFFFE000000000
0001EFFFB000000000
00005EFC2000000000
000000100000000000
ENDCHAR
STARTCHAR at
ENCODING 64
SWIDTH 629 0
DWIDTH 20 0
BBX 19 19 1 -1
BITMAP
00000002342000000000
000018DFFFFEA3000000
0005EFFFFFFFFF900000
006FFFFECBDFFFFA0000
03FFFE500003BFFF8000
0CFFD201438AAAFFF200
3FFF307FFFFFF1CFF800
8FFA06FFFFFFF15FFD00
AFF50DFFAAFFF10FFF00
BFF40FFD00DFF10EFF10
BFF40EFF44FFF10EFF00
8FF80AFFFFFFFEEFFD00
4FFE11DFFFFFFFFFF800
0DFFA017A99999999200
04FFFA10000000000000
007FFFEA768000000000
0007FFFFFFF300000000
00003BFFFFF700000000
00000026897300000000
ENDCHAR
STARTCHAR A
ENCODING 65
SWIDTH 673 0
DWIDTH 22 0
BBX 19 23 1 0
BITMAP
00000001465300000000
000004BFFFFFE9100000
0001AFFFFFFFFFE40000
000BFFFFFFFFFFFF5000
009FFFFFFFFFFFFFF300
03FFFFFB4227EFFFFB00
09FFFF9000002DFFFF30
0EFFFD00000004FFFF70
1FFFF700000000DFFFA0
2FFFF500000000BFFFB0
3FFFF400000000BFFFB0
3FFFF400000000BFFFB0
3FFFF400000000BFFFB0
3FFFF400000000BFFFB0
3FFFFFEEEEEEEEFFFFB0
3FFFFFFFFFFFFFFFFFB0
3FFFFFFFFFFFFFFFFFB0
3FFFFFFFFFFFFFFFFFB0
3FFFFA88888888DFFFB0
3FFFF400000000BFFFB0
3FFFF400000000BFFFB0
3FFFF400000000BFFFB0
3FFFF400000000BFFFB0
ENDCHAR
STARTCHAR B
ENCODING 66
SWIDTH 666 0
DWIDTH 21 0
BBX 18 23 2 0
BITMAP
666666666666410000
EFFFFFFFFFFFFE8100
EFFFFFFFFFFFFFFC10
EFFFFFFFFFFFFFFFB0
EFFFFFFFFFFFFFFFF5
EFFF911111128FFFFB
EFFF800000000AFFFE
EFFF8000000008FFFE
EFFF800000000DFFFC
EFFFB7777777CFFFF7
EFFFFFFFFFFFFFFFD1
EFFFFFFFFFFFFFFD20
EFFFFFFFFFFFFFFF70
EFFFFFFFFFFFFFFFF3
EFFF911111117FFFFA
EFFF800000000AFFFD
EFFF8000000008FFFF
EFFF800000001DFFFD
EFFFC7777778DFFFF9
EFFFFFFFFFFFFFFFF2
EFFFFFFFFFFFFFFF70
EFFFFFFFFFFFFFF700
EFFFFFFFFFFFD92000
ENDCHAR
STARTCHAR C
ENCODING 67
SWIDTH 640 0
DWIDTH 20 0
BBX 20 24 0 -1
BITMAP
00000000158AA9840000
00000019EFFFFFFFE810
000005EFFFFFFFFFFFE4
00008FFFFFFFFFFFFFFA
0007FFFFFFFDCDFFFFE2
003FFFFFE7100027EF70
00CFFFFB100000002A00
04FFFFC1000000000000
09FFFF30000000000000
0DFFFB00000000000000
1FFFF700000000000000
2FFFF500000000000000
2FFFF600000000000000
0FFFF800000000000000
0CFFFD00000000000000
08FFFF50000000000000
03FFFFE2000000000100
00AFFFFE400000004D10
002EFFFFFA51025BFF90
0004FFFFFFFFFFFFFFF4
00004EFFFFFFFFFFFFFB
000003CFFFFFFFFFFFB2
00000005CFFFFFFFB400
00000000015676410000
ENDCHAR
STARTCHAR D
ENCODING 68
SWIDTH 653 0
DWIDTH 21 0
BBX 18 23 2 0
BITMAP
666666654100000000
EFFFFFFFFFB5000000
EFFFFFFFFFFFC30000
EFFFFFFFFFFFFF5000
EFFFFFFFFFFFFFF400
EFFF91125AFFFFFE20
EFFF9000003DFFFFA0
EFFF90000002EFFFF2
EFFF900000005FFFF8
EFFF900000000DFFFB
EFFF9000000009FFFE
EFFF9000000007FFFF
EFFF9000000008FFFF
EFFF900000000BFFFD
EFFF900000001FFFFA
EFFF900000009FFFF6
EFFF90000006FFFFE1
EFFF9000019FFFFF70
EFFFC778BFFFFFFB00
EFFFFFFFFFFFFFD100
EFFFFFFFFFFFFB1000
EFFFFFFFFFFE700000
EFFFFFFEDA51000000
ENDCHAR
STARTCHAR E
ENCODING 69
SWIDTH 578 0
DWIDTH 19 0
BBX 16 23 2 0
BITMAP
6666666666666663
EFFFFFFFFFFFFFF7
EFFFFFFFFFFFFFF7
EFFFFFFFFFFFFFF7
EFFFFFFFFFFFFFF7
EFFF911111111110
EFFF800000000000
EFFF800000000000
EFFF800000000000
EFFFB77777760000
EFFFFFFFFFFE0000
EFFFFFFFFFFE0000
EFFFFFFFFFFE0000
EFFFFFFFFFFE0000
EFFF911111110000
EFFF800000000000
EFFF800000000000
EFFF800000000000
EFFFC77777777773
EFFFFFFFFFFFFFF7
EFFFFFFFFFFFFFF7
EFFFFFFFFFFFFFF7
EFFFFFFFFFFFFFF7
ENDCHAR
STARTCHAR F
ENCODING 70
SWIDTH 562 0
DWIDTH 18 0
BBX 16 23 2 0
BITMAP
6666666666666665
EFFFFFFFFFFFFFFC
EFFFFFFFFFFFFFFC
EFFFFFFFFFFFFFFC
EFFFFFFFFFFFFFFC
EFFF911111111111
EFFF800000000000
EFFF800000000000
EFFF800000000000
EFFFB77777720000
EFFFFFFFFFF40000
EFFFFFFFFFF40000
EFFFFFFFFFF40000
EFFFFFFFFFF40000
EFFF911111100000
EFFF800000000000
EFFF800000000000
EFFF800000000000
EFFF800000000000
EFFF800000000000
EFFF800000000000
EFFF800000000000
EFFF800000000000
ENDCHAR
STARTCHAR G
ENCODING 71
SWIDTH 665 0
DWIDTH 21 0
BBX 20 24 0 -1
BITMAP
000000000479A8730000
00000018EFFFFFFFD610
000005EFFFFFFFFFFFD3
00007FFFFFFFFFFFFFFA
0006FFFFFFFDCEFFFFE2
003FFFFFE7100028FF70
00CFFFFC100000003B00
04FFFFD1000000000000
09FFFF30000000000000
0DFFFB00000000000000
1FFFF700000000000000
2FFFF500000000012221
2FFFF60000000006FFFE
0FFFF80000000006FFFE
0CFFFC0000000006FFFE
08FFFF5000000006FFFE
03FFFFE200000006FFFE
00AFFFFD30000006FFFE
002EFFFFF941025CFFFE
0004FFFFFFFFFFFFFFFE
00005FFFFFFFFFFFFFFD
000003CFFFFFFFFFFFB1
00000005CFFFFFFFB400
00000000025676410000
ENDCHAR
STARTCHAR H
ENCODING 72
SWIDTH 689 0
DWIDTH 22 0
BBX 18 23 2 0
BITMAP
666630000000036666
EFFF8000000007FFFF
EFFF8000000007FFFF
EFFF8000000007FFFF
EFFF8000000007FFFF
EFFF8000000007FFFF
EFFF8000000007FFFF
EFFF8000000007FFFF
EFFF8000000007FFFF
EFFFB77777777BFFFF
EFFFFFFFFFFFFFFFFF
EFFFFFFFFFFFFFFFFF
EFFFFFFFFFFFFFFFFF
EFFFFFFFFFFFFFFFFF
EFFF9111111118FFFF
EFFF8000000007FFFF
EFFF8000000007FFFF
EFFF8000000007FFFF
EFFF8000000007FFFF
EFFF8000000007FFFF
EFFF8000000007FFFF
EFFF8000000007FFFF
EFFF8000000007FFFF
ENDCHAR
STARTCHAR I
ENCODING 73
SWIDTH 270 0
DWIDTH 9 0
BBX 5 23 2 0
BITMAP
666630
EFFF80
EFFF80
EFFF80
EFFF80
EFFF80
EFFF80
EFFF80
EFFF80
EFFF80
EFFF80
EFFF80
EFFF80
EFFF80
EFFF80
EFFF80
EFFF80
EFFF80
EFFF80
EFFF80
EFFF80
EFFF80
EFFF80
ENDCHAR
STARTCHAR J
ENCODING 74
SWIDTH 416 0
DWIDTH 13 0
BBX 12 23 0 0
BITMAP
000000066663
0000000EFFF8
0000000EFFF8
0000000EFFF8
0000000EFFF8
0000000EFFF8
0000000EFFF8
0000000EFFF8
0000000EFFF8
0000000EFFF8
0000000EFFF8
0000000EFFF8
0000000EFFF8
0000000EFFF8
0000000FFFF7
0000003FFFF6
000000BFFFF2
00001AFFFFC0
AA89EFFFFF40
AFFFFFFFF900
AFFFFFFFB000
AFFFFFE70000
8EFEC7100000
ENDCHAR
STARTCHAR K
ENCODING 75
SWIDTH 625 0
DWIDTH 20 0
BBX 18 23 2 0
BITMAP
666630000000166665
EFFF80000000BFFFF5
EFFF80000008FFFF90
EFFF8000004FFFFC00
EFFF800001EFFFE200
EFFF80000BFFFF5000
EFFF80007FFFF90000
EFFF8004FFFFC00000
EFFF801EFFFE200000
EFFF80BFFFF5000000
EFFF87FFFFF3000000
EFFFCFFFFFFB000000
EFFFFFFFFFFF400000
EFFFFFFFFFFFC00000
EFFFFFF8BFFFF50000
EFFFFFC03FFFFD0000
EFFFFE2009FFFF7000
EFFFF50002FFFFE100
EFFFA000008FFFF800
EFFF8000001EFFFF20
EFFF80000007FFFFA0
EFFF80000000DFFFF3
EFFF800000006FFFFB
ENDCHAR
STARTCHAR L
ENCODING 76
SWIDTH 562 0
DWIDTH 18 0
BBX 16 23 2 0
BITMAP
6666300000000000
EFFF800000000000
EFFF800000000000
EFFF800000000000
EFFF800000000000
EFFF800000000000
EFFF800000000000
EFFF800000000000
EFFF800000000000
EFFF800000000000
EFFF800000000000
EFFF800000000000
EFFF800000000000
EFFF800000000000
EFFF800000000000
EFFF800000000000
EFFF800000000000
EFFF800000000000
EFFFC77777777776
EFFFFFFFFFFFFFFC
EFFFFFFFFFFFFFFC
EFFFFFFFFFFFFFFC
EFFFFFFFFFFFFFFC
ENDCHAR
STARTCHAR M
ENCODING 77
SWIDTH 819 0
DWIDTH 26 0
BBX 24 23 1 0
BITMAP
0000059AA6100059A9610000
0004DFFFFFE74DFFFFFE6000
005FFFFFFFFFFFFFFFFFF800
02EFFFFFFFFFFFFFFFFFFF40
09FFFFFCEFFFFFFFCEFFFFC0
0DFFFE201BFFFFD201CFFFF2
0FFFF80003FFFF70004FFFF4
1FFFF60002FFFF50002FFFF5
1FFFF60002FFFF50002FFFF5
1FFFF60002FFFF50002FFFF5
1FFFF60002FFFF50002FFFF5
1FFFF60002FFFF50002FFFF5
1FFFF60002FFFF50002FFFF5
1FFFF60002FFFF50002FFFF5
1FFFF60002FFFF50002FFFF5
1FFFF60002FFFF50002FFFF5
1FFFF60002FFFF50002FFFF5
1FFFF60002FFFF50002FFFF5
1FFFF60002FFFF50002FFFF5
1FFFF60002FFFF50002FFFF5
1FFFF60002FFFF50002FFFF5
1FFFF60002FFFF50002FFFF5
1FFFF60002FFFF50002FFFF5
ENDCHAR
STARTCHAR N
ENCODING 78
SWIDTH 689 0
DWIDTH 22 0
BBX 18 23 2 0
BITMAP
666660000000036666
EFFFF600000007FFFF
EFFFFE10000007FFFF
EFFFFF90000007FFFF
EFFFFFF3000007FFFF
EFFFFFFB000007FFFF
EFFFFFFF500007FFFF
EFFFFFFFD10007FFFF
EFFFDFFFF80007FFFF
EFFF8BFFFE2007FFFF
EFFF82FFFFA007FFFF
EFFF808FFFF407FFFF
EFFF801EFFFC07FFFF
EFFF8005FFFF67FFFF
EFFF8000CFFFE8FFFF
EFFF80003FFFFEFFFF
EFFF800009FFFFFFFF
EFFF800001EFFFFFFF
EFFF8000007FFFFFFF
EFFF8000000CFFFFFF
EFFF80000004FFFFFF
EFFF80000000AFFFFF
EFFF800000002FFFFF
ENDCHAR
STARTCHAR O
ENCODING 79
SWIDTH 777 0
DWIDTH 25 0
BBX 24 24 0 -1
BITMAP
000000000479A97400000000
00000018EFFFFFFFE8100000
000005EFFFFFFFFFFFE40000
00007FFFFFFFFFFFFFFF6000
0007FFFFFFFDCDFFFFFFF500
003FFFFFE7100027EFFFFE20
00CFFFFB100000002CFFFFA0
04FFFFC10000000001DFFFF2
09FFFF3000000000005FFFF7
0DFFFB0000000000000DFFFB
1FFFF700000000000009FFFE
2FFFF500000000000007FFFF
2FFFF600000000000007FFFF
0FFFF80000000000000AFFFE
0CFFFD0000000000000EFFFB
08FFFF5000000000007FFFF6
03FFFFE20000000003FFFFF1
00AFFFFE400000005EFFFF80
002EFFFFFA51025BFFFFFD10
0004FFFFFFFFFFFFFFFFE300
00004EFFFFFFFFFFFFFE3000
000003CFFFFFFFFFFFB20000
00000005CFFFFFFFB5000000
000000000156764100000000
ENDCHAR
STARTCHAR P
ENCODING 80
SWIDTH 642 0
DWIDTH 21 0
BBX 18 23 2 0
BITMAP
666666666641000000
EFFFFFFFFFFFA30000
EFFFFFFFFFFFFF6000
EFFFFFFFFFFFFFF800
EFFFFFFFFFFFFFFF50
EFFF9111125CFFFFE1
EFFF80000000BFFFF6
EFFF800000001EFFFB
EFFF800000000AFFFE
EFFF8000000008FFFF
EFFF8000000009FFFE
EFFF800000001EFFFB
EFFF800000009FFFF7
EFFF8000003CFFFFE1
EFFFFEEEEFFFFFFF70
EFFFFFFFFFFFFFFA00
EFFFFFFFFFFFFF9000
EFFFFFFFFFFFC40000
EFFFC8888762000000
EFFF80000000000000
EFFF80000000000000
EFFF80000000000000
EFFF80000000000000
ENDCHAR
STARTCHAR Q
ENCODING 81
SWIDTH 777 0
DWIDTH 25 0
BBX 24 28 0 -5
BITMAP
000000000479A97400000000
00000018EFFFFFFFE8100000
000005EFFFFFFFFFFFE40000
00007FFFFFFFFFFFFFFF6000
0007FFFFFFFDCDFFFFFFF500
003FFFFFE7100027EFFFFE20
00CFFFFB100000002CFFFFA0
04FFFFC10000000001DFFFF2
09FFFF3000000000005FFFF7
0DFFFB0000000000000DFFFB
1FFFF700000000000009FFFE
2FFFF500000000000007FFFF
2FFFF600000000000007FFFF
0FFFF80000000000000AFFFD
0CFFFD0000000000000EFFFA
08FFFF5000000000007FFFF6
03FFFFE20000000003FFFFF1
00AFFFFE400000005EFFFF80
002EFFFFFA51025BFFFFFD10
0004FFFFFFFFFFFFFFFFE300
00004EFFFFFFFFFFFFFE3000
000003CFFFFFFFFFFFB20000
00000005CFFFFFFFFC000000
0000000001567CFFFF500000
00000000000002EFFFE10000
000000000000006FFFFB0000
000000000000000BFFFF6000
000000000000000277776000
ENDCHAR
STARTCHAR R
ENCODING 82
SWIDTH 651 0
DWIDTH 21 0
BBX 18 23 2 0
BITMAP
666666666641000000
EFFFFFFFFFFFA30000
EFFFFFFFFFFFFF6000
EFFFFFFFFFFFFFF800
EFFFFFFFFFFFFFFF50
EFFF9111125CFFFFE1
EFFF80000000BFFFF6
EFFF800000001EFFFB
EFFF800000000AFFFE
EFFF8000000008FFFF
EFFF8000000009FFFE
EFFF800000001EFFFB
EFFF800000009FFFF7
EFFF8000003CFFFFF1
EFFFFEEEEFFFFFFF60
EFFFFFFFFFFFFFFA00
EFFFFFFFFFFFFF9000
EFFFFFFFFFFFFE1000
EFFFC8887AFFFF6000
EFFF800001EFFFC000
EFFF8000008FFFF400
EFFF8000002FFFFA00
EFFF8000000AFFFF20
ENDCHAR
STARTCHAR S
ENCODING 83
SWIDTH 610 0
DWIDTH 20 0
BBX 19 23 0 0
BITMAP
00000156666666666500
0002AFFFFFFFFFFFFC00
003EFFFFFFFFFFFFFC00
01EFFFFFFFFFFFFFFC00
09FFFFFFFFFFFFFFFC00
0EFFFE52111111111100
2FFFF700000000000000
3FFFF500000000000000
2FFFF900000000000000
0DFFFFB7777763000000
06FFFFFFFFFFFFE60000
00BFFFFFFFFFFFFF9000
001AFFFFFFFFFFFFF700
00005BEFFFFFFFFFFE10
0000000111112BFFFF60
00000000000001EFFF90
00000000000000DFFFA0
00000000000003FFFF80
0077777777779EFFFF40
00FFFFFFFFFFFFFFFC00
00FFFFFFFFFFFFFFE300
00FFFFFFFFFFFFFE4000
00FFFFFFFFFFEC710000
ENDCHAR
STARTCHAR T
ENCODING 84
SWIDTH 578 0
DWIDTH 19 0
BBX 19 23 0 0
BITMAP
46666666666666666610
BFFFFFFFFFFFFFFFFF30
BFFFFFFFFFFFFFFFFF30
BFFFFFFFFFFFFFFFFF30
BFFFFFFFFFFFFFFFFF30
1111111FFFF811111100
0000000FFFF700000000
0000000FFFF700000000
0000000FFFF700000000
0000000FFFF700000000
0000000FFFF700000000
0000000FFFF700000000
0000000FFFF700000000
0000000FFFF700000000
0000000FFFF700000000
0000000FFFF700000000
0000000FFFF700000000
0000000FFFF700000000
0000000FFFF700000000
0000000FFFF700000000
0000000FFFF700000000
0000000FFFF700000000
0000000FFFF700000000
ENDCHAR
STARTCHAR U
ENCODING 85
SWIDTH 673 0
DWIDTH 22 0
BBX 19 23 1 0
BITMAP
16666200000000466650
3FFFF400000000BFFFB0
3FFFF400000000BFFFB0
3FFFF400000000BFFFB0
3FFFF400000000BFFFB0
3FFFF400000000BFFFB0
3FFFF400000000BFFFB0
3FFFF400000000BFFFB0
3FFFF400000000BFFFB0
3FFFF400000000BFFFB0
3FFFF400000000BFFFB0
3FFFF400000000BFFFB0
3FFFF400000000BFFFB0
3FFFF400000000BFFFB0
2FFFF500000000CFFFB0
0FFFF800000001EFFF90
0CFFFF20000008FFFF60
07FFFFD300007FFFFE10
01EFFFFFA88DFFFFF800
004FFFFFFFFFFFFFC100
0006FFFFFFFFFFFD2000
00004DFFFFFFFF910000
0000005ADFEC83000000
ENDCHAR
STARTCHAR V
ENCODING 86
SWIDTH 602 0
DWIDTH 19 0
BBX 20 23 0 0
BITMAP
56666100000000666661
AFFFF600000003FFFFD0
5FFFFA00000007FFFF90
1FFFFE0000000CFFFF40
0AFFFF4000001FFFFE00
06FFFF9000006FFFF900
01FFFFD00000AFFFF400
00BFFFF30000EFFFE000
006FFFF70004FFFF9000
001FFFFC0009FFFF4000
000BFFFF100DFFFE0000
0006FFFF603FFFF90000
0001FFFFA07FFFF40000
0000BFFFE0CFFFE00000
00006FFFF6FFFFA00000
00002FFFFEFFFF500000
00000CFFFFFFFE000000
000007FFFFFFFA000000
000002FFFFFFF5000000
000000CFFFFFE1000000
0000007FFFFFA0000000
0000002FFFFF50000000
0000000CFFFE10000000
ENDCHAR
STARTCHAR W
ENCODING 87
SWIDTH 819 0
DWIDTH 26 0
BBX 24 24 1 -1
BITMAP
066662000166662000166662
1FFFF60002FFFF50002FFFF5
1FFFF60002FFFF50002FFFF5
1FFFF60002FFFF50002FFFF5
1FFFF60002FFFF50002FFFF5
1FFFF60002FFFF50002FFFF5
1FFFF60002FFFF50002FFFF5
1FFFF60002FFFF50002FFFF5
1FFFF60002FFFF50002FFFF5
1FFFF60002FFFF50002FFFF5
1FFFF60002FFFF50002FFFF5
1FFFF60002FFFF50002FFFF5
1FFFF60002FFFF50002FFFF5
1FFFF60002FFFF50002FFFF5
1FFFF60002FFFF50002FFFF5
1FFFF60002FFFF50002FFFF5
1FFFF60002FFFF60003FFFF5
0FFFFA0005FFFF90006FFFF3
0CFFFF836EFFFFF736EFFFE1
06FFFFFFFFFFFFFFFFFFFF90
00CFFFFFFFFFFFFFFFFFFE20
002CFFFFFFFEDFFFFFFFE300
00018EFFFFA218EFFFF92000
000000344100000343100000
ENDCHAR
STARTCHAR X
ENCODING 88
SWIDTH 608 0
DWIDTH 19 0
BBX 20 23 0 0
BITMAP
56666300000000666662
7FFFFD10000007FFFFD1
0CFFFF8000002EFFFF50
03FFFFF20000AFFFFA00
009FFFFB0004FFFFE200
001EFFFF500DFFFF7000
0006FFFFD17FFFFD0000
0000BFFFFAEFFFF40000
00003FFFFFFFFF900000
000008FFFFFFFE100000
000001DFFFFFF6000000
0000005FFFFFC0000000
0000008FFFFFE1000000
000003FFFFFFFA000000
00000CFFFFFFFF400000
00006FFFFFFFFFD00000
0001EFFFF5CFFFF70000
0009FFFFA04FFFFF2000
004FFFFF200AFFFFB000
00CFFFF70001EFFFF500
07FFFFD000007FFFFD10
2EFFFF5000000CFFFF80
AFFFFB00000004FFFFF3
ENDCHAR
STARTCHAR Y
ENCODING 89
SWIDTH 620 0
DWIDTH 20 0
BBX 19 23 0 0
BITMAP
06666300000000466650
1FFFF7000000009FFFD0
1FFFF7000000009FFFD0
1FFFF7000000009FFFD0
1FFFF7000000009FFFD0
1FFFF7000000009FFFD0
1FFFF7000000009FFFD0
0FFFF7000000009FFFD0
0EFFF900000000CFFFC0
0BFFFE20000003FFFF90
07FFFFC100002DFFFF40
01EFFFFE7448EFFFFC00
006FFFFFFFFFFFFFF300
0008FFFFFFFFFFFF6000
00006FFFFFFFFFE40000
0000029EFFFFD8100000
00000005FFFF20000000
00000005FFFF20000000
00000005FFFF20000000
00000005FFFF20000000
00000005FFFF20000000
00000005FFFF20000000
00000005FFFF20000000
ENDCHAR
STARTCHAR Z
ENCODING 90
SWIDTH 586 0
DWIDTH 19 0
BBX 19 23 0 0
BITMAP
26666666666666666600
4FFFFFFFFFFFFFFFF900
4FFFFFFFFFFFFFFFE200
4FFFFFFFFFFFFFFF8000
4FFFFFFFFFFFFFFE1000
0111111112EFFFF70000
0000000007FFFFD10000
000000001EFFFF600000
000000008FFFFD000000
00000002EFFFF5000000
00000009FFFFC0000000
0000002FFFFF40000000
000000AFFFFB00000000
000003FFFFF300000000
00000BFFFFA000000000
00004FFFFF2000000000
0000CFFFF90000000000
0005FFFFF20000000000
000DFFFFD77777777710
006FFFFFFFFFFFFFFF10
01DFFFFFFFFFFFFFFF10
07FFFFFFFFFFFFFFFF10
1EFFFFFFFFFFFFFFFF10
ENDCHAR
STARTCHAR bracketleft
ENCODING 91
SWIDTH 380 0
DWIDTH 12 0
BBX 9 30 2 -4
BITMAP
9999999990
FFFFFFFFF0
FFFFFFFFF0
FFFFFFFFF0
FFFFEDDDD0
FFFF800000
FFFF800000
FFFF800000
FFFF800000
FFFF800000
FFFF800000
FFFF800000
FFFF800000
FFFF800000
FFFF800000
FFFF800000
FFFF800000
FFFF800000
FFFF800000
FFFF800000
FFFF800000
FFFF800000
FFFF800000
FFFF800000
FFFFA44440
FFFFFFFFF0
FFFFFFFFF0
FFFFFFFFF0
FFFFFFFFF0
3333333330
ENDCHAR
STARTCHAR backslash
ENCODING 92
SWIDTH 490 0
DWIDTH 16 0
BBX 14 23 1 0
BITMAP
66664000000000
BFFFD000000000
5FFFF400000000
0DFFFB00000000
07FFFF20000000
01FFFF80000000
00AFFFE0000000
004FFFF5000000
000DFFFC000000
0006FFFF300000
0001EFFF900000
00009FFFE10000
00003FFFF60000
00000CFFFD0000
000005FFFF4000
000000EFFFA000
0000008FFFF200
0000002FFFF800
0000000AFFFD00
00000004FFFF50
00000000DFFFB0
000000007FFFF2
000000001EFFF9
ENDCHAR
STARTCHAR bracketright
ENCODING 93
SWIDTH 380 0
DWIDTH 12 0
BBX 10 30 1 -4
BITMAP
7999999992
CFFFFFFFF3
CFFFFFFFF3
CFFFFFFFF3
BDDDEFFFF3
00005FFFF3
00005FFFF3
00005FFFF3
00005FFFF3
00005FFFF3
00005FFFF3
00005FFFF3
00005FFFF3
00005FFFF3
00005FFFF3
00005FFFF3
00005FFFF3
00005FFFF3
00005FFFF3
00005FFFF3
00005FFFF3
00005FFFF3
00005FFFF3
00005FFFF3
34448FFFF3
CFFFFFFFF3
CFFFFFFFF3
CFFFFFFFF3
CFFFFFFFF3
2333333330
ENDCHAR
STARTCHAR asciicircum
ENCODING 94
SWIDTH 293 0
DWIDTH 9 0
BBX 10 8 0 15
BITMAP
0000300000
0005FA0000
006FFFB100
07FFFFFB10
8FFFFFFFC1
8FFE3AFFD1
0AD2008F30
0010000300
ENDCHAR
STARTCHAR underscore
ENCODING 95
SWIDTH 598 0
DWIDTH 19 0
BBX 14 5 3 -8
BITMAP
CCCCCCCCCCCCC1
FFFFFFFFFFFFF2
FFFFFFFFFFFFF2
FFFFFFFFFFFFF2
77777777777771
ENDCHAR
STARTCHAR grave
ENCODING 96
SWIDTH 225 0
DWIDTH 7 0
BBX 7 8 0 15
BITMAP
00200000
02E80000
1DFF9000
AFFFFA00
3CFFFFA0
007EFFC0
0002AE20
00000100
ENDCHAR
STARTCHAR a
ENCODING 97
SWIDTH 607 0
DWIDTH 19 0
BBX 18 19 0 -1
BITMAP
000000034530000000
000017DFFFFE810059
0003DFFFFFFFFE44FC
002EFFFFFFFFFFFEFC
00CFFFFFFFFFFFFFFC
06FFFFD5003AFFFFFC
0CFFFE100000AFFFFC
1FFFF70000001EFFFC
3FFFF200000009FFFC
4FFFF100000007FFFC
3FFFF200000009FFFC
1FFFF70000001EFFFC
0CFFFE200000AFFFFC
07FFFFD5103BFFFFFC
00DFFFFFFFFFFFFFFC
003FFFFFFFFFFFFEFC
0003DFFFFFFFFD44FC
000017DFFFFD71008C
000000024420000000
ENDCHAR
STARTCHAR b
ENCODING 98
SWIDTH 597 0
DWIDTH 19 0
BBX 18 25 1 -1
BITMAP
466630000000000000
BFFF80000000000000
BFFF80000000000000
BFFF80000000000000
BFFF80000000000000
BFFF80000000000000
BFFF80035530000000
BFFF86EFFFFE810000
BFFFEFFFFFFFFD3000
BFFFFFFFFFFFFFE300
BFFFFFFFFFFFFFFD10
BFFFFFB3005DFFFF70
BFFFFB000001EFFFD0
BFFFF20000006FFFF2
BFFFB00000001FFFF4
BFFF900000000EFFF5
9FFFB00000001FFFF4
7FFFE20000006FFFF2
3FFFFB000002EFFFD0
0CFFFFC3016EFFFF70
04FFFFFFFFFFFFFD10
007FFFFFFFFFFFF300
0006FFFFFFFFFD3000
000029EFFFFD710000
000000034420000000
ENDCHAR
STARTCHAR c
ENCODING 99
SWIDTH 521 0
DWIDTH 17 0
BBX 17 19 0 -1
BITMAP
000000024541000000
000006DFFFFE920000
0001CFFFFFFFFE6000
001DFFFFFFFFFFF600
00AFFFFFFFFFFFFE10
04FFFFE6103AFFF500
0BFFFF3000009F5000
1EFFF8000000150000
3FFFF3000000000000
4FFFF1000000000000
3FFFF2000000000000
2FFFF6000000020000
0CFFFE2000008D2000
06FFFFE6103AFFD200
00CFFFFFFFFFFFFD10
002EFFFFFFFFFFF700
0002CFFFFFFFFF7000
000006DFFFFE920000
000000024430000000
ENDCHAR
STARTCHAR d
ENCODING 100
SWIDTH 606 0
DWIDTH 19 0
BBX 18 25 0 -1
BITMAP
000000000000036665
00000000000008FFFC
00000000000008FFFC
00000000000008FFFC
00000000000008FFFC
00000000000008FFFC
00000003454008FFFC
000007DFFFFE78FFFC
0002DFFFFFFFFEFFFC
002EFFFFFFFFFFFFFC
00CFFFFFFFFFFFFFFC
06FFFFD5003BFFFFFC
0CFFFD100000AFFFFC
1FFFF60000001EFFFC
3FFFF20000000AFFFC
4FFFF100000008FFFC
3FFFF20000000AFFFC
1FFFF80000001EFFFC
0CFFFF300000AFFFFC
06FFFFE6103CFFFFFC
00CFFFFFFFFFFFFFFC
002EFFFFFFFFFFFEFC
0002CFFFFFFFFD35FC
000006DFFFFD71009C
000000024420000000
ENDCHAR
STARTCHAR e
ENCODING 101
SWIDTH 524 0
DWIDTH 17 0
BBX 17 19 0 -1
BITMAP
000000035531000000
000017DFFFFFA30000
0003DFFFFFFFFF8000
003EFFFFFFFFFFF900
00DFFFFFFEFFFFFE10
06FFFFD510CFFFF400
0CFFFE2009FFFF6000
1FFFF7005FFFF90000
3FFFF202EFFFB00000
4FFFF10CFFFD100000
3FFFF29FFFE2000000
1FFFFBFFFF40020000
0BFFFFFFF7008E2000
05FFFFFFA03AFFE200
00CFFFFFFFFFFFFD10
002EFFFFFFFFFFF800
0002CFFFFFFFFF7000
000006CFFFFE930000
000000024431000000
ENDCHAR
STARTCHAR f
ENCODING 102
SWIDTH 395 0
DWIDTH 13 0
BBX 14 25 0 0
BITMAP
00000016BEFFF7
000004DFFFFFF7
00004FFFFFFFF7
0001EFFFFFFFF7
0009FFFFC64442
000EFFFB000000
002FFFF4000000
003FFFF1000000
3BCFFFFBBBBB30
4FFFFFFFFFFF40
4FFFFFFFFFFF40
4FFFFFFFFFFF40
289FFFF8888820
003FFFF1000000
003FFFF1000000
003FFFF1000000
003FFFF1000000
003FFFF1000000
003FFFF1000000
003FFFF1000000
003FFFF1000000
003FFFF1000000
003FFFF1000000
003FFFF1000000
003FFFF1000000
ENDCHAR
STARTCHAR g
ENCODING 103
SWIDTH 607 0
DWIDTH 19 0
BBX 18 25 0 -7
BITMAP
000000024530000000
000007DFFFFE810059
0002DFFFFFFFFE44FC
002EFFFFFFFFFFFEFC
00CFFFFFFFFFFFFFFC
05FFFFD5003AFFFFFC
0BFFFE100000AFFFFC
1FFFF70000001EFFFC
3FFFF200000009FFFC
4FFFF100000007FFFC
3FFFF300000009FFFC
1FFFF70000001EFFFC
0CFFFE200000AFFFFC
06FFFFE5103BFFFFFC
00DFFFFFFFFFFFFFFC
003EFFFFFFFFFFFFFC
0003DFFFFFFFFFFFFC
000017DFFFFFADFFFA
0000000244315FFFF6
000000000006EFFFE1
0000000BDDFFFFFF60
0000000DFFFFFFFA00
0000000DFFFFFF9000
0000000DFFFFB40000
000000056641000000
ENDCHAR
STARTCHAR h
ENCODING 104
SWIDTH 562 0
DWIDTH 18 0
BBX 16 24 1 0
BITMAP
2666500000000000
6FFFD00000000000
6FFFD00000000000
6FFFD00000000000
6FFFD00000000000
6FFFD00000000000
6FFFD00000000000
6FFFD6CEFEA30000
6FFFFFFFFFFF9000
6FFFFFFFFFFFFA00
6FFFFFFFFFFFFF60
6FFFFFB559FFFFE0
6FFFF900006FFFF4
6FFFF100000DFFF7
6FFFE000000BFFF9
6FFFD000000BFFF9
6FFFD000000BFFF9
6FFFD000000BFFF9
6FFFD000000BFFF9
6FFFD000000BFFF9
6FFFD000000BFFF9
6FFFD000000BFFF9
6FFFD000000BFFF9
6FFFD000000BFFF9
ENDCHAR
STARTCHAR i
ENCODING 105
SWIDTH 235 0
DWIDTH 8 0
BBX 6 25 1 0
BITMAP
001000
2BFE70
BFFFF5
FFFFF9
EFFFF7
6FFFD1
037610
000000
4BBBA0
6FFFE0
6FFFE0
6FFFE0
6FFFE0
6FFFE0
6FFFE0
6FFFE0
6FFFE0
6FFFE0
6FFFE0
6FFFE0
6FFFE0
6FFFE0
6FFFE0
6FFFE0
6FFFE0
ENDCHAR
STARTCHAR j
ENCODING 106
SWIDTH 237 0
DWIDTH 8 0
BBX 12 32 -5 -7
BITMAP
000000001000
0000001BFF80
000000AFFFF6
000000EFFFFA
000000DFFFF8
0000005FFFE1
000000037710
000000000000
0000004BBBB0
0000005FFFF0
0000005FFFF0
0000005FFFF0
0000005FFFF0
0000005FFFF0
0000005FFFF0
0000005FFFF0
0000005FFFF0
0000005FFFF0
0000005FFFF0
0000005FFFF0
0000005FFFF0
0000005FFFF0
0000005FFFF0
0000006FFFE0
000000BFFFC0
000005FFFF80
00017FFFFF20
AEEFFFFFF800
BFFFFFFFB000
BFFFFFF91000
BFFFFB400000
465420000000
ENDCHAR
STARTCHAR k
ENCODING 107
SWIDTH 539 0
DWIDTH 17 0
BBX 16 24 1 0
BITMAP
2666500000000000
6FFFE00000000000
6FFFE00000000000
6FFFE00000000000
6FFFE00000000000
6FFFE00000000000
6FFFE00000000000
6FFFE000001ABBB9
6FFFE00000AFFFF4
6FFFE00007FFFF60
6FFFE0004FFFFA00
6FFFE002EFFFC100
6FFFE00CFFFE2000
6FFFE09FFFF40000
6FFFE6FFFFC00000
6FFFFFFFFFF50000
6FFFFFFFFFFD0000
6FFFFFFFFFFF7000
6FFFFFF7CFFFE100
6FFFFFA04FFFF900
6FFFFD100AFFFF30
6FFFF30002FFFFB0
6FFFE000008FFFF5
6FFFE000001EFFFD
ENDCHAR
STARTCHAR l
ENCODING 108
SWIDTH 235 0
DWIDTH 8 0
BBX 5 24 1 0
BITMAP
266650
6FFFE0
6FFFE0
6FFFE0
6FFFE0
6FFFE0
6FFFE0
6FFFE0
6FFFE0
6FFFE0
6FFFE0
6FFFE0
6FFFE0
6FFFE0
6FFFE0
6FFFE0
6FFFE0
6FFFE0
6FFFE0
6FFFE0
6FFFE0
6FFFE0
6FFFE0
6FFFE0
ENDCHAR
STARTCHAR m
ENCODING 109
SWIDTH 762 0
DWIDTH 24 0
BBX 22 17 1 0
BITMAP
4A117CFFC7003AEFEA4000
6FCDFFFFFFC6FFFFFFF900
6FFFFFFFFFFFFFFFFFFF90
6FFFFFFFFFFFFFFFFFFFF3
6FFFFD55DFFFFF848FFFF9
6FFFF2002FFFFA0009FFFC
6FFFE0000DFFF60005FFFE
6FFFD0000DFFF60005FFFE
6FFFD0000DFFF60005FFFE
6FFFD0000DFFF60005FFFE
6FFFD0000DFFF60005FFFE
6FFFD0000DFFF60005FFFE
6FFFD0000DFFF60005FFFE
6FFFD0000DFFF60005FFFE
6FFFD0000DFFF60005FFFE
6FFFD0000DFFF60005FFFE
6FFFD0000DFFF60005FFFE
ENDCHAR
STARTCHAR n
ENCODING 110
SWIDTH 562 0
DWIDTH 18 0
BBX 16 17 1 0
BITMAP
4A1028DFFE930000
6FB7FFFFFFFF9000
6FFFFFFFFFFFFA00
6FFFFFFFFFFFFF60
6FFFFFB559FFFFE0
6FFFF900006FFFF4
6FFFF100000DFFF7
6FFFE000000BFFF9
6FFFD000000AFFF9
6FFFD000000AFFF9
6FFFD000000AFFF9
6FFFD000000AFFF9
6FFFD000000AFFF9
6FFFD000000AFFF9
6FFFD000000AFFF9
6FFFD000000AFFF9
6FFFD000000AFFF9
ENDCHAR
STARTCHAR o
ENCODING 111
SWIDTH 579 0
DWIDTH 19 0
BBX 18 19 0 -1
BITMAP
000000034541000000
000007DFFFFFB40000
0002DFFFFFFFFF9000
002EFFFFFFFFFFFA00
00CFFFFFFFFFFFFF60
06FFFFD50029FFFFE1
0CFFFE2000008FFFF5
1FFFF70000001EFFF9
3FFFF200000009FFFB
4FFFF100000008FFFC
3FFFF200000009FFFB
1FFFF80000001EFFF8
0CFFFF3000009FFFF4
05FFFFE6103AFFFFD0
00CFFFFFFFFFFFFF40
002EFFFFFFFFFFF800
0002CFFFFFFFFF7000
000006CFFFFEA20000
000000024430000000
ENDCHAR
STARTCHAR p
ENCODING 112
SWIDTH 608 0
DWIDTH 19 0
BBX 18 25 1 -7
BITMAP
000000014531000000
4A1004BFFFFFA30000
6FA19FFFFFFFFF8000
6FFEFFFFFFFFFFF900
6FFFFFFFFFFFFFFF50
6FFFFFD50029FFFFD0
6FFFFD1000008FFFF4
6FFFF50000000EFFF8
6FFFF10000000AFFFA
6FFFF000000008FFFB
6FFFF10000000AFFFA
6FFFF60000001EFFF8
6FFFFE2000009FFFF4
6FFFFFD5103AFFFFD0
6FFFFFFFFFFFFFFF60
6FFFFFFFFFFFFFFA00
6FFFFFFFFFFFFF9000
6FFFE3AFFFFFB40000
6FFFE0014541000000
6FFFE0000000000000
6FFFE0000000000000
6FFFE0000000000000
6FFFE0000000000000
6FFFE0000000000000
266650000000000000
ENDCHAR
STARTCHAR q
ENCODING 113
SWIDTH 607 0
DWIDTH 19 0
BBX 18 25 0 -7
BITMAP
000000024530000000
000017DFFFFE810059
0003DFFFFFFFFD44FC
002EFFFFFFFFFFFEFC
00DFFFFFFFFFFFFFFC
06FFFFD5103AFFFFFC
0CFFFE200000AFFFFC
1FFFF70000001EFFFC
3FFFF200000009FFFC
4FFFF100000007FFFC
3FFFF200000009FFFC
1FFFF70000001EFFFC
0CFFFE200000AFFFFC
06FFFFD5103BFFFFFC
00CFFFFFFFFFFFFFFC
002EFFFFFFFFFFFFFC
0002DFFFFFFFFFFFFC
000017DFFFFD67FFFC
00000002453007FFFC
00000000000007FFFC
00000000000007FFFC
00000000000007FFFC
00000000000007FFFC
00000000000007FFFC
000000000000036665
ENDCHAR
STARTCHAR r
ENCODING 114
SWIDTH 414 0
DWIDTH 13 0
BBX 12 17 1 0
BITMAP
4A00037ABBB9
6F82BFFFFFFD
6FFEFFFFFFFD
6FFFFFFFFFFD
6FFFFFEA8887
6FFFFC200000
6FFFF3000000
6FFFE0000000
6FFFD0000000
6FFFD0000000
6FFFD0000000
6FFFD0000000
6FFFD0000000
6FFFD0000000
6FFFD0000000
6FFFD0000000
6FFFD0000000
ENDCHAR
STARTCHAR s
ENCODING 115
SWIDTH 523 0
DWIDTH 17 0
BBX 16 17 1 0
BITMAP
00059ABBBBBBBB00
02CFFFFFFFFFFF00
1DFFFFFFFFFFFF00
7FFFFFFFFFFFFF00
CFFFD88888888800
EFFF600000000000
DFFFB54444310000
9FFFFFFFFFFF9100
2EFFFFFFFFFFFD10
04EFFFFFFFFFFF90
0029DEEEEEFFFFE0
00000000004FFFF1
44444444449FFFF1
EFFFFFFFFFFFFFC0
EFFFFFFFFFFFFF40
EFFFFFFFFFFFF700
EFFFFFFFFFEB4000
ENDCHAR
STARTCHAR t
ENCODING 116
SWIDTH 437 0
DWIDTH 14 0
BBX 14 24 0 0
BITMAP
00366650000000
007FFFC0000000
007FFFC0000000
007FFFC0000000
007FFFC0000000
007FFFC0000000
007FFFC0000000
6BDFFFEBBBBBB3
8FFFFFFFFFFFF4
8FFFFFFFFFFFF4
8FFFFFFFFFFFF4
48BFFFE8888882
007FFFC0000000
007FFFC0000000
007FFFC0000000
007FFFC0000000
007FFFC0000000
006FFFE0000000
003FFFF8000000
000CFFFFA54441
0004FFFFFFFFF4
00008FFFFFFFF4
000007FFFFFFF4
00000028CEFFF4
ENDCHAR
STARTCHAR u
ENCODING 117
SWIDTH 562 0
DWIDTH 18 0
BBX 16 18 1 -1
BITMAP
7BBB7000000ABBB4
9FFFA000000EFFF5
9FFFA000000EFFF5
9FFFA000000EFFF5
9FFFA000000EFFF5
9FFFA000000EFFF5
9FFFA000000EFFF5
9FFFA000000EFFF5
9FFFA000000EFFF5
9FFFA000000EFFF5
8FFFC000001FFFF5
6FFFF300009FFFF5
1FFFFD4018FFFFF5
0AFFFFFFFFFFFFF5
01DFFFFFFFFFFFF5
003DFFFFFFFF6BF5
00018EFFFFA202E5
0000003441000000
ENDCHAR
STARTCHAR v
ENCODING 118
SWIDTH 532 0
DWIDTH 17 0
BBX 17 17 0 0
BITMAP
9BBBB0000000BBBBA0
8FFFF4000004FFFF80
2FFFFA000009FFFF30
0CFFFE10000EFFFC00
06FFFF50005FFFF600
01EFFFA000AFFFF100
009FFFF101FFFFA000
004FFFF606FFFF4000
000DFFFB0BFFFD0000
0007FFFF3FFFF80000
0002FFFFCFFFF20000
0000BFFFFFFFB00000
00005FFFFFFF600000
00000EFFFFFE100000
000009FFFFF9000000
000003FFFFF3000000
000000CFFFD0000000
ENDCHAR
STARTCHAR w
ENCODING 119
SWIDTH 756 0
DWIDTH 24 0
BBX 22 18 1 -1
BITMAP
6BBB80000BBBB20005BBB8
8FFFB0000FFFF40008FFFB
8FFFB0000FFFF40008FFFB
8FFFB0000FFFF40008FFFB
8FFFB0000FFFF40008FFFB
8FFFB0000FFFF40008FFFB
8FFFB0000FFFF40008FFFB
8FFFB0000FFFF40008FFFB
8FFFB0000FFFF40008FFFB
8FFFB0000FFFF40008FFFB
8FFFB0000FFFF40008FFFB
7FFFD0002FFFF50009FFFA
5FFFF701BFFFFD205FFFF8
1EFFFFFFFFFFFFFFFFFFF3
06FFFFFFFFFFFFFFFFFF90
009FFFFFFFEEFFFFFFFB10
0005DFFFFB319FFFFE7000
0000024410000134300000
ENDCHAR
STARTCHAR x
ENCODING 120
SWIDTH 528 0
DWIDTH 17 0
BBX 17 17 0 0
BITMAP
ACCCC5000006CCCC90
2EFFFE20002EFFFE20
06FFFFB000CFFFF500
009FFFF707FFFF8000
001DFFFF6FFFFC0000
0003FFFFFFFFE20000
00006FFFFFFF500000
00000AFFFFF9000000
000003FFFFF2000000
00000BFFFFFA000000
00007FFFFFFF600000
0003FFFFFFFFE20000
001DFFFE4EFFFC0000
009FFFF607FFFF8000
05FFFFB000CFFFF400
2EFFFE20003FFFFD10
BFFFF7000008FFFFA0
ENDCHAR
STARTCHAR y
ENCODING 121
SWIDTH 562 0
DWIDTH 18 0
BBX 16 24 1 -7
BITMAP
7BBB7000000ABBB4
9FFFA000000EFFF6
9FFFA000000EFFF6
9FFFA000000EFFF6
9FFFA000000EFFF6
9FFFA000000EFFF6
9FFFA000000EFFF6
9FFFA000000EFFF6
9FFFA000000EFFF6
9FFFA000000EFFF6
8FFFC000001FFFF6
6FFFF300009FFFF6
1FFFFD4018FFFFF6
0AFFFFFFFFFFFFF6
01DFFFFFFFFFFFF6
003DFFFFFFFFFFF5
00018EFFFECFFFF3
0000003441CFFFE0
000000004CFFFF80
00005EDEFFFFFE10
00005FFFFFFFF300
00005FFFFFFE3000
00005FFFFE810000
0000266530000000
ENDCHAR
STARTCHAR z
ENCODING 122
SWIDTH 481 0
DWIDTH 15 0
BBX 15 17 0 0
BITMAP
3BBBBBBBBBBBBB50
4FFFFFFFFFFFFE10
4FFFFFFFFFFFF700
4FFFFFFFFFFFD000
2888888BFFFF5000
0000000BFFFB0000
0000005FFFF30000
000000DFFF900000
000007FFFE100000
00001EFFF7000000
00009FFFD0000000
0003FFFF50000000
000BFFFD44444430
004FFFFFFFFFFFA0
00DFFFFFFFFFFFA0
06FFFFFFFFFFFFA0
1EFFFFFFFFFFFFA0
ENDCHAR
STARTCHAR braceleft
ENCODING 123
SWIDTH 466 0
DWIDTH 15 0
BBX 14 30 0 -4
BITMAP
00000003899997
0000009FFFFFFC
000007FFFFFFFC
00001EFFFFFFFC
00003FFFFEDDDA
00004FFFF40000
00004FFFF40000
00004FFFF40000
00004FFFF40000
00004FFFF40000
00004FFFF40000
00009FFFF20000
499BFFFFC00000
6FFFFFFE300000
6FFFFFE2000000
6FFFFFFC100000
5DDFFFFFA00000
0001CFFFF10000
00005FFFF30000
00004FFFF40000
00004FFFF40000
00004FFFF40000
00004FFFF40000
00004FFFF40000
00003FFFF74443
00002FFFFFFFFC
00000CFFFFFFFC
000003FFFFFFFC
0000003CFFFFFC
00000000233332
ENDCHAR
STARTCHAR bar
ENCODING 124
SWIDTH 267 0
DWIDTH 9 0
BBX 5 30 2 -4
BITMAP
999950
FFFF80
FFFF80
FFFF80
FFFF80
FFFF80
FFFF80
FFFF80
FFFF80
FFFF80
FFFF80
FFFF80
FFFF80
FFFF80
FFFF80
FFFF80
FFFF80
FFFF80
FFFF80
FFFF80
FFFF80
FFFF80
FFFF80
FFFF80
FFFF80
FFFF80
FFFF80
FFFF80
FFFF80
333320
ENDCHAR
STARTCHAR braceright
ENCODING 125
SWIDTH 466 0
DWIDTH 15 0
BBX 14 30 1 -4
BITMAP
79999730000000
CFFFFFF9000000
CFFFFFFF700000
CFFFFFFFE00000
BDDDEFFFF20000
00005FFFF30000
00005FFFF30000
00005FFFF30000
00005FFFF30000
00005FFFF30000
00005FFFF30000
00003FFFF80000
00000DFFFFB993
000004EFFFFFF5
0000003EFFFFF5
000002DFFFFFF5
00000BFFFFEDD4
00002FFFFA1000
00004FFFF30000
00005FFFF30000
00005FFFF30000
00005FFFF30000
00005FFFF30000
00005FFFF30000
34448FFFF20000
CFFFFFFFF10000
CFFFFFFFB00000
CFFFFFFE200000
CFFFFFB2000000
23333100000000
ENDCHAR
STARTCHAR asciitilde
ENCODING 126
SWIDTH 451 0
DWIDTH 14 0
BBX 12 7 1 8
BITMAP
0059950037A7
0AFFFFA06FFD
3FFFFFFBCFFD
6FFFFFFFFFFB
5FFF24EFFFF5
2FFF303DFE70
033210001000
ENDCHAR
STARTCHAR nonbreakingspace
ENCODING 160
SWIDTH 279 0
DWIDTH 9 0
BBX 1 1 0 0
BITMAP
00
ENDCHAR
STARTCHAR exclamdown
ENCODING 161
SWIDTH 274 0
DWIDTH 9 0
BBX 7 24 1 -5
BITMAP
03CEA100
0DFFFB00
3FFFFF00
2FFFFD00
08FFF500
00352000
02555100
06FFF300
07FFF400
08FFF500
08FFF500
09FFF600
0AFFF700
0BFFF800
0CFFF900
0DFFFA00
0EFFFB00
0EFFFB00
0FFFFC00
1FFFFD00
2FFFFE00
3FFFFF00
4FFFFF10
28888810
ENDCHAR
STARTCHAR cent
ENCODING 162
SWIDTH 462 0
DWIDTH 15 0
BBX 13 23 1 0
BITMAP
00000277300000
000006FF800000
000006FF800000
000006FF800000
00002AFFB30000
0009FFFFFFA100
00BFFFFFFFFD10
08FFFFDDFFFF70
1FFFE4002CFA00
7FFF5000029000
AFFD0000000000
BFFB0000000000
AFFD0000000000
7FFF5000029000
2FFFE6105DF900
08FFFFFFFFFF60
00AFFFFFFFFC10
0006EFFFFE8000
000008FF910000
000006FF800000
000006FF800000
000006FF800000
000006FF800000
ENDCHAR
STARTCHAR sterling
ENCODING 163
SWIDTH 681 0
DWIDTH 22 0
BBX 20 23 1 0
BITMAP
00000000466400000000
0000008EFFFA00000000
00001CFFFFFA00000000
0000BFFFFFFA00000000
0004FFFFFFFA00000000
000AFFFF821100000000
000DFFFB000000000000
000EFFF8000000000000
000EFFF8000000000000
000EFFF8000000000000
6CCFFFFECC8000000000
8FFFFFFFFFA000000000
8FFFFFFFFFA000000000
8FFFFFFFFFA000000000
477FFFFB775000000000
000EFFF8000000000000
000EFFF800000009BBB8
000EFFF80000003FFFF9
000EFFFC777779EFFFF5
000EFFFFFFFFFFFFFFD0
000EFFFFFFFFFFFFFF30
000EFFFFFFFFFFFFE400
000EFFFFFFFFFEC71000
ENDCHAR
STARTCHAR currency
ENCODING 164
SWIDTH 454 0
DWIDTH 15 0
BBX 14 14 0 4
BITMAP
00100000000200
01C90001003E80
1CFFABFFE9EFF6
08FFFFFFFFFFD2
009FFFA9DFFE10
009FF5001CFF10
00CFC00005FF40
00DFB00004FF50
00BFE10008FF30
007FFC317FFE00
03EFFFFFFFFF90
0DFFEFFFFEFFF6
03ED1377518FA0
00310000000500
ENDCHAR
STARTCHAR yen
ENCODING 165
SWIDTH 653 0
DWIDTH 21 0
BBX 19 23 1 0
BITMAP
36666000000000666630
8FFFF000000001FFFF60
8FFFF000000001FFFF60
8FFFF000000001FFFF60
8FFFF000000001FFFF60
8FFFF000000001FFFF60
8FFFF000000001FFFF60
7FFFF000000001FFFF60
6FFFF200000004FFFF50
3FFFF90000000AFFFF20
0DFFFF6000007FFFFC00
06FFFFFB535BFFFFF500
00BFFFFFFFFFFFFFA000
001BFFFFFFFFFFFB0000
0355BFFFFFFFFFA55300
0BFFFFFFFFFFFFFFF900
0BFFFFFFFFFFFFFFF900
0BFFFFFFFFFFFFFFF900
0AEEEEEFFFFFEEEEE900
0000000CFFFB00000000
0000000CFFFB00000000
0000000CFFFB00000000
0000000CFFFB00000000
ENDCHAR
STARTCHAR brokenbar
ENCODING 166
SWIDTH 269 0
DWIDTH 9 0
BBX 5 30 2 -4
BITMAP
899950
EFFF80
EFFF80
EFFF80
EFFF80
EFFF80
EFFF80
EFFF80
EFFF80
EFFF80
EFFF80
EFFF80
EFFF80
333320
000000
000000
899950
EFFF80
EFFF80
EFFF80
EFFF80
EFFF80
EFFF80
EFFF80
EFFF80
EFFF80
EFFF80
EFFF80
EFFF80
333320
ENDCHAR
STARTCHAR section
ENCODING 167
SWIDTH 569 0
DWIDTH 18 0
BBX 16 23 1 0
BITMAP
0000256666666630
002BFFFFFFFFFF80
02EFFFFFFFFFFF80
0BFFFFFFFFFFFF80
1FFFFFDDDDDDDD70
3FFFF20000000000
2FFFFA8888862000
0EFFFFFFFFFFF800
07FFFFFFFFFFFF90
0AFFFFFFFFFFFFF3
1FFFFDBBBBCFFFF9
3FFFF1000008FFFB
3FFFF522222BFFFB
0EFFFFFFFFFFFFF7
08FFFFFFFFFFFFE1
00BFFFFFFFFFFFF2
0007DFFFFFFFFFF9
00000122223AFFFB
13333333334BFFFB
4FFFFFFFFFFFFFF8
4FFFFFFFFFFFFFE1
4FFFFFFFFFFFFE40
4FFFFFFFFFFEA200
ENDCHAR
STARTCHAR dieresis
ENCODING 168
SWIDTH 300 0
DWIDTH 10 0
BBX 10 4 0 17
BITMAP
3CC3006C91
DFFD02FFF7
EFFE03FFF8
5EE5009FD2
ENDCHAR
STARTCHAR copyright
ENCODING 169
SWIDTH 655 0
DWIDTH 21 0
BBX 19 19 1 2
BITMAP
00000001343100000000
000005BFFFFFB5000000
0001BFFFFFFFFFB10000
002DFFB51015BFFD2000
00CFE5048A9405EFC000
07FF41BFFFFFC04FF700
0EF80CFFA79FA009FE00
4FF17FE400031002FF40
7FC0CF7000000000CF70
8FA0FF2000000000AF80
8FB0EF3000000000BF80
6FD0BF9000000000DF60
2FF35FF600053004FF20
0CFB0AFFDBDFB00CFB00
04FF808FFFFF909FF300
008FFA2157522AFF8000
0009FFFA767AFFF80000
00005DFFFFFFFD500000
0000005ACDCA50000000
ENDCHAR
STARTCHAR ordfeminine
ENCODING 170
SWIDTH 451 0
DWIDTH 14 0
BBX 12 16 1 7
BITMAP
00039CB71040
007FFFFFD7F1
04FFFDEFFFF1
0CFF4007FFF1
1FF90000BFF1
2FF700008FF1
1FF90000BFF1
0CFF3006FFF1
05FFFCDFFFF1
008FFFFFD8F1
00039CB71071
000000000000
011111111110
3FFFFFFFFFF1
3FFFFFFFFFF1
166666666661
ENDCHAR
STARTCHAR guillemotleft
ENCODING 171
SWIDTH 704 0
DWIDTH 23 0
BBX 21 17 1 0
BITMAP
0000000100000000010000
0000002D900000006E4000
000001DFFA000005FFF500
00001DFFFF60005FFFFE10
0001CFFFF80004FFFFE300
001CFFFF80004FFFFE3000
01BFFFF80003EFFFE30000
0BFFFF90003EFFFE300000
BFFFF90003EFFFF3000000
BFFFFC1003EFFFF7000000
0AFFFFD2003EFFFF900000
009FFFFE3002DFFFFA0000
0008FFFFE4002DFFFFB100
00007FFFFF4001CFFFFC10
000007FFFD10001CFFF900
0000006FE2000001BFA000
0000000530000000070000
ENDCHAR
STARTCHAR logicalnot
ENCODING 172
SWIDTH 529 0
DWIDTH 17 0
BBX 14 8 1 6
BITMAP
17777777777777
2FFFFFFFFFFFFF
2FFFFFFFFFFFFF
2FFFFFFFFFFFFF
1CCCCCCCCDFFFF
0000000004FFFF
0000000004FFFF
0000000004EEEE
ENDCHAR
STARTCHAR uni00AD
ENCODING 173
SWIDTH 418 0
DWIDTH 13 0
BBX 11 5 1 9
BITMAP
077777777730
1FFFFFFFFF80
1FFFFFFFFF80
1FFFFFFFFF80
1CCCCCCCCC60
ENDCHAR
STARTCHAR registered
ENCODING 174
SWIDTH 439 0
DWIDTH 14 0
BBX 12 12 1 11
BITMAP
000158861000
005EFEEFE600
06FD6322BF70
2FB6FFFD39F3
7F26E23BC1E9
BB06E005F1AC
BA06E12BD09C
9D06FFFE40CA
4F66F58F14F6
0BE9901A8EC0
01CFB77AFD20
0007CFFD7100
ENDCHAR
STARTCHAR macron
ENCODING 175
SWIDTH 247 0
DWIDTH 8 0
BBX 8 4 0 17
BITMAP
66666666
FFFFFFFE
FFFFFFFE
DDDDDDDC
ENDCHAR
STARTCHAR degree
ENCODING 176
SWIDTH 381 0
DWIDTH 12 0
BBX 11 10 1 12
BITMAP
0029CDA40000
05FFFFFF7000
2EFFFFFFF500
8FFF98EFFC00
CFF9007FFF00
CFF8006FFF10
9FFE76EFFD00
3FFFFFFFF600
07FFFFFFA000
004BFFC60000
ENDCHAR
STARTCHAR plusminus
ENCODING 177
SWIDTH 516 0
DWIDTH 17 0
BBX 14 18 1 0
BITMAP
00000111110000
00000DFFF60000
00000DFFF60000
00000DFFF60000
27777EFFFA7775
4FFFFFFFFFFFFC
4FFFFFFFFFFFFC
4FFFFFFFFFFFFC
4CCCCFFFFDCCCA
00000DFFF60000
00000DFFF60000
00000DFFF60000
00000122210000
14444444444443
4FFFFFFFFFFFFC
4FFFFFFFFFFFFC
4FFFFFFFFFFFFC
4FFFFFFFFFFFFC
ENDCHAR
STARTCHAR twosuperior
ENCODING 178
SWIDTH 355 0
DWIDTH 11 0
BBX 9 12 1 11
BITMAP
0677763000
0DFFFFF800
0DFFFFFF50
08AAACFFA0
00167BFFB0
03EFFFFF60
0DFFFFFB00
4FFE985000
4FFD888840
4FFFFFFF80
4FFFFFFF80
3999999940
ENDCHAR
STARTCHAR threesuperior
ENCODING 179
SWIDTH 354 0
DWIDTH 11 0
BBX 9 12 1 11
BITMAP
1666663000
3FFFFFF900
3FFFFFFF70
2AAAACFFC0
006779FFD0
00EFFFFF90
00EFFFFF70
00899BFFC0
177779FFD0
3FFFFFFF80
3FFFFFFC10
2999996000
ENDCHAR
STARTCHAR acute
ENCODING 180
SWIDTH 225 0
DWIDTH 7 0
BBX 8 8 0 15
BITMAP
00002000
0005F500
006FFE20
07FFFFD1
8FFFFD50
9FFF9100
0CC30000
01000000
ENDCHAR
STARTCHAR mu
ENCODING 181
SWIDTH 571 0
DWIDTH 18 0
BBX 16 25 1 -8
BITMAP
0BBBB2000004BBBA
1FFFF3000005FFFD
1FFFF3000005FFFD
1FFFF3000005FFFD
1FFFF3000005FFFD
1FFFF3000005FFFD
1FFFF3000005FFFD
1FFFF3000005FFFD
1FFFF3000005FFFD
1FFFF3000006FFFD
1FFFF5000008FFFD
1FFFFB00001EFFFD
1FFFFF9203DFFFFD
1FFFFFFFFFFFFFFD
1FFFFFFFFFFFFFFD
1FFFFFFFFFFFC5FD
1FFFDAFFFFD7007D
1FFFA01343000000
1FFF900000000000
1FFF800000000000
1FFF700000000000
1FFF600000000000
1FFF600000000000
1FFF500000000000
0111000000000000
ENDCHAR
STARTCHAR paragraph
ENCODING 182
SWIDTH 808 0
DWIDTH 26 0
BBX 23 23 1 0
BITMAP
000000035676666666666640
000018EFFFFFFFFFFFFFFF90
0004EFFFFFFFFFFFFFFFFF90
005FFFFFFFFFFFFFFFFFFF90
02EFFFFFFFFFFFFFFFFFFF90
0CFFFFE724FFFF5111EFFF90
3FFFFD1003FFFF4000DFFF90
8FFFF40003FFFF4000DFFF90
BFFFD00003FFFF4000DFFF90
BFFFB00003FFFF4000DFFF90
AFFFC00003FFFF4000DFFF90
8FFFF30003FFFF4000DFFF90
4FFFFC1003FFFF4000DFFF90
0CFFFFD503FFFF4000DFFF90
04FFFFFFFEFFFF4000DFFF90
007FFFFFFFFFFF4000DFFF90
0007FFFFFFFFFF4000DFFF90
00003BFFFFFFFF4000DFFF90
0000001579FFFF4000DFFF90
0000000003FFFF4000DFFF90
0000000003FFFF4000DFFF90
0000000003FFFF4000DFFF90
0000000003FFFF4000DFFF90
ENDCHAR
STARTCHAR periodcentered
ENCODING 183
SWIDTH 261 0
DWIDTH 8 0
BBX 6 6 1 8
BITMAP
03BC70
2EFFF6
7FFFFC
5FFFFA
0CFFE3
005620
ENDCHAR
STARTCHAR cedilla
ENCODING 184
SWIDTH 208 0
DWIDTH 7 0
BBX 7 9 0 -8
BITMAP
001DC000
006F8000
00BFC400
02EFFF30
1208FF90
7E9DFF90
DFFFFF40
4CFFE600
00220000
ENDCHAR
STARTCHAR onesuperior
ENCODING 185
SWIDTH 231 0
DWIDTH 7 0
BBX 5 12 1 11
BITMAP
477730
8FFF70
8FFF70
5DFF70
09FF70
09FF70
09FF70
09FF70
09FF70
09FF70
09FF70
059940
ENDCHAR
STARTCHAR ordmasculine
ENCODING 186
SWIDTH 432 0
DWIDTH 14 0
BBX 12 16 1 7
BITMAP
00039CB82000
007FFFFFF500
05FFFDEFFF30
0CFF4007FFA0
1FF90000BFE0
3FF600009FF0
1FF90000BFE0
0CFF4006FFA0
04FFFDDFFE20
007FFFFFE500
00039CB82000
000000000000
011111111110
3FFFFFFFFFF1
3FFFFFFFFFF1
166666666660
ENDCHAR
STARTCHAR guillemotright
ENCODING 187
SWIDTH 703 0
DWIDTH 23 0
BBX 21 17 1 0
BITMAP
0001000000001000000000
00AC10000003E700000000
1BFFC100003EFF70000000
7FFFFB1000DFFFF6000000
09FFFFB0002DFFFF600000
009FFFFB0002DFFFF50000
000AFFFFA0002EFFFF5000
0000AFFFFA0002EFFFF400
00000AFFFF90002EFFFE40
00002DFFFF90006FFFFE40
0003DFFFF80007FFFFE300
003EFFFF80008FFFFE3000
04EFFFF7000AFFFFD20000
5FFFFF6000BFFFFD200000
2EFFF500007FFFC1000000
03EF40000009FC10000000
0044000000007100000000
ENDCHAR
STARTCHAR onequarter
ENCODING 188
SWIDTH 648 0
DWIDTH 21 0
BBX 19 23 1 0
BITMAP
05777200000046650000
0BFFF5000001EFF50000
0BFFF5000009FFC00000
07EFF500002FFF400000
00BFF50000AFFB000000
00BFF50003FFF3000000
00BFF5000CFF90000000
00BFF5005FFE20000000
00BFF500DFF800000000
00BFF506FFE100000000
00BFF51EFF6000000000
0069938FFD0000000000
000002EFF55FFB000000
000009FFB07FF97FF900
00003FFF309FF77FF900
0000BFFA00CFF47FF900
0004FFF200EFF27FF900
000CFF9001FFF28FF910
006FFE1003FFFFFFFF90
00DFF70005FFFFFFFF90
07FFD00007FFFFFFFF90
1EFF60000000007FF900
9FFC00000000007FF900
ENDCHAR
STARTCHAR onehalf
ENCODING 189
SWIDTH 637 0
DWIDTH 20 0
BBX 19 23 1 0
BITMAP
05777200000046650000
0BFFF5000001EFF50000
0BFFF5000009FFC00000
07EFF500002FFF400000
00BFF50000AFFB000000
00BFF50003FFF3000000
00BFF5000CFF90000000
00BFF5005FFE20000000
00BFF500DFF800000000
00BFF506FFE100000000
00BFF51EFF6000000000
0069938FFD0000000000
000002EFF56FFFFD7000
000009FFB06FFFFFF800
00003FFF306FFFFFFF10
0000BFFA0001123FFF30
0004FFF20004DFFFFF10
000CFF90003FFFFFF800
006FFE1000BFFFFD7000
00DFF70000DFF5111100
07FFD00000DFFFFFFE00
1EFF600000DFFFFFFE00
9FFC000000DFFFFFFE00
ENDCHAR
STARTCHAR threequarters
ENCODING 190
SWIDTH 708 0
DWIDTH 23 0
BBX 21 23 1 0
BITMAP
4666651000000046640000
9FFFFFE4000002FFF50000
9FFFFFFE100009FFB00000
6AAAAEFF60003FFF300000
02777DFF6000BFFA000000
05FFFFFF2004FFF2000000
05FFFFFF100CFF80000000
03999EFF606FFE10000000
47777DFF61DFF700000000
9FFFFFFF27FFD000000000
9FFFFFF71EFF6000000000
599998309FFC0000000000
00000002FFF46FFB000000
0000000AFFB08FF88FF800
0000003FFF30AFF68FF800
000000CFF900CFF48FF800
000005FFE200EFF18FF800
00000DFF8001FFE19FF910
00006FFE1004FFFFFFFF80
0001EFF60006FFFFFFFF80
0008FFD00008FFFFFFFF80
002EFF50000000008FF800
009FFC00000000008FF800
ENDCHAR
STARTCHAR questiondown
ENCODING 191
SWIDTH 602 0
DWIDTH 19 0
BBX 18 24 1 -5
BITMAP
0000000007DD600000
000000006FFFF40000
00000000AFFFF80000
000000008FFFF70000
000000001DFFC10000
000000000144000000
000000001555510000
000000004FFFF30000
000000006FFFF20000
00000002CFFFE00000
00017CDFFFFFA00000
005EFFFFFFFF300000
05FFFFFFFFF6000000
1EFFFFFFFE50000000
8FFFFE974000000000
CFFFE1000000000000
EFFF90000000000000
DFFFA0000000000000
AFFFF6100000000000
5FFFFFFFFFFFFFFFF1
0CFFFFFFFFFFFFFFF1
02DFFFFFFFFFFFFFF1
0019FFFFFFFFFFFFF1
000016788888888880
ENDCHAR
STARTCHAR Agrave
ENCODING 192
SWIDTH 673 0
DWIDTH 22 0
BBX 19 31 1 0
BITMAP
00000020000000000000
000001D9000000000000
00000BFFA00000000000
00008FFFFB1000000000
00002BFFFFC100000000
0000005EFFD100000000
000000019F3000000000
00000000010000000000
00000001465300000000
000004BFFFFFE9100000
0001AFFFFFFFFFE40000
000BFFFFFFFFFFFF5000
009FFFFFFFFFFFFFF300
03FFFFFB4227EFFFFB00
09FFFF9000002DFFFF30
0EFFFD00000004FFFF70
1FFFF700000000DFFFA0
2FFFF500000000BFFFB0
3FFFF400000000BFFFB0
3FFFF400000000BFFFB0
3FFFF400000000BFFFB0
3FFFF400000000BFFFB0
3FFFFFEEEEEEEEFFFFB0
3FFFFFFFFFFFFFFFFFB0
3FFFFFFFFFFFFFFFFFB0
3FFFFFFFFFFFFFFFFFB0
3FFFFA88888888DFFFB0
3FFFF400000000BFFFB0
3FFFF400000000BFFFB0
3FFFF400000000BFFFB0
3FFFF400000000BFFFB0
ENDCHAR
STARTCHAR Aacute
ENCODING 193
SWIDTH 673 0
DWIDTH 22 0
BBX 19 31 1 0
BITMAP
00000000000020000000
000000000004E6000000
00000000005FFF300000
0000000006FFFFD10000
000000007FFFFE600000
000000008FFF91000000
000000000BD400000000
00000000010000000000
00000001465300000000
000004BFFFFFE9100000
0001AFFFFFFFFFE40000
000BFFFFFFFFFFFF5000
009FFFFFFFFFFFFFF300
03FFFFFB4227EFFFFB00
09FFFF9000002DFFFF30
0EFFFD00000004FFFF70
1FFFF700000000DFFFA0
2FFFF500000000BFFFB0
3FFFF400000000BFFFB0
3FFFF400000000BFFFB0
3FFFF400000000BFFFB0
3FFFF400000000BFFFB0
3FFFFFEEEEEEEEFFFFB0
3FFFFFFFFFFFFFFFFFB0
3FFFFFFFFFFFFFFFFFB0
3FFFFFFFFFFFFFFFFFB0
3FFFFA88888888DFFFB0
3FFFF400000000BFFFB0
3FFFF400000000BFFFB0
3FFFF400000000BFFFB0
3FFFF400000000BFFFB0
ENDCHAR
STARTCHAR Acircumflex
ENCODING 194
SWIDTH 673 0
DWIDTH 22 0
BBX 19 30 1 0
BITMAP
00000000010000000000
000000003E8000000000
00000003EFF900000000
0000004EFFFFA1000000
000003FFFDFFFB000000
000000CFC15FF6000000
00000019100490000000
00000001465300000000
000004BFFFFFE9100000
0001AFFFFFFFFFE40000
000BFFFFFFFFFFFF5000
009FFFFFFFFFFFFFF300
03FFFFFB4227EFFFFB00
09FFFF9000002DFFFF30
0EFFFD00000004FFFF70
1FFFF700000000DFFFA0
2FFFF500000000BFFFB0
3FFFF400000000BFFFB0
3FFFF400000000BFFFB0
3FFFF400000000BFFFB0
3FFFF400000000BFFFB0
3FFFFFEEEEEEEEFFFFB0
3FFFFFFFFFFFFFFFFFB0
3FFFFFFFFFFFFFFFFFB0
3FFFFFFFFFFFFFFFFFB0
3FFFFA88888888DFFFB0
3FFFF400000000BFFFB0
3FFFF400000000BFFFB0
3FFFF400000000BFFFB0
3FFFF400000000BFFFB0
ENDCHAR
STARTCHAR Atilde
ENCODING 195
SWIDTH 673 0
DWIDTH 22 0
BBX 19 30 1 0
BITMAP
00000000000000100000
000004CFE803DFB00000
00001EFFFF94FFD00000
00005FFFFFFFFFC00000
00005FFE5DFFFF800000
00002FFC01BFFB100000
00000443000210000000
00000001465300000000
000004BFFFFFE9100000
0001AFFFFFFFFFE40000
000BFFFFFFFFFFFF5000
009FFFFFFFFFFFFFF300
03FFFFFB4227EFFFFB00
09FFFF9000002DFFFF30
0EFFFD00000004FFFF70
1FFFF700000000DFFFA0
2FFFF500000000BFFFB0
3FFFF400000000BFFFB0
3FFFF400000000BFFFB0
3FFFF400000000BFFFB0
3FFFF400000000BFFFB0
3FFFFFEEEEEEEEFFFFB0
3FFFFFFFFFFFFFFFFFB0
3FFFFFFFFFFFFFFFFFB0
3FFFFFFFFFFFFFFFFFB0
3FFFFA88888888DFFFB0
3FFFF400000000BFFFB0
3FFFF400000000BFFFB0
3FFFF400000000BFFFB0
3FFFF400000000BFFFB0
ENDCHAR
STARTCHAR Adieresis
ENCODING 196
SWIDTH 673 0
DWIDTH 22 0
BBX 19 27 1 0
BITMAP
000004CC3006C9000000
00000EFFC02FFF600000
00000EFFD03FFF700000
000006EE5009FC100000
00000002465310000000
000004BFFFFFE9100000
0001AFFFFFFFFFE40000
000BFFFFFFFFFFFF5000
009FFFFFFFFFFFFFF300
03FFFFFB4227EFFFFB00
09FFFF9000002DFFFF30
0EFFFD00000004FFFF70
1FFFF700000000DFFFA0
2FFFF500000000BFFFB0
3FFFF400000000BFFFB0
3FFFF400000000BFFFB0
3FFFF400000000BFFFB0
3FFFF400000000BFFFB0
3FFFFFEEEEEEEEFFFFB0
3FFFFFFFFFFFFFFFFFB0
3FFFFFFFFFFFFFFFFFB0
3FFFFFFFFFFFFFFFFFB0
3FFFFA88888888DFFFB0
3FFFF400000000BFFFB0
3FFFF400000000BFFFB0
3FFFF400000000BFFFB0
3FFFF400000000BFFFB0
ENDCHAR
STARTCHAR Aring
ENCODING 197
SWIDTH 673 0
DWIDTH 22 0
BBX 19 28 1 0
BITMAP
00000000376100000000
00000007FFFD10000000
0000001FF9CF90000000
0000004FC04FC0000000
0000002FF8CFA0000000
00000009FFFF20000000
000004BFFFFFE8100000
0001AFFFFFFFFFE40000
000BFFFFFFFFFFFF5000
009FFFFFFFFFFFFFF200
03FFFFFB4227EFFFFB00
09FFFF9000002DFFFF30
0EFFFD00000004FFFF70
1FFFF700000000DFFFA0
2FFFF500000000BFFFB0
3FFFF400000000BFFFB0
3FFFF400000000BFFFB0
3FFFF400000000BFFFB0
3FFFF400000000BFFFB0
3FFFFFEEEEEEEEFFFFB0
3FFFFFFFFFFFFFFFFFB0
3FFFFFFFFFFFFFFFFFB0
3FFFFFFFFFFFFFFFFFB0
3FFFFA88888888DFFFB0
3FFFF400000000BFFFB0
3FFFF400000000BFFFB0
3FFFF400000000BFFFB0
3FFFF400000000BFFFB0
ENDCHAR
STARTCHAR AE
ENCODING 198
SWIDTH 988 0
DWIDTH 32 0
BBX 30 23 1 0
BITMAP
000000014666666666666666666664
000004BFFFFFFFFFFFFFFFFFFFFFF9
0001AFFFFFFFFFFFFFFFFFFFFFFFF9
000BFFFFFFFFFFFFFFFFFFFFFFFFF9
009FFFFFFFFFFFFFFFFFFFFFFFFFF9
03FFFFFB421111CFFFB11111111111
09FFFF90000000CFFFB00000000000
0EFFFD00000000CFFFB00000000000
1FFFF700000000CFFFB00000000000
2FFFF500000000CFFFD77777770000
3FFFF400000000CFFFFFFFFFFF1000
3FFFF400000000CFFFFFFFFFFF1000
3FFFF400000000CFFFFFFFFFFF1000
3FFFF400000000CFFFFFFFFFFF1000
3FFFFFEEEEEEEEFFFFB11111110000
3FFFFFFFFFFFFFFFFFB00000000000
3FFFFFFFFFFFFFFFFFB00000000000
3FFFFFFFFFFFFFFFFFB00000000000
3FFFFA88888888DFFFD77777777774
3FFFF400000000CFFFFFFFFFFFFFF9
3FFFF400000000CFFFFFFFFFFFFFF9
3FFFF400000000CFFFFFFFFFFFFFF9
3FFFF400000000CFFFFFFFFFFFFFF9
ENDCHAR
STARTCHAR Ccedilla
ENCODING 199
SWIDTH 640 0
DWIDTH 20 0
BBX 20 31 0 -8
BITMAP
00000000158AA9840000
00000019EFFFFFFFE810
000005EFFFFFFFFFFFE4
00008FFFFFFFFFFFFFFA
0007FFFFFFFDCDFFFFE2
003FFFFFE7100027EF70
00CFFFFB100000002A00
04FFFFC1000000000000
09FFFF30000000000000
0DFFFB00000000000000
1FFFF700000000000000
2FFFF500000000000000
1FFFF600000000000000
0FFFF800000000000000
0CFFFD00000000000000
08FFFF50000000000000
02FFFFE2000000000100
00AFFFFE400000004D10
002EFFFFFA51025BFF90
0004FFFFFFFFFFFFFFF4
00005EFFFFFFFFFFFFFB
000002CFFFFFFFFFFFB2
00000005BFFFFFFFB400
0000000006FB76410000
000000000AFC50000000
000000001EFFF4000000
00000001206FFA000000
00000006E9CFFA000000
0000000BFFFFF5000000
00000003CFFE70000000
00000000022000000000
ENDCHAR
STARTCHAR Egrave
ENCODING 200
SWIDTH 578 0
DWIDTH 19 0
BBX 16 31 2 0
BITMAP
0000020000000000
00008E3000000000
0005FFE300000000
002EFFFE40000000
0007EFFFF5000000
00002BFFF6000000
0000005D90000000
0000000110000000
6666666666666663
EFFFFFFFFFFFFFF7
EFFFFFFFFFFFFFF7
EFFFFFFFFFFFFFF7
EFFFFFFFFFFFFFF7
EFFF911111111110
EFFF800000000000
EFFF800000000000
EFFF800000000000
EFFFB77777760000
EFFFFFFFFFFE0000
EFFFFFFFFFFE0000
EFFFFFFFFFFE0000
EFFFFFFFFFFE0000
EFFF911111110000
EFFF800000000000
EFFF800000000000
EFFF800000000000
EFFFC77777777773
EFFFFFFFFFFFFFF7
EFFFFFFFFFFFFFF7
EFFFFFFFFFFFFFF7
EFFFFFFFFFFFFFF7
ENDCHAR
STARTCHAR Eacute
ENCODING 201
SWIDTH 578 0
DWIDTH 19 0
BBX 16 31 2 0
BITMAP
0000000000200000
0000000003E70000
000000004EFF4000
00000005FFFFE200
0000006FFFFE6000
0000006FFFA20000
0000000AD4000000
0000000110000000
6666666666666663
EFFFFFFFFFFFFFF7
EFFFFFFFFFFFFFF7
EFFFFFFFFFFFFFF7
EFFFFFFFFFFFFFF7
EFFF911111111110
EFFF800000000000
EFFF800000000000
EFFF800000000000
EFFFB77777760000
EFFFFFFFFFFE0000
EFFFFFFFFFFE0000
EFFFFFFFFFFE0000
EFFFFFFFFFFE0000
EFFF911111110000
EFFF800000000000
EFFF800000000000
EFFF800000000000
EFFFC77777777773
EFFFFFFFFFFFFFF7
EFFFFFFFFFFFFFF7
EFFFFFFFFFFFFFF7
EFFFFFFFFFFFFFF7
ENDCHAR
STARTCHAR Ecircumflex
ENCODING 202
SWIDTH 578 0
DWIDTH 19 0
BBX 16 31 2 0
BITMAP
0000000100000000
0000003E80000000
000004EFF9000000
00004EFFFFA00000
0004FFFDFFFB0000
0001CFC15FF60000
0000191004800000
0000000000000000
6666666666666663
EFFFFFFFFFFFFFF7
EFFFFFFFFFFFFFF7
EFFFFFFFFFFFFFF7
EFFFFFFFFFFFFFF7
EFFF911111111110
EFFF800000000000
EFFF800000000000
EFFF800000000000
EFFFB77777760000
EFFFFFFFFFFE0000
EFFFFFFFFFFE0000
EFFFFFFFFFFE0000
EFFFFFFFFFFE0000
EFFF911111110000
EFFF800000000000
EFFF800000000000
EFFF800000000000
EFFFC77777777773
EFFFFFFFFFFFFFF7
EFFFFFFFFFFFFFF7
EFFFFFFFFFFFFFF7
EFFFFFFFFFFFFFF7
ENDCHAR
STARTCHAR Edieresis
ENCODING 203
SWIDTH 578 0
DWIDTH 19 0
BBX 16 28 2 0
BITMAP
0004CC3007C90000
000EFFC03FFF6000
000FFFC04FFF7000
0006EE400AFC1000
0000000000000000
6666666666666663
EFFFFFFFFFFFFFF7
EFFFFFFFFFFFFFF7
EFFFFFFFFFFFFFF7
EFFFFFFFFFFFFFF7
EFFF911111111110
EFFF800000000000
EFFF800000000000
EFFF800000000000
EFFFB77777760000
EFFFFFFFFFFE0000
EFFFFFFFFFFE0000
EFFFFFFFFFFE0000
EFFFFFFFFFFE0000
EFFF911111110000
EFFF800000000000
EFFF800000000000
EFFF800000000000
EFFFC77777777773
EFFFFFFFFFFFFFF7
EFFFFFFFFFFFFFF7
EFFFFFFFFFFFFFF7
EFFFFFFFFFFFFFF7
ENDCHAR
STARTCHAR Igrave
ENCODING 204
SWIDTH 270 0
DWIDTH 9 0
BBX 8 31 -1 0
BITMAP
00200000
04F50000
2EFF6000
CFFFF700
5DFFFF80
018FFF90
0003CD10
00000100
00066663
000EFFF8
000EFFF8
000EFFF8
000EFFF8
000EFFF8
000EFFF8
000EFFF8
000EFFF8
000EFFF8
000EFFF8
000EFFF8
000EFFF8
000EFFF8
000EFFF8
000EFFF8
000EFFF8
000EFFF8
000EFFF8
000EFFF8
000EFFF8
000EFFF8
000EFFF8
ENDCHAR
STARTCHAR Iacute
ENCODING 205
SWIDTH 270 0
DWIDTH 9 0
BBX 8 31 2 0
BITMAP
00000200
0000BD10
001BFFA0
01CFFFF7
2DFFFFA2
2EFFD500
04F81000
00100000
66663000
EFFF8000
EFFF8000
EFFF8000
EFFF8000
EFFF8000
EFFF8000
EFFF8000
EFFF8000
EFFF8000
EFFF8000
EFFF8000
EFFF8000
EFFF8000
EFFF8000
EFFF8000
EFFF8000
EFFF8000
EFFF8000
EFFF8000
EFFF8000
EFFF8000
EFFF8000
ENDCHAR
STARTCHAR Icircumflex
ENCODING 206
SWIDTH 270 0
DWIDTH 9 0
BBX 9 31 0 0
BITMAP
0000100000
0008E30000
009FFE4000
0AFFFFF500
AFFFDFFF50
4FF71AFD10
0560009300
0000000000
0066663000
00EFFF8000
00EFFF8000
00EFFF8000
00EFFF8000
00EFFF8000
00EFFF8000
00EFFF8000
00EFFF8000
00EFFF8000
00EFFF8000
00EFFF8000
00EFFF8000
00EFFF8000
00EFFF8000
00EFFF8000
00EFFF8000
00EFFF8000
00EFFF8000
00EFFF8000
00EFFF8000
00EFFF8000
00EFFF8000
ENDCHAR
STARTCHAR Idieresis
ENCODING 207
SWIDTH 270 0
DWIDTH 9 0
BBX 11 28 -1 0
BITMAP
08D9001AC500
5FFF609FFE10
6FFF70AFFF10
0BFC103DF700
000000000000
000666630000
000EFFF80000
000EFFF80000
000EFFF80000
000EFFF80000
000EFFF80000
000EFFF80000
000EFFF80000
000EFFF80000
000EFFF80000
000EFFF80000
000EFFF80000
000EFFF80000
000EFFF80000
000EFFF80000
000EFFF80000
000EFFF80000
000EFFF80000
000EFFF80000
000EFFF80000
000EFFF80000
000EFFF80000
000EFFF80000
ENDCHAR
STARTCHAR Eth
ENCODING 208
SWIDTH 672 0
DWIDTH 22 0
BBX 21 23 0 0
BITMAP
0026666666530000000000
005FFFFFFFFFE930000000
005FFFFFFFFFFFF9100000
005FFFFFFFFFFFFFC10000
005FFFFFFFFFFFFFFC1000
005FFFF41137DFFFFFA000
005FFFF3000007FFFFF400
005FFFF30000007FFFFB00
005FFFF30000000BFFFF20
679FFFF875000004FFFF60
DFFFFFFFFC000000FFFF80
DFFFFFFFFC000000DFFF90
DFFFFFFFFC000000EFFF90
BCDFFFFDCA000001FFFF70
005FFFF300000007FFFF40
005FFFF30000001EFFFE10
005FFFF3000001BFFFF900
005FFFF300004CFFFFE200
005FFFF9779CFFFFFF6000
005FFFFFFFFFFFFFF80000
005FFFFFFFFFFFFF700000
005FFFFFFFFFFFB3000000
005FFFFFFFEC8300000000
ENDCHAR
STARTCHAR Ntilde
ENCODING 209
SWIDTH 689 0
DWIDTH 22 0
BBX 18 30 2 0
BITMAP
000000000000010000
00002AEFA10CEF0000
0000BFFFFC3EFF2000
0001FFFFFFFFFF1000
0001FFF6AFFFFC0000
0000DFF108FFD30000
000034410012000000
666660000000036666
EFFFF600000007FFFF
EFFFFE10000007FFFF
EFFFFF90000007FFFF
EFFFFFF3000007FFFF
EFFFFFFB000007FFFF
EFFFFFFF500007FFFF
EFFFFFFFD10007FFFF
EFFFDFFFF80007FFFF
EFFF8BFFFE2007FFFF
EFFF82FFFFA007FFFF
EFFF808FFFF407FFFF
EFFF801EFFFC07FFFF
EFFF8005FFFF67FFFF
EFFF8000CFFFE8FFFF
EFFF80003FFFFEFFFF
EFFF800009FFFFFFFF
EFFF800001EFFFFFFF
EFFF8000007FFFFFFF
EFFF8000000CFFFFFF
EFFF80000004FFFFFF
EFFF80000000AFFFFF
EFFF800000002FFFFF
ENDCHAR
STARTCHAR Ograve
ENCODING 210
SWIDTH 777 0
DWIDTH 25 0
BBX 24 32 0 -1
BITMAP
000000000200000000000000
000000004F60000000000000
00000002EFF7000000000000
0000000CFFFF800000000000
00000004DFFFF90000000000
0000000018FFFA0000000000
00000000002BD10000000000
000000000000100000000000
000000000479A97400000000
00000018EFFFFFFFE8100000
000005EFFFFFFFFFFFE40000
00007FFFFFFFFFFFFFFF6000
0007FFFFFFFDCDFFFFFFF500
003FFFFFE7100027EFFFFE20
00CFFFFB100000002CFFFFA0
04FFFFC10000000001DFFFF2
09FFFF3000000000005FFFF7
0DFFFB0000000000000DFFFB
1FFFF700000000000009FFFE
2FFFF500000000000007FFFF
2FFFF600000000000007FFFF
0FFFF80000000000000AFFFE
0CFFFD0000000000000EFFFB
08FFFF5000000000007FFFF6
03FFFFE20000000003FFFFF1
00AFFFFE400000005EFFFF80
002EFFFFFA51025BFFFFFD10
0004FFFFFFFFFFFFFFFFE300
00004EFFFFFFFFFFFFFE3000
000003CFFFFFFFFFFFB20000
00000005CFFFFFFFB5000000
000000000156764100000000
ENDCHAR
STARTCHAR Oacute
ENCODING 211
SWIDTH 777 0
DWIDTH 25 0
BBX 24 32 0 -1
BITMAP
000000000000000200000000
000000000000006F30000000
00000000000007FFD1000000
0000000000008FFFFB000000
000000000009FFFFD4000000
00000000000BFFF800000000
000000000001DB2000000000
000000000000100000000000
000000000479A97400000000
00000018EFFFFFFFE8100000
000005EFFFFFFFFFFFE40000
00007FFFFFFFFFFFFFFF6000
0007FFFFFFFDCDFFFFFFF500
003FFFFFE7100027EFFFFE20
00CFFFFB100000002CFFFFA0
04FFFFC10000000001DFFFF2
09FFFF3000000000005FFFF7
0DFFFB0000000000000DFFFB
1FFFF700000000000009FFFE
2FFFF500000000000007FFFF
2FFFF600000000000007FFFF
0FFFF80000000000000AFFFE
0CFFFD0000000000000EFFFB
08FFFF5000000000007FFFF6
03FFFFE20000000003FFFFF1
00AFFFFE400000005EFFFF80
002EFFFFFA51025BFFFFFD10
0004FFFFFFFFFFFFFFFFE300
00004EFFFFFFFFFFFFFE3000
000003CFFFFFFFFFFFB20000
00000005CFFFFFFFB5000000
000000000156764100000000
ENDCHAR
STARTCHAR Ocircumflex
ENCODING 212
SWIDTH 777 0
DWIDTH 25 0
BBX 24 32 0 -1
BITMAP
000000000000100000000000
000000000007E40000000000
00000000008FFF5000000000
0000000008FFFFF600000000
000000008FFFDFFF60000000
000000003EF809FE20000000
000000000470008400000000
000000000000000000000000
000000000479A97400000000
00000018EFFFFFFFE8100000
000005EFFFFFFFFFFFE40000
00007FFFFFFFFFFFFFFF6000
0007FFFFFFFDCDFFFFFFF500
003FFFFFE7100027EFFFFE20
00CFFFFB100000002CFFFFA0
04FFFFC10000000001DFFFF2
09FFFF3000000000005FFFF7
0DFFFB0000000000000DFFFB
1FFFF700000000000009FFFE
2FFFF500000000000007FFFF
2FFFF600000000000007FFFF
0FFFF80000000000000AFFFE
0CFFFD0000000000000EFFFB
08FFFF5000000000007FFFF6
03FFFFE20000000003FFFFF1
00AFFFFE400000005EFFFF80
002EFFFFFA51025BFFFFFD10
0004FFFFFFFFFFFFFFFFE300
00004EFFFFFFFFFFFFFE3000
000003CFFFFFFFFFFFB20000
00000005CFFFFFFFB5000000
000000000156764100000000
ENDCHAR
STARTCHAR Otilde
ENCODING 213
SWIDTH 777 0
DWIDTH 25 0
BBX 24 31 0 -1
BITMAP
000000000000000010000000
000000007DFD406DF6000000
00000005FFFFF59FF8000000
00000009FFFFFFFFF7000000
0000000AFFA6FFFFF3000000
00000007FF704DFF70000000
000000015420003100000000
000000000479A97400000000
00000018EFFFFFFFE8100000
000005EFFFFFFFFFFFE40000
00007FFFFFFFFFFFFFFF6000
0007FFFFFFFDCDFFFFFFF500
003FFFFFE7100027EFFFFE20
00CFFFFB100000002CFFFFA0
04FFFFC10000000001DFFFF2
09FFFF3000000000005FFFF7
0DFFFB0000000000000DFFFB
1FFFF700000000000009FFFE
2FFFF500000000000007FFFF
2FFFF600000000000007FFFF
0FFFF80000000000000AFFFE
0CFFFD0000000000000EFFFB
08FFFF5000000000007FFFF6
03FFFFE20000000003FFFFF1
00AFFFFE400000005EFFFF80
002EFFFFFA51025BFFFFFD10
0004FFFFFFFFFFFFFFFFE300
00004EFFFFFFFFFFFFFE3000
000003CFFFFFFFFFFFB20000
00000005CFFFFFFFB5000000
000000000156764100000000
ENDCHAR
STARTCHAR Odieresis
ENCODING 214
SWIDTH 777 0
DWIDTH 25 0
BBX 24 29 0 -1
BITMAP
000000008DA1019C60000000
00000004FFF708FFF1000000
00000004FFF809FFF2000000
00000000AFC102DF90000000
000000000000000000000000
000000000479A97400000000
00000018EFFFFFFFE8100000
000005EFFFFFFFFFFFE40000
00007FFFFFFFFFFFFFFF6000
0007FFFFFFFDCDFFFFFFF500
003FFFFFE7100027EFFFFE20
00CFFFFB100000002CFFFFA0
04FFFFC10000000001DFFFF2
09FFFF3000000000005FFFF7
0DFFFB0000000000000DFFFB
1FFFF700000000000009FFFE
2FFFF500000000000007FFFF
2FFFF600000000000007FFFF
0FFFF80000000000000AFFFE
0CFFFD0000000000000EFFFB
08FFFF5000000000007FFFF6
03FFFFE20000000003FFFFF1
00AFFFFE400000005EFFFF80
002EFFFFFA51025BFFFFFD10
0004FFFFFFFFFFFFFFFFE300
00004EFFFFFFFFFFFFFE3000
000003CFFFFFFFFFFFB20000
00000005CFFFFFFFB5000000
000000000156764100000000
ENDCHAR
STARTCHAR multiply
ENCODING 215
SWIDTH 479 0
DWIDTH 15 0
BBX 13 13 1 5
BITMAP
00030000042000
007F70004ED200
07FFF704EFFD20
4FFFFF9EFFFFA0
08FFFFFFFFFC10
008FFFFFFFB100
000AFFFFFD1000
004EFFFFFF7000
04EFFFFFFFF700
2EFFFFEFFFFF60
09FFFB19FFFE20
009FB1009FE200
00061000082000
ENDCHAR
STARTCHAR Oslash
ENCODING 216
SWIDTH 777 0
DWIDTH 25 0
BBX 24 24 0 -1
BITMAP
000000000479A97300466640
00000018EFFFFFFFD8FFFE20
000005EFFFFFFFFFFFFFF600
00007FFFFFFFFFFFFFFFB000
0007FFFFFFFDCDFFFFFFF400
003FFFFFE710004FFFFFFE20
00CFFFFB100000CFFFFFFF90
04FFFFC1000008FFFBDFFFF2
09FFFF3000004FFFE15FFFF7
0DFFFB000001EFFF400DFFFB
1FFFF700000BFFF80009FFFD
2FFFF500007FFFC00007FFFF
1FFFF50003FFFE200007FFFF
0FFFF8001DFFF500000AFFFE
0CFFFC00AFFF9000000EFFFB
08FFFF56FFFD1000007FFFF6
03FFFFEEFFF3000003FFFFF1
00AFFFFFFF6000005EFFFF80
002EFFFFFE51025BFFFFFD10
0004FFFFFFFFFFFFFFFFE300
0002EFFFFFFFFFFFFFFE3000
000BFFFFFFFFFFFFFFB20000
007FFFC5CFFFFFFFB5000000
000000000156764100000000
ENDCHAR
STARTCHAR Ugrave
ENCODING 217
SWIDTH 673 0
DWIDTH 22 0
BBX 19 31 1 0
BITMAP
00000011000000000000
000000AD200000000000
000007FFD20000000000
00004FFFFE3000000000
000018FFFFE300000000
0000003CFFF400000000
000000006E7000000000
00000000010000000000
16666200000000466650
3FFFF400000000BFFFB0
3FFFF400000000BFFFB0
3FFFF400000000BFFFB0
3FFFF400000000BFFFB0
3FFFF400000000BFFFB0
3FFFF400000000BFFFB0
3FFFF400000000BFFFB0
3FFFF400000000BFFFB0
3FFFF400000000BFFFB0
3FFFF400000000BFFFB0
3FFFF400000000BFFFB0
3FFFF400000000BFFFB0
3FFFF400000000BFFFB0
2FFFF500000000CFFFB0
0FFFF800000001EFFF90
0CFFFF20000008FFFF60
07FFFFD300007FFFFE10
01EFFFFFA88DFFFFF800
004FFFFFFFFFFFFFC100
0006FFFFFFFFFFFD2000
00004DFFFFFFFF910000
0000005ADFEC83000000
ENDCHAR
STARTCHAR Uacute
ENCODING 218
SWIDTH 673 0
DWIDTH 22 0
BBX 19 31 1 0
BITMAP
00000000000020000000
000000000002D9000000
00000000003EFF500000
0000000004EFFFE30000
000000004FFFFF700000
000000005FFFB2000000
0000000009E500000000
00000000001000000000
16666200000000466650
3FFFF400000000BFFFB0
3FFFF400000000BFFFB0
3FFFF400000000BFFFB0
3FFFF400000000BFFFB0
3FFFF400000000BFFFB0
3FFFF400000000BFFFB0
3FFFF400000000BFFFB0
3FFFF400000000BFFFB0
3FFFF400000000BFFFB0
3FFFF400000000BFFFB0
3FFFF400000000BFFFB0
3FFFF400000000BFFFB0
3FFFF400000000BFFFB0
2FFFF500000000CFFFB0
0FFFF800000001EFFF90
0CFFFF20000008FFFF60
07FFFFD300007FFFFE10
01EFFFFFA88DFFFFF800
004FFFFFFFFFFFFFC100
0006FFFFFFFFFFFD2000
00004DFFFFFFFF910000
0000005ADFEC83000000
ENDCHAR
STARTCHAR Ucircumflex
ENCODING 219
SWIDTH 673 0
DWIDTH 22 0
BBX 19 30 1 0
BITMAP
00000000010000000000
000000003E8000000000
00000003EFF900000000
0000004EFFFFA1000000
000003FFFDFFFB000000
000000CFC15FF6000000
00000019100490000000
16666200000000466650
3FFFF400000000BFFFB0
3FFFF400000000BFFFB0
3FFFF400000000BFFFB0
3FFFF400000000BFFFB0
3FFFF400000000BFFFB0
3FFFF400000000BFFFB0
3FFFF400000000BFFFB0
3FFFF400000000BFFFB0
3FFFF400000000BFFFB0
3FFFF400000000BFFFB0
3FFFF400000000BFFFB0
3FFFF400000000BFFFB0
3FFFF400000000BFFFB0
2FFFF500000000CFFFB0
0FFFF800000001EFFF90
0CFFFF20000008FFFF60
07FFFFD300007FFFFE10
01EFFFFFA88DFFFFF800
004FFFFFFFFFFFFFC100
0006FFFFFFFFFFFD2000
00004DFFFFFFFF910000
0000005ADFEC83000000
ENDCHAR
STARTCHAR Udieresis
ENCODING 220
SWIDTH 673 0
DWIDTH 22 0
BBX 19 27 1 0
BITMAP
000004CC3006C9000000
00000EFFC02FFF600000
00000EFFD03FFF700000
000006EE5009FC100000
16666200000000466650
3FFFF400000000BFFFB0
3FFFF400000000BFFFB0
3FFFF400000000BFFFB0
3FFFF400000000BFFFB0
3FFFF400000000BFFFB0
3FFFF400000000BFFFB0
3FFFF400000000BFFFB0
3FFFF400000000BFFFB0
3FFFF400000000BFFFB0
3FFFF400000000BFFFB0
3FFFF400000000BFFFB0
3FFFF400000000BFFFB0
3FFFF400000000BFFFB0
2FFFF500000000CFFFB0
0FFFF800000001EFFF90
0CFFFF20000008FFFF60
07FFFFD300007FFFFE10
01EFFFFFA88DFFFFF800
004FFFFFFFFFFFFFC100
0006FFFFFFFFFFFD2000
00004DFFFFFFFF910000
0000005ADFEC83000000
ENDCHAR
STARTCHAR Yacute
ENCODING 221
SWIDTH 620 0
DWIDTH 20 0
BBX 19 31 0 0
BITMAP
00000000000020000000
000000000002D9000000
00000000003EFF500000
0000000004EFFFE30000
000000004FFFFF700000
000000005FFFB2000000
0000000009E500000000
00000000001000000000
06666300000000466650
1FFFF7000000009FFFD0
1FFFF7000000009FFFD0
1FFFF7000000009FFFD0
1FFFF7000000009FFFD0
1FFFF7000000009FFFD0
1FFFF7000000009FFFD0
0FFFF7000000009FFFD0
0EFFF900000000CFFFC0
0BFFFE20000003FFFF90
07FFFFC100002DFFFF40
01EFFFFE7448EFFFFC00
006FFFFFFFFFFFFFF300
0008FFFFFFFFFFFF6000
00006FFFFFFFFFE40000
0000029EFFFFD8100000
00000005FFFF20000000
00000005FFFF20000000
00000005FFFF20000000
00000005FFFF20000000
00000005FFFF20000000
00000005FFFF20000000
00000005FFFF20000000
ENDCHAR
STARTCHAR Thorn
ENCODING 222
SWIDTH 637 0
DWIDTH 20 0
BBX 18 25 2 -1
BITMAP
555530000000000000
EFFF80000000000000
EFFF80000000000000
EFFF92222200000000
EFFFFFFFFFFC600000
EFFFFFFFFFFFFD4000
EFFFFFFFFFFFFFF600
EFFFFFFFFFFFFFFF40
EFFFB555559FFFFFD0
EFFF80000003DFFFF5
EFFF800000003FFFFA
EFFF800000000BFFFD
EFFF8000000008FFFF
EFFF8000000008FFFE
EFFF800000000DFFFC
EFFF800000006FFFF8
EFFF80000018FFFFF3
EFFFDBBBBBEFFFFFA0
EFFFFFFFFFFFFFFD10
EFFFFFFFFFFFFFC200
EFFFFFFFFFFFE81000
EFFFDCCCCB96100000
EFFF80000000000000
EFFF80000000000000
DEEE80000000000000
ENDCHAR
STARTCHAR germandbls
ENCODING 223
SWIDTH 813 0
DWIDTH 26 0
BBX 26 25 0 0
BITMAP
00000016BEFFFFFD9200000000
000004DFFFFFFFFFFF70000000
00004FFFFFFFFFFFFFF6000000
0001EFFFFFFFFFFFFFFE100000
0009FFFFC644444AFFFF700000
000EFFFB00000000CFFFA00000
002FFFF4000000009FFFA00000
003FFFF100000001DFFF900000
3BCFFFF1000059BEFFFF500000
4FFFFFF1002CFFFFFFFD000000
4FFFFFF100CFFFFFFFE3000000
4FFFFFF106FFFFFFFB30000000
289FFFF10BFFFE863000000000
003FFFF10DFFF7000000000000
003FFFF10CFFFC544444430000
003FFFF108FFFFFFFFFFFFE600
003FFFF101EFFFFFFFFFFFFF90
003FFFF1004EFFFFFFFFFFFFF4
003FFFF100028DEEEEEEFFFFF9
003FFFF100000000000009FFFC
003FFFF10024444444444CFFFB
003FFFF1009FFFFFFFFFFFFFF7
003FFFF1009FFFFFFFFFFFFFD1
003FFFF1009FFFFFFFFFFFFE30
003FFFF1009FFFFFFFFFFD9100
ENDCHAR
STARTCHAR agrave
ENCODING 224
SWIDTH 607 0
DWIDTH 19 0
BBX 18 27 0 -1
BITMAP
000000200000000000
000005F50000000000
00002EFF6000000000
0001DFFFF700000000
00005EFFFF70000000
0000019FFF90000000
00000003CC00000000
000000000100000000
000000034530000000
000017DFFFFE810059
0003DFFFFFFFFE44FC
002EFFFFFFFFFFFEFC
00CFFFFFFFFFFFFFFC
06FFFFD5003AFFFFFC
0CFFFE100000AFFFFC
1FFFF70000001EFFFC
3FFFF200000009FFFC
4FFFF100000007FFFC
3FFFF200000009FFFC
1FFFF70000001EFFFC
0CFFFE200000AFFFFC
07FFFFD5103BFFFFFC
00DFFFFFFFFFFFFFFC
003FFFFFFFFFFFFEFC
0003DFFFFFFFFD44FC
000017DFFFFD71008C
000000024420000000
ENDCHAR
STARTCHAR aacute
ENCODING 225
SWIDTH 607 0
DWIDTH 19 0
BBX 18 27 0 -1
BITMAP
000000000001100000
00000000001CB00000
0000000001CFF80000
000000002DFFFF5000
00000002DFFFF91000
00000003EFFD400000
000000006F70000000
000000000100000000
000000034530000000
000017DFFFFE810059
0003DFFFFFFFFE44FC
002EFFFFFFFFFFFEFC
00CFFFFFFFFFFFFFFC
06FFFFD5003AFFFFFC
0CFFFE100000AFFFFC
1FFFF70000001EFFFC
3FFFF200000009FFFC
4FFFF100000007FFFC
3FFFF200000009FFFC
1FFFF70000001EFFFC
0CFFFE200000AFFFFC
07FFFFD5103BFFFFFC
00DFFFFFFFFFFFFFFC
003FFFFFFFFFFFFEFC
0003DFFFFFFFFD44FC
000017DFFFFD71008C
000000024420000000
ENDCHAR
STARTCHAR acircumflex
ENCODING 226
SWIDTH 607 0
DWIDTH 19 0
BBX 18 26 0 -1
BITMAP
000000000100000000
000000009D20000000
0000000AFFE3000000
000000BFFFFE400000
00000BFFFDFFF40000
000005FF61BFD10000
00000065000A200000
000000034530000000
000017DFFFFE810059
0003DFFFFFFFFE44FC
002EFFFFFFFFFFFEFC
00CFFFFFFFFFFFFFFC
06FFFFD5003AFFFFFC
0CFFFE100000AFFFFC
1FFFF70000001EFFFC
3FFFF200000009FFFC
4FFFF100000007FFFC
3FFFF200000009FFFC
1FFFF70000001EFFFC
0CFFFE200000AFFFFC
07FFFFD5103BFFFFFC
00DFFFFFFFFFFFFFFC
003FFFFFFFFFFFFEFC
0003DFFFFFFFFD44FC
000017DFFFFD71008C
000000024420000000
ENDCHAR
STARTCHAR atilde
ENCODING 227
SWIDTH 607 0
DWIDTH 19 0
BBX 18 26 0 -1
BITMAP
000000000000010000
000009EFC309EF4000
00008FFFFE4BFF6000
0000CFFFFFFFFF5000
0000CFF98FFFFE1000
0000AFF505EFE50000
000024420012000000
000000034530000000
000017DFFFFE810059
0003DFFFFFFFFE44FC
002EFFFFFFFFFFFEFC
00CFFFFFFFFFFFFFFC
06FFFFD5003AFFFFFC
0CFFFE100000AFFFFC
1FFFF70000001EFFFC
3FFFF200000009FFFC
4FFFF100000007FFFC
3FFFF200000009FFFC
1FFFF70000001EFFFC
0CFFFE200000AFFFFC
07FFFFD5103BFFFFFC
00DFFFFFFFFFFFFFFC
003FFFFFFFFFFFFEFC
0003DFFFFFFFFD44FC
000017DFFFFD71008C
000000024420000000
ENDCHAR
STARTCHAR adieresis
ENCODING 228
SWIDTH 607 0
DWIDTH 19 0
BBX 18 23 0 -1
BITMAP
000009D8002AC40000
00006FFF50AFFE0000
00007FFF50BFFF0000
00001CFB003EF60000
000000034530000000
000017DFFFFE810059
0003DFFFFFFFFE44FC
002EFFFFFFFFFFFEFC
00CFFFFFFFFFFFFFFC
06FFFFD5003AFFFFFC
0CFFFE100000AFFFFC
1FFFF70000001EFFFC
3FFFF200000009FFFC
4FFFF100000007FFFC
3FFFF200000009FFFC
1FFFF70000001EFFFC
0CFFFE200000AFFFFC
07FFFFD5103BFFFFFC
00DFFFFFFFFFFFFFFC
003FFFFFFFFFFFFEFC
0003DFFFFFFFFD44FC
000017DFFFFD71008C
000000024420000000
ENDCHAR
STARTCHAR aring
ENCODING 229
SWIDTH 607 0
DWIDTH 19 0
BBX 18 26 0 -1
BITMAP
000000017840000000
0000002EFFF8000000
0000009FC8FF200000
000000CF40CF400000
0000009FD9FF200000
0000002DFFF7000000
000000016740000000
000000034530000000
000017DFFFFE810059
0003DFFFFFFFFE44FC
002EFFFFFFFFFFFEFC
00CFFFFFFFFFFFFFFC
06FFFFD5003AFFFFFC
0CFFFE100000AFFFFC
1FFFF70000001EFFFC
3FFFF200000009FFFC
4FFFF100000007FFFC
3FFFF200000009FFFC
1FFFF70000001EFFFC
0CFFFE200000AFFFFC
07FFFFD5103BFFFFFC
00DFFFFFFFFFFFFFFC
003FFFFFFFFFFFFEFC
0003DFFFFFFFFD44FC
000017DFFFFD71008C
000000024420000000
ENDCHAR
STARTCHAR ae
ENCODING 230
SWIDTH 976 0
DWIDTH 31 0
BBX 31 19 0 -1
BITMAP
00000003453000000000014542000000
000017DFFFFE81005904BFFFFFD70000
0003DFFFFFFFFE44FD9FFFFFFFFFC200
002EFFFFFFFFFFFEFFFFFFFFFFFFFD20
00CFFFFFFFFFFFFFFFFFFFFEFFFFFF70
06FFFFD5003AFFFFFFFFF9206FFFFA00
0CFFFE100000AFFFFFFF8003FFFFC100
1FFFF70000001EFFFFFD001DFFFE2000
3FFFF200000009FFFFF900AFFFF30000
4FFFF100000007FFFFF706FFFF600000
3FFFF200000009FFFFF93FFFF8000000
1FFFF70000001EFFFFFDDFFFB0020000
0CFFFE200000AFFFFFFFFFFC102E7000
07FFFFD5103BFFFFFFFFFFE216EFF700
00DFFFFFFFFFFFFFFFFFFFFFFFFFFF60
003FFFFFFFFFFFFEFFFFFFFFFFFFFD10
0003DFFFFFFFFD44FD8FFFFFFFFFB200
000017DFFFFD71008C03AFFFFFC60000
00000002442000000000013431000000
ENDCHAR
STARTCHAR ccedilla
ENCODING 231
SWIDTH 521 0
DWIDTH 17 0
BBX 17 26 0 -8
BITMAP
000000024541000000
000006DFFFFE920000
0001CFFFFFFFFE6000
001DFFFFFFFFFFF600
00AFFFFFFFFFFFFE10
04FFFFE6103AFFF500
0BFFFF3000009F5000
1EFFF8000000150000
3FFFF3000000000000
4FFFF1000000000000
4FFFF2000000000000
2FFFF6000000020000
0DFFFE2000008D2000
06FFFFE6103AFFD200
00CFFFFFFFFFFFFD10
002EFFFFFFFFFFF800
0002CFFFFFFFFF7000
000006DFFFFE920000
00000005FB20000000
00000009FD50000000
0000000DFFF6000000
000000205FFB000000
000005FACFFB000000
00000AFFFFF6000000
000003BFFF80000000
000000012000000000
ENDCHAR
STARTCHAR egrave
ENCODING 232
SWIDTH 524 0
DWIDTH 17 0
BBX 17 27 0 -1
BITMAP
000001100000000000
00000AD20000000000
00007FFD2000000000
0004FFFFE300000000
00018FFFFE30000000
000003CFFF40000000
00000006E800000000
000000001000000000
000000035531000000
000017DFFFFFA30000
0003DFFFFFFFFF8000
003EFFFFFFFFFFF900
00DFFFFFFEFFFFFE10
06FFFFD510CFFFF400
0CFFFE2009FFFF6000
1FFFF7005FFFF90000
3FFFF202EFFFB00000
4FFFF10CFFFD100000
3FFFF29FFFE2000000
1FFFFBFFFF40020000
0BFFFFFFF7008E2000
05FFFFFFA03AFFE200
00CFFFFFFFFFFFFD10
002EFFFFFFFFFFF800
0002CFFFFFFFFF7000
000006CFFFFE930000
000000024431000000
ENDCHAR
STARTCHAR eacute
ENCODING 233
SWIDTH 524 0
DWIDTH 17 0
BBX 17 27 0 -1
BITMAP
000000000001100000
00000000001CB00000
0000000002DFF80000
000000002DFFFF4000
00000003EFFFF91000
00000003FFFC300000
000000007E70000000
000000000100000000
000000035531000000
000017DFFFFFA30000
0003DFFFFFFFFF8000
003EFFFFFFFFFFF900
00DFFFFFFEFFFFFE10
06FFFFD510CFFFF400
0CFFFE2009FFFF6000
1FFFF7005FFFF90000
3FFFF202EFFFB00000
4FFFF10CFFFD100000
3FFFF29FFFE2000000
1FFFFBFFFF40020000
0BFFFFFFF7008E2000
05FFFFFFA03AFFE200
00CFFFFFFFFFFFFD10
002EFFFFFFFFFFF800
0002CFFFFFFFFF7000
000006CFFFFE930000
000000024431000000
ENDCHAR
STARTCHAR ecircumflex
ENCODING 234
SWIDTH 524 0
DWIDTH 17 0
BBX 17 26 0 -1
BITMAP
000000001000000000
00000006E500000000
0000007FFF60000000
000008FFFFF7000000
00007FFFDFFF700000
00002EF909FE300000
000003800075000000
000000035531000000
000017DFFFFFA30000
0003DFFFFFFFFF8000
003EFFFFFFFFFFF900
00DFFFFFFEFFFFFE10
06FFFFD510CFFFF400
0CFFFE2009FFFF6000
1FFFF7005FFFF90000
3FFFF202EFFFB00000
4FFFF10CFFFD100000
3FFFF29FFFE2000000
1FFFFBFFFF40020000
0BFFFFFFF7008E2000
05FFFFFFA03AFFE200
00CFFFFFFFFFFFFD10
002EFFFFFFFFFFF800
0002CFFFFFFFFF7000
000006CFFFFE930000
000000024431000000
ENDCHAR
STARTCHAR edieresis
ENCODING 235
SWIDTH 524 0
DWIDTH 17 0
BBX 17 24 0 -1
BITMAP
00007DA1009C600000
0003FFF806FFF20000
0003FFF907FFF30000
00009FD201CFA00000
000000000000000000
000000035531000000
000017DFFFFFA30000
0003DFFFFFFFFF8000
003EFFFFFFFFFFF900
00DFFFFFFEFFFFFE10
06FFFFD510CFFFF400
0CFFFE2009FFFF6000
1FFFF7005FFFF90000
3FFFF202EFFFB00000
4FFFF10CFFFD100000
3FFFF29FFFE2000000
1FFFFBFFFF40020000
0BFFFFFFF7008E2000
05FFFFFFA03AFFE200
00CFFFFFFFFFFFFD10
002EFFFFFFFFFFF800
0002CFFFFFFFFF7000
000006CFFFFE930000
000000024431000000
ENDCHAR
STARTCHAR igrave
ENCODING 236
SWIDTH 235 0
DWIDTH 8 0
BBX 8 25 -2 0
BITMAP
00110000
00CC1000
09FFC100
5FFFFD20
19FFFFD2
004DFFE2
00007F50
00000100
0004BBBA
0006FFFE
0006FFFE
0006FFFE
0006FFFE
0006FFFE
0006FFFE
0006FFFE
0006FFFE
0006FFFE
0006FFFE
0006FFFE
0006FFFE
0006FFFE
0006FFFE
0006FFFE
0006FFFE
ENDCHAR
STARTCHAR iacute
ENCODING 237
SWIDTH 235 0
DWIDTH 8 0
BBX 9 25 1 0
BITMAP
0000020000
00005F5000
0006FFE300
006FFFFD10
07FFFFE500
09FFF91000
00CC300000
0010000000
4BBBA00000
6FFFE00000
6FFFE00000
6FFFE00000
6FFFE00000
6FFFE00000
6FFFE00000
6FFFE00000
6FFFE00000
6FFFE00000
6FFFE00000
6FFFE00000
6FFFE00000
6FFFE00000
6FFFE00000
6FFFE00000
6FFFE00000
ENDCHAR
STARTCHAR icircumflex
ENCODING 238
SWIDTH 235 0
DWIDTH 8 0
BBX 9 25 -1 0
BITMAP
0000100000
0003D90000
003EFFA000
04EFFFFB10
3EFFDFFFB0
0BFC15EF70
0191004900
0000000000
004BBBA000
006FFFE000
006FFFE000
006FFFE000
006FFFE000
006FFFE000
006FFFE000
006FFFE000
006FFFE000
006FFFE000
006FFFE000
006FFFE000
006FFFE000
006FFFE000
006FFFE000
006FFFE000
006FFFE000
ENDCHAR
STARTCHAR idieresis
ENCODING 239
SWIDTH 235 0
DWIDTH 8 0
BBX 10 22 -1 0
BITMAP
4CC3006C91
DFFD02FFF7
EFFD03FFF8
5EE5009FD2
0000000000
004BBBA000
006FFFE000
006FFFE000
006FFFE000
006FFFE000
006FFFE000
006FFFE000
006FFFE000
006FFFE000
006FFFE000
006FFFE000
006FFFE000
006FFFE000
006FFFE000
006FFFE000
006FFFE000
006FFFE000
ENDCHAR
STARTCHAR eth
ENCODING 240
SWIDTH 581 0
DWIDTH 19 0
BBX 18 26 0 -1
BITMAP
000000255555000000
0000001EFFFF400000
0000677AFFFFC77772
0000DFFFFFFFFFFFF4
0000DFFFFFFFFFFFF4
0000DFFFFFFFFFFFF4
0000233333DFFFE331
00000001236FFFF500
000005BFFFFFFFFC00
0002CFFFFFFFFFFF20
002DFFFFFFFFFFFF80
00CFFFFFFFFFFFFFD0
06FFFFD50029FFFFF2
0CFFFE2000008FFFF6
1FFFF70000001EFFF9
3FFFF200000009FFFB
4FFFF100000008FFFC
3FFFF200000009FFFA
1FFFF80000001EFFF8
0CFFFF3000009FFFF4
05FFFFE6103AFFFFD0
00CFFFFFFFFFFFFF40
002EFFFFFFFFFFF800
0002CFFFFFFFFF7000
000006CFFFFEA20000
000000024430000000
ENDCHAR
STARTCHAR ntilde
ENCODING 241
SWIDTH 562 0
DWIDTH 18 0
BBX 16 24 1 0
BITMAP
0000000000001000
0001AEFA10BEF100
000BFFFFD3DFF300
000FFFFFFFFFF200
000FFF7AFFFFD000
000CFF208FFD3000
0003441001200000
4A1028DFFE930000
6FB7FFFFFFFF9000
6FFFFFFFFFFFFA00
6FFFFFFFFFFFFF60
6FFFFFB559FFFFE0
6FFFF900006FFFF4
6FFFF100000DFFF7
6FFFE000000BFFF9
6FFFD000000AFFF9
6FFFD000000AFFF9
6FFFD000000AFFF9
6FFFD000000AFFF9
6FFFD000000AFFF9
6FFFD000000AFFF9
6FFFD000000AFFF9
6FFFD000000AFFF9
6FFFD000000AFFF9
ENDCHAR
STARTCHAR ograve
ENCODING 242
SWIDTH 579 0
DWIDTH 19 0
BBX 18 27 0 -1
BITMAP
000000200000000000
000006E40000000000
00003FFF5000000000
0001DFFFF600000000
00006EFFFF70000000
0000019FFF80000000
00000004DB00000000
000000000100000000
000000034541000000
000007DFFFFFB40000
0002DFFFFFFFFF9000
002EFFFFFFFFFFFA00
00CFFFFFFFFFFFFF60
06FFFFD50029FFFFE1
0CFFFE2000008FFFF5
1FFFF70000001EFFF9
3FFFF200000009FFFB
4FFFF100000008FFFC
3FFFF200000009FFFB
1FFFF80000001EFFF8
0CFFFF3000009FFFF4
05FFFFE6103AFFFFD0
00CFFFFFFFFFFFFF40
002EFFFFFFFFFFF800
0002CFFFFFFFFF7000
000006CFFFFEA20000
000000024430000000
ENDCHAR
STARTCHAR oacute
ENCODING 243
SWIDTH 579 0
DWIDTH 19 0
BBX 18 27 0 -1
BITMAP
000000000001100000
00000000001CB00000
0000000002DFF80000
000000002DFFFF5000
00000003EFFFF91000
00000003FFFC300000
000000006E70000000
000000000100000000
000000034541000000
000007DFFFFFB40000
0002DFFFFFFFFF9000
002EFFFFFFFFFFFA00
00CFFFFFFFFFFFFF60
06FFFFD50029FFFFE1
0CFFFE2000008FFFF5
1FFFF70000001EFFF9
3FFFF200000009FFFB
4FFFF100000008FFFC
3FFFF200000009FFFB
1FFFF80000001EFFF8
0CFFFF3000009FFFF4
05FFFFE6103AFFFFD0
00CFFFFFFFFFFFFF40
002EFFFFFFFFFFF800
0002CFFFFFFFFF7000
000006CFFFFEA20000
000000024430000000
ENDCHAR
STARTCHAR ocircumflex
ENCODING 244
SWIDTH 579 0
DWIDTH 19 0
BBX 18 26 0 -1
BITMAP
000000000100000000
000000009D20000000
0000000AFFE3000000
000001BFFFFE400000
00000BFFFDFFF30000
000005FF51CFC10000
00000075001A200000
000000034541000000
000007DFFFFFB40000
0002DFFFFFFFFF9000
002EFFFFFFFFFFFA00
00CFFFFFFFFFFFFF60
06FFFFD50029FFFFE1
0CFFFE2000008FFFF5
1FFFF70000001EFFF9
3FFFF200000009FFFB
4FFFF100000008FFFC
3FFFF200000009FFFB
1FFFF80000001EFFF8
0CFFFF3000009FFFF4
05FFFFE6103AFFFFD0
00CFFFFFFFFFFFFF40
002EFFFFFFFFFFF800
0002CFFFFFFFFF7000
000006CFFFFEA20000
000000024430000000
ENDCHAR
STARTCHAR otilde
ENCODING 245
SWIDTH 579 0
DWIDTH 19 0
BBX 18 26 0 -1
BITMAP
000000000000010000
000019EFB309EF3000
00008FFFFE3BFF5000
0000DFFFFFFFFF4000
0000DFF88FFFFE1000
0000AFF406EFE40000
000024420012000000
000000034541000000
000007DFFFFFB40000
0002DFFFFFFFFF9000
002EFFFFFFFFFFFA00
00CFFFFFFFFFFFFF60
06FFFFD50029FFFFE1
0CFFFE2000008FFFF5
1FFFF70000001EFFF9
3FFFF200000009FFFB
4FFFF100000008FFFC
3FFFF200000009FFFB
1FFFF80000001EFFF8
0CFFFF3000009FFFF4
05FFFFE6103AFFFFD0
00CFFFFFFFFFFFFF40
002EFFFFFFFFFFF800
0002CFFFFFFFFF7000
000006CFFFFEA20000
000000024430000000
ENDCHAR
STARTCHAR odieresis
ENCODING 246
SWIDTH 579 0
DWIDTH 19 0
BBX 18 23 0 -1
BITMAP
000009D8002AC40000
00007FFF40AFFD0000
00007FFF50BFFE0000
00001CFB004EF60000
000000034541000000
000007DFFFFFB40000
0002DFFFFFFFFF9000
002EFFFFFFFFFFFA00
00CFFFFFFFFFFFFF60
06FFFFD50029FFFFE1
0CFFFE2000008FFFF5
1FFFF70000001EFFF9
3FFFF200000009FFFB
4FFFF100000008FFFC
3FFFF200000009FFFB
1FFFF80000001EFFF8
0CFFFF3000009FFFF4
05FFFFE6103AFFFFD0
00CFFFFFFFFFFFFF40
002EFFFFFFFFFFF800
0002CFFFFFFFFF7000
000006CFFFFEA20000
000000024430000000
ENDCHAR
STARTCHAR divide
ENCODING 247
SWIDTH 494 0
DWIDTH 16 0
BBX 14 17 1 3
BITMAP
00000011000000
000008FF600000
00003FFFF10000
00004FFFF20000
00000CFFA00000
00000054000000
47777777777773
AFFFFFFFFFFFF7
AFFFFFFFFFFFF7
AFFFFFFFFFFFF7
8CCCCCCCCCCCC6
00000022000000
00000AFF800000
00004FFFF10000
00004FFFF20000
00000AFF900000
00000033000000
ENDCHAR
STARTCHAR oslash
ENCODING 248
SWIDTH 579 0
DWIDTH 19 0
BBX 18 19 0 -1
BITMAP
000000034531000000
000007DFFFFFACEEE7
0002DFFFFFFFFFFFB0
002EFFFFFFFFFFFF10
00CFFFFFFFFFFFFF60
06FFFFD500CFFFFFE0
0CFFFE2008FFFFFFF5
1FFFF7005FFFEEFFF9
3FFFF202EFFF49FFFB
4FFFF10CFFF808FFFC
3FFFF28FFFB009FFFB
1FFFFBFFFE101EFFF8
0CFFFFFFF4009FFFF4
05FFFFFF803AFFFFD0
00CFFFFFFFFFFFFF40
006FFFFFFFFFFFF800
02EFFFFFFFFFFF7000
0BFFFBCFFFFEA20000
000000023430000000
ENDCHAR
STARTCHAR ugrave
ENCODING 249
SWIDTH 562 0
DWIDTH 18 0
BBX 16 26 1 -1
BITMAP
0000110000000000
0000BC1000000000
0008FFD200000000
005FFFFD20000000
0019FFFFE3000000
00003CFFF3000000
0000007E60000000
0000000100000000
7BBB7000000ABBB4
9FFFA000000EFFF5
9FFFA000000EFFF5
9FFFA000000EFFF5
9FFFA000000EFFF5
9FFFA000000EFFF5
9FFFA000000EFFF5
9FFFA000000EFFF5
9FFFA000000EFFF5
9FFFA000000EFFF5
8FFFC000001FFFF5
6FFFF300009FFFF5
1FFFFD4018FFFFF5
0AFFFFFFFFFFFFF5
01DFFFFFFFFFFFF5
003DFFFFFFFF6BF5
00018EFFFFA202E5
0000003441000000
ENDCHAR
STARTCHAR uacute
ENCODING 250
SWIDTH 562 0
DWIDTH 18 0
BBX 16 26 1 -1
BITMAP
0000000000200000
0000000003E80000
000000003EFF5000
00000004EFFFE200
0000005FFFFE7000
0000006FFFB20000
00000009D5000000
0000000110000000
7BBB7000000ABBB4
9FFFA000000EFFF5
9FFFA000000EFFF5
9FFFA000000EFFF5
9FFFA000000EFFF5
9FFFA000000EFFF5
9FFFA000000EFFF5
9FFFA000000EFFF5
9FFFA000000EFFF5
9FFFA000000EFFF5
8FFFC000001FFFF5
6FFFF300009FFFF5
1FFFFD4018FFFFF5
0AFFFFFFFFFFFFF5
01DFFFFFFFFFFFF5
003DFFFFFFFF6BF5
00018EFFFFA202E5
0000003441000000
ENDCHAR
STARTCHAR ucircumflex
ENCODING 251
SWIDTH 562 0
DWIDTH 18 0
BBX 16 26 1 -1
BITMAP
0000000100000000
0000002DA0000000
000002DFFB100000
00003EFFFFC10000
0002EFFEFFFC0000
0000AFD24EF80000
0000091003A00000
0000000000000000
7BBB7000000ABBB4
9FFFA000000EFFF5
9FFFA000000EFFF5
9FFFA000000EFFF5
9FFFA000000EFFF5
9FFFA000000EFFF5
9FFFA000000EFFF5
9FFFA000000EFFF5
9FFFA000000EFFF5
9FFFA000000EFFF5
8FFFC000001FFFF5
6FFFF300009FFFF5
1FFFFD4018FFFFF5
0AFFFFFFFFFFFFF5
01DFFFFFFFFFFFF5
003DFFFFFFFF6BF5
00018EFFFFA202E5
0000003441000000
ENDCHAR
STARTCHAR udieresis
ENCODING 252
SWIDTH 562 0
DWIDTH 18 0
BBX 16 23 1 -1
BITMAP
0003CC4005CA1000
000CFFE01FFF8000
000DFFE02FFF9000
0004EE6008FD2000
0000000000000000
7BBB7000000ABBB4
9FFFA000000EFFF5
9FFFA000000EFFF5
9FFFA000000EFFF5
9FFFA000000EFFF5
9FFFA000000EFFF5
9FFFA000000EFFF5
9FFFA000000EFFF5
9FFFA000000EFFF5
9FFFA000000EFFF5
8FFFC000001FFFF5
6FFFF300009FFFF5
1FFFFD4018FFFFF5
0AFFFFFFFFFFFFF5
01DFFFFFFFFFFFF5
003DFFFFFFFF6BF5
00018EFFFFA202E5
0000003441000000
ENDCHAR
STARTCHAR yacute
ENCODING 253
SWIDTH 562 0
DWIDTH 18 0
BBX 16 32 1 -7
BITMAP
0000000000200000
0000000003E70000
000000004EFF4000
00000005FFFFE200
0000006FFFFE6000
0000007FFFA10000
0000000AD4000000
0000000110000000
7BBB7000000ABBB4
9FFFA000000EFFF6
9FFFA000000EFFF6
9FFFA000000EFFF6
9FFFA000000EFFF6
9FFFA000000EFFF6
9FFFA000000EFFF6
9FFFA000000EFFF6
9FFFA000000EFFF6
9FFFA000000EFFF6
8FFFC000001FFFF6
6FFFF300009FFFF6
1FFFFD4018FFFFF6
0AFFFFFFFFFFFFF6
01DFFFFFFFFFFFF6
003DFFFFFFFFFFF5
00018EFFFECFFFF3
0000003441CFFFE0
000000004CFFFF80
00005EDEFFFFFE10
00005FFFFFFFF300
00005FFFFFFE3000
00005FFFFE810000
0000266530000000
ENDCHAR
STARTCHAR thorn
ENCODING 254
SWIDTH 608 0
DWIDTH 19 0
BBX 18 31 1 -7
BITMAP
4AAAA1000000000000
6FFFF2000000000000
6FFFF2000000000000
6FFFF2000000000000
6FFFF2000000000000
6FFFF2000000000000
6FFFF2014531000000
6FFFF6BFFFFFA30000
6FFFFFFFFFFFFF8000
6FFFFFFFFFFFFFF900
6FFFFFFFFFFFFFFF50
6FFFFFD40029FFFFD0
6FFFFE1000008FFFF4
6FFFF60000000EFFF8
6FFFF10000000AFFFA
6FFFF000000008FFFB
6FFFF10000000AFFFA
6FFFF60000001EFFF8
6FFFFE1000009FFFF4
6FFFFFD5103AFFFFD0
6FFFFFFFFFFFFFFF60
6FFFFFFFFFFFFFFA00
6FFFFFFFFFFFFF9000
6FFFE3AFFFFFB40000
6FFFE0014541000000
6FFFE0000000000000
6FFFE0000000000000
6FFFE0000000000000
6FFFE0000000000000
6FFFE0000000000000
266650000000000000
ENDCHAR
STARTCHAR ydieresis
ENCODING 255
SWIDTH 562 0
DWIDTH 18 0
BBX 16 29 1 -7
BITMAP
0003CC4005CA1000
000CFFE01FFF8000
000DFFE02FFF9000
0004EE6008FD2000
0000000000000000
7BBB7000000ABBB4
9FFFA000000EFFF6
9FFFA000000EFFF6
9FFFA000000EFFF6
9FFFA000000EFFF6
9FFFA000000EFFF6
9FFFA000000EFFF6
9FFFA000000EFFF6
9FFFA000000EFFF6
9FFFA000000EFFF6
8FFFC000001FFFF6
6FFFF300009FFFF6
1FFFFD4018FFFFF6
0AFFFFFFFFFFFFF6
01DFFFFFFFFFFFF6
003DFFFFFFFFFFF5
00018EFFFECFFFF3
0000003441CFFFE0
000000004CFFFF80
00005EDEFFFFFE10
00005FFFFFFFF300
00005FFFFFFE3000
00005FFFFE810000
0000266530000000
ENDCHAR
STARTCHAR Amacron
ENCODING 256
SWIDTH 673 0
DWIDTH 22 0
BBX 19 28 1 0
BITMAP
00000166666665000000
000003FFFFFFFB000000
000003FFFFFFFB000000
000002DDDDDDD9000000
00000000000000000000
00000001465300000000
000004BFFFFFE9100000
0001AFFFFFFFFFE40000
000BFFFFFFFFFFFF5000
009FFFFFFFFFFFFFF300
03FFFFFB4227EFFFFB00
09FFFF9000002DFFFF30
0EFFFD00000004FFFF70
1FFFF700000000DFFFA0
2FFFF500000000BFFFB0
3FFFF400000000BFFFB0
3FFFF400000000BFFFB0
3FFFF400000000BFFFB0
3FFFF400000000BFFFB0
3FFFFFEEEEEEEEFFFFB0
3FFFFFFFFFFFFFFFFFB0
3FFFFFFFFFFFFFFFFFB0
3FFFFFFFFFFFFFFFFFB0
3FFFFA88888888DFFFB0
3FFFF400000000BFFFB0
3FFFF400000000BFFFB0
3FFFF400000000BFFFB0
3FFFF400000000BFFFB0
ENDCHAR
STARTCHAR amacron
ENCODING 257
SWIDTH 607 0
DWIDTH 19 0
BBX 18 24 0 -1
BITMAP
000006666666600000
00000DFFFFFFF00000
00000DFFFFFFF00000
00000CDDDDDDD00000
000000000000000000
000000034530000000
000017DFFFFE810059
0003DFFFFFFFFE44FC
002EFFFFFFFFFFFEFC
00CFFFFFFFFFFFFFFC
06FFFFD5003AFFFFFC
0CFFFE100000AFFFFC
1FFFF70000001EFFFC
3FFFF200000009FFFC
4FFFF100000007FFFC
3FFFF200000009FFFC
1FFFF70000001EFFFC
0CFFFE200000AFFFFC
07FFFFD5103BFFFFFC
00DFFFFFFFFFFFFFFC
003FFFFFFFFFFFFEFC
0003DFFFFFFFFD44FC
000017DFFFFD71008C
000000024420000000
ENDCHAR
STARTCHAR Abreve
ENCODING 258
SWIDTH 673 0
DWIDTH 22 0
BBX 19 29 1 0
BITMAP
0000009BA07B90000000
000000EFE1BFF1000000
000000CFFFFFE0000000
0000003FFFFF70000000
000000029BA500000000
00000000000000000000
00000001465300000000
000004BFFFFFE9100000
0001AFFFFFFFFFE40000
000BFFFFFFFFFFFF5000
009FFFFFFFFFFFFFF300
03FFFFFB4227EFFFFB00
09FFFF9000002DFFFF30
0EFFFD00000004FFFF70
1FFFF700000000DFFFA0
2FFFF500000000BFFFB0
3FFFF400000000BFFFB0
3FFFF400000000BFFFB0
3FFFF400000000BFFFB0
3FFFF400000000BFFFB0
3FFFFFEEEEEEEEFFFFB0
3FFFFFFFFFFFFFFFFFB0
3FFFFFFFFFFFFFFFFFB0
3FFFFFFFFFFFFFFFFFB0
3FFFFA88888888DFFFB0
3FFFF400000000BFFFB0
3FFFF400000000BFFFB0
3FFFF400000000BFFFB0
3FFFF400000000BFFFB0
ENDCHAR
STARTCHAR abreve
ENCODING 259
SWIDTH 607 0
DWIDTH 19 0
BBX 18 24 0 -1
BITMAP
000005BB34BB200000
000009FF56FF600000
000007FFFFFF500000
000001CFFFFC000000
00000017BB71000000
000000034530000000
000017DFFFFE810059
0003DFFFFFFFFE44FC
002EFFFFFFFFFFFEFC
00CFFFFFFFFFFFFFFC
06FFFFD5003AFFFFFC
0CFFFE100000AFFFFC
1FFFF70000001EFFFC
3FFFF200000009FFFC
4FFFF100000007FFFC
3FFFF200000009FFFC
1FFFF70000001EFFFC
0CFFFE200000AFFFFC
07FFFFD5103BFFFFFC
00DFFFFFFFFFFFFFFC
003FFFFFFFFFFFFEFC
0003DFFFFFFFFD44FC
000017DFFFFD71008C
000000024420000000
ENDCHAR
STARTCHAR Aogonek
ENCODING 260
SWIDTH 673 0
DWIDTH 22 0
BBX 20 29 1 -6
BITMAP
00000001465300000000
000004BFFFFFE9100000
0001AFFFFFFFFFE40000
000BFFFFFFFFFFFF5000
009FFFFFFFFFFFFFF300
03FFFFFB4227EFFFFB00
09FFFF9000002DFFFF30
0EFFFD00000004FFFF70
1FFFF700000000DFFFA0
2FFFF500000000BFFFB0
3FFFF400000000BFFFB0
3FFFF400000000BFFFB0
3FFFF400000000BFFFB0
3FFFF400000000BFFFB0
3FFFFFEEEEEEEEFFFFB0
3FFFFFFFFFFFFFFFFFB0
3FFFFFFFFFFFFFFFFFB0
3FFFFFFFFFFFFFFFFFB0
3FFFFA88888888DFFFB0
3FFFF400000000BFFFB0
3FFFF400000000BFFFB0
3FFFF400000000BFFFB0
3FFFF400000000BFFFB0
000000000000009FD100
00000000000006FF6000
0000000000000BFF8A60
0000000000000AFFFFF7
00000000000002EFFFF7
0000000000000028A820
ENDCHAR
STARTCHAR aogonek
ENCODING 261
SWIDTH 607 0
DWIDTH 19 0
BBX 21 24 0 -6
BITMAP
0000000345300000000000
000017DFFFFE8100590000
0003DFFFFFFFFE44FC0000
002EFFFFFFFFFFFEFC0000
00CFFFFFFFFFFFFFFC0000
06FFFFD5003AFFFFFC0000
0CFFFE100000AFFFFC0000
1FFFF70000001EFFFC0000
3FFFF200000009FFFC0000
4FFFF100000007FFFC0000
3FFFF200000009FFFC0000
1FFFF70000001EFFFC0000
0CFFFE200000AFFFFC0000
07FFFFD5103BFFFFFC0000
00DFFFFFFFFFFFFFFC0000
003FFFFFFFFFFFFEFC0000
0003DFFFFFFFFD45FC0000
000017DFFFFD7103EC0000
000000024420004EF70000
00000000000001EFC00000
00000000000005FFC6B100
00000000000004FFFFFC10
00000000000000AFFFFC10
0000000000000006A95000
ENDCHAR
STARTCHAR Cacute
ENCODING 262
SWIDTH 640 0
DWIDTH 20 0
BBX 20 32 0 -1
BITMAP
00000000000000200000
00000000000004E60000
0000000000005FFF3000
000000000006FFFFD100
00000000007FFFFE6000
00000000008FFF910000
00000000000BD4000000
00000000000100000000
00000000158AA9840000
00000019EFFFFFFFE810
000005EFFFFFFFFFFFE4
00008FFFFFFFFFFFFFFA
0007FFFFFFFDCDFFFFE2
003FFFFFE7100027EF70
00CFFFFB100000002A00
04FFFFC1000000000000
09FFFF30000000000000
0DFFFB00000000000000
1FFFF700000000000000
2FFFF500000000000000
2FFFF600000000000000
0FFFF800000000000000
0CFFFD00000000000000
08FFFF50000000000000
03FFFFE2000000000100
00AFFFFE400000004D10
002EFFFFFA51025BFF90
0004FFFFFFFFFFFFFFF4
00004EFFFFFFFFFFFFFB
000003CFFFFFFFFFFFB2
00000005CFFFFFFFB400
00000000015676410000
ENDCHAR
STARTCHAR cacute
ENCODING 263
SWIDTH 521 0
DWIDTH 17 0
BBX 17 27 0 -1
BITMAP
000000000002000000
00000000004E700000
0000000004EFF40000
000000005FFFFE1000
00000006FFFFE60000
00000007FFFA100000
00000000BD40000000
000000001000000000
000000024541000000
000006DFFFFE920000
0001CFFFFFFFFE6000
001DFFFFFFFFFFF600
00AFFFFFFFFFFFFE10
04FFFFE6103AFFF500
0BFFFF3000009F5000
1EFFF8000000150000
3FFFF3000000000000
4FFFF1000000000000
3FFFF2000000000000
2FFFF6000000020000
0CFFFE2000008D2000
06FFFFE6103AFFD200
00CFFFFFFFFFFFFD10
002EFFFFFFFFFFF700
0002CFFFFFFFFF7000
000006DFFFFE920000
000000024430000000
ENDCHAR
STARTCHAR Ccircumflex
ENCODING 264
SWIDTH 640 0
DWIDTH 20 0
BBX 20 32 0 -1
BITMAP
00000000000100000000
00000000003E80000000
0000000003EFFA000000
000000004EFFFFB10000
00000003FFFDFFFB0000
00000000BFC15FF60000
00000000191004900000
00000000000000000000
00000000158AA9840000
00000019EFFFFFFFE810
000005EFFFFFFFFFFFE4
00008FFFFFFFFFFFFFFA
0007FFFFFFFDCDFFFFE2
003FFFFFE7100027EF70
00CFFFFB100000002A00
04FFFFC1000000000000
09FFFF30000000000000
0DFFFB00000000000000
1FFFF700000000000000
2FFFF500000000000000
2FFFF600000000000000
0FFFF800000000000000
0CFFFD00000000000000
08FFFF50000000000000
03FFFFE2000000000100
00AFFFFE400000004D10
002EFFFFFA51025BFF90
0004FFFFFFFFFFFFFFF4
00004EFFFFFFFFFFFFFB
000003CFFFFFFFFFFFB2
00000005CFFFFFFFB400
00000000015676410000
ENDCHAR
STARTCHAR ccircumflex
ENCODING 265
SWIDTH 521 0
DWIDTH 17 0
BBX 17 26 0 -1
BITMAP
000000000100000000
00000000BC10000000
0000001BFFD2000000
000001CFFFFE300000
00000CFFFDFFE20000
000007FE42CFB00000
00000084001A100000
000000024541000000
000006DFFFFE920000
0001CFFFFFFFFE6000
001DFFFFFFFFFFF600
00AFFFFFFFFFFFFE10
04FFFFE6103AFFF500
0BFFFF3000009F5000
1EFFF8000000150000
3FFFF3000000000000
4FFFF1000000000000
3FFFF2000000000000
2FFFF6000000020000
0CFFFE2000008D2000
06FFFFE6103AFFD200
00CFFFFFFFFFFFFD10
002EFFFFFFFFFFF700
0002CFFFFFFFFF7000
000006DFFFFE920000
000000024430000000
ENDCHAR
STARTCHAR Cdotaccent
ENCODING 266
SWIDTH 640 0
DWIDTH 20 0
BBX 20 30 0 -1
BITMAP
00000000000120000000
00000000003EF9000000
0000000000AFFF200000
00000000009FFF100000
00000000001AC5000000
00000000000000000000
00000000158AA9840000
00000019EFFFFFFFE810
000005EFFFFFFFFFFFE4
00008FFFFFFFFFFFFFFA
0007FFFFFFFDCDFFFFE2
003FFFFFE7100027EF70
00CFFFFB100000002A00
04FFFFC1000000000000
09FFFF30000000000000
0DFFFB00000000000000
1FFFF700000000000000
2FFFF500000000000000
2FFFF600000000000000
0FFFF800000000000000
0CFFFD00000000000000
08FFFF50000000000000
03FFFFE2000000000100
00AFFFFE400000004D10
002EFFFFFA51025BFF90
0004FFFFFFFFFFFFFFF4
00004EFFFFFFFFFFFFFB
000003CFFFFFFFFFFFB2
00000005CFFFFFFFB400
00000000015676410000
ENDCHAR
STARTCHAR cdotaccent
ENCODING 267
SWIDTH 521 0
DWIDTH 17 0
BBX 17 25 0 -1
BITMAP
000000001200000000
00000003EFA0000000
0000000AFFF3000000
00000009FFF2000000
000000019C50000000
000000000000000000
000000024541000000
000006DFFFFE920000
0001CFFFFFFFFE6000
001DFFFFFFFFFFF600
00AFFFFFFFFFFFFE10
04FFFFE6103AFFF500
0BFFFF3000009F5000
1EFFF8000000150000
3FFFF3000000000000
4FFFF1000000000000
3FFFF2000000000000
2FFFF6000000020000
0CFFFE2000008D2000
06FFFFE6103AFFD200
00CFFFFFFFFFFFFD10
002EFFFFFFFFFFF700
0002CFFFFFFFFF7000
000006DFFFFE920000
000000024430000000
ENDCHAR
STARTCHAR Ccaron
ENCODING 268
SWIDTH 640 0
DWIDTH 20 0
BBX 20 31 0 -1
BITMAP
00000000041000400000
000000003EC207F80000
00000000CFFD9FFF4000
000000003EFFFFF90000
0000000002DFFF800000
00000000001CF8000000
00000000000150000000
00000000158AA9840000
00000019EFFFFFFFE810
000005EFFFFFFFFFFFE4
00008FFFFFFFFFFFFFFA
0007FFFFFFFDCDFFFFE2
003FFFFFE7100027EF70
00CFFFFB100000002A00
04FFFFC1000000000000
09FFFF30000000000000
0DFFFB00000000000000
1FFFF700000000000000
2FFFF500000000000000
2FFFF600000000000000
0FFFF800000000000000
0CFFFD00000000000000
08FFFF50000000000000
03FFFFE2000000000100
00AFFFFE400000004D10
002EFFFFFA51025BFF90
0004FFFFFFFFFFFFFFF4
00004EFFFFFFFFFFFFFB
000003CFFFFFFFFFFFB2
00000005CFFFFFFFB400
00000000015676410000
ENDCHAR
STARTCHAR ccaron
ENCODING 269
SWIDTH 521 0
DWIDTH 17 0
BBX 17 26 0 -1
BITMAP
000000410004000000
000002ED207F800000
00000CFFD9FFF40000
000003DFFFFF900000
0000002DFFF8000000
00000001CF80000000
000000001500000000
000000024541000000
000006DFFFFE920000
0001CFFFFFFFFE6000
001DFFFFFFFFFFF600
00AFFFFFFFFFFFFE10
04FFFFE6103AFFF500
0BFFFF3000009F5000
1EFFF8000000150000
3FFFF3000000000000
4FFFF1000000000000
3FFFF2000000000000
2FFFF6000000020000
0CFFFE2000008D2000
06FFFFE6103AFFD200
00CFFFFFFFFFFFFD10
002EFFFFFFFFFFF700
0002CFFFFFFFFF7000
000006DFFFFE920000
000000024430000000
ENDCHAR
STARTCHAR Dcaron
ENCODING 270
SWIDTH 653 0
DWIDTH 21 0
BBX 18 30 2 0
BITMAP
000003200030000000
00001DE305FA000000
00009FFE8FFF700000
00001CFFFFFB100000
000001BFFFB1000000
0000000AFA00000000
000000006000000000
666666654100000000
EFFFFFFFFFB5000000
EFFFFFFFFFFFC30000
EFFFFFFFFFFFFF5000
EFFFFFFFFFFFFFF400
EFFF91125AFFFFFE20
EFFF9000003DFFFFA0
EFFF90000002EFFFF2
EFFF900000005FFFF8
EFFF900000000DFFFB
EFFF9000000009FFFE
EFFF9000000007FFFF
EFFF9000000008FFFF
EFFF900000000BFFFD
EFFF900000001FFFFA
EFFF900000009FFFF6
EFFF90000006FFFFE1
EFFF9000019FFFFF70
EFFFC778BFFFFFFB00
EFFFFFFFFFFFFFD100
EFFFFFFFFFFFFB1000
EFFFFFFFFFFE700000
EFFFFFFEDA51000000
ENDCHAR
STARTCHAR dcaron
ENCODING 271
SWIDTH 740 0
DWIDTH 24 0
BBX 24 25 0 -1
BITMAP
000000000000036665000000
00000000000008FFFC002620
00000000000008FFFC03EFF4
00000000000008FFFC08FFF9
00000000000008FFFC06FFF9
00000000000008FFFC008FF6
00000003454008FFFC002FE1
000007DFFFFE78FFFC004E60
0002DFFFFFFFFEFFFC000100
002EFFFFFFFFFFFFFC000000
00CFFFFFFFFFFFFFFC000000
06FFFFD5003BFFFFFC000000
0CFFFD100000AFFFFC000000
1FFFF60000001EFFFC000000
3FFFF20000000AFFFC000000
4FFFF100000008FFFC000000
3FFFF20000000AFFFC000000
1FFFF80000001EFFFC000000
0CFFFF300000AFFFFC000000
06FFFFE6103CFFFFFC000000
00CFFFFFFFFFFFFFFC000000
002EFFFFFFFFFFFEFC000000
0002CFFFFFFFFD35FC000000
000006DFFFFD71009C000000
000000024420000000000000
ENDCHAR
STARTCHAR Dcroat
ENCODING 272
SWIDTH 672 0
DWIDTH 22 0
BBX 21 23 0 0
BITMAP
0026666666530000000000
005FFFFFFFFFE930000000
005FFFFFFFFFFFF9100000
005FFFFFFFFFFFFFC10000
005FFFFFFFFFFFFFFC1000
005FFFF41137DFFFFFA000
005FFFF3000007FFFFF400
005FFFF30000007FFFFB00
005FFFF30000000BFFFF20
679FFFF875000004FFFF60
DFFFFFFFFC000000FFFF80
DFFFFFFFFC000000DFFF90
DFFFFFFFFC000000EFFF90
BCDFFFFDCA000001FFFF70
005FFFF300000007FFFF40
005FFFF30000001EFFFE10
005FFFF3000001BFFFF900
005FFFF300004CFFFFE200
005FFFF9779CFFFFFF6000
005FFFFFFFFFFFFFF80000
005FFFFFFFFFFFFF700000
005FFFFFFFFFFFB3000000
005FFFFFFFEC8300000000
ENDCHAR
STARTCHAR dcroat
ENCODING 273
SWIDTH 606 0
DWIDTH 19 0
BBX 20 25 0 -1
BITMAP
00000000000003666500
0000000000027BFFFD73
000000000003FFFFFFF6
000000000003FFFFFFF6
000000000003FFFFFFF6
000000000003CEFFFEC5
00000003454008FFFC00
000007DFFFFE78FFFC00
0002DFFFFFFFFEFFFC00
002EFFFFFFFFFFFFFC00
00CFFFFFFFFFFFFFFC00
06FFFFD5003BFFFFFC00
0CFFFD100000AFFFFC00
1FFFF60000001EFFFC00
3FFFF20000000AFFFC00
4FFFF100000008FFFC00
3FFFF20000000AFFFC00
1FFFF80000001EFFFC00
0CFFFF300000AFFFFC00
06FFFFE6103CFFFFFC00
00CFFFFFFFFFFFFFFC00
002EFFFFFFFFFFFEFC00
0002CFFFFFFFFD35FC00
000006DFFFFD71009C00
00000002442000000000
ENDCHAR
STARTCHAR Emacron
ENCODING 274
SWIDTH 578 0
DWIDTH 19 0
BBX 16 28 2 0
BITMAP
0000566666661000
0000CFFFFFFF2000
0000CFFFFFFF2000
0000ADDDDDDD2000
0000000000000000
6666666666666663
EFFFFFFFFFFFFFF7
EFFFFFFFFFFFFFF7
EFFFFFFFFFFFFFF7
EFFFFFFFFFFFFFF7
EFFF911111111110
EFFF800000000000
EFFF800000000000
EFFF800000000000
EFFFB77777760000
EFFFFFFFFFFE0000
EFFFFFFFFFFE0000
EFFFFFFFFFFE0000
EFFFFFFFFFFE0000
EFFF911111110000
EFFF800000000000
EFFF800000000000
EFFF800000000000
EFFFC77777777773
EFFFFFFFFFFFFFF7
EFFFFFFFFFFFFFF7
EFFFFFFFFFFFFFF7
EFFFFFFFFFFFFFF7
ENDCHAR
STARTCHAR emacron
ENCODING 275
SWIDTH 524 0
DWIDTH 17 0
BBX 17 24 0 -1
BITMAP
000006666666600000
00000EFFFFFFF00000
00000EFFFFFFF00000
00000CDDDDDDD00000
000000000000000000
000000035531000000
000017DFFFFFA30000
0003DFFFFFFFFF8000
003EFFFFFFFFFFF900
00DFFFFFFEFFFFFE10
06FFFFD510CFFFF400
0CFFFE2009FFFF6000
1FFFF7005FFFF90000
3FFFF202EFFFB00000
4FFFF10CFFFD100000
3FFFF29FFFE2000000
1FFFFBFFFF40020000
0BFFFFFFF7008E2000
05FFFFFFA03AFFE200
00CFFFFFFFFFFFFD10
002EFFFFFFFFFFF800
0002CFFFFFFFFF7000
000006CFFFFE930000
000000024431000000
ENDCHAR
STARTCHAR Ebreve
ENCODING 276
SWIDTH 578 0
DWIDTH 19 0
BBX 16 29 2 0
BITMAP
00007BB16BA00000
0000CFF29FF30000
0000AFFFFFF20000
00002EFFFF900000
0000018BA6000000
0000000000000000
6666666666666663
EFFFFFFFFFFFFFF7
EFFFFFFFFFFFFFF7
EFFFFFFFFFFFFFF7
EFFFFFFFFFFFFFF7
EFFF911111111110
EFFF800000000000
EFFF800000000000
EFFF800000000000
EFFFB77777760000
EFFFFFFFFFFE0000
EFFFFFFFFFFE0000
EFFFFFFFFFFE0000
EFFFFFFFFFFE0000
EFFF911111110000
EFFF800000000000
EFFF800000000000
EFFF800000000000
EFFFC77777777773
EFFFFFFFFFFFFFF7
EFFFFFFFFFFFFFF7
EFFFFFFFFFFFFFF7
EFFFFFFFFFFFFFF7
ENDCHAR
STARTCHAR ebreve
ENCODING 277
SWIDTH 524 0
DWIDTH 17 0
BBX 17 24 0 -1
BITMAP
000006BB15BB100000
00000BFF38FF400000
000009FFFFFF300000
000001DFFFFA000000
00000018BA60000000
000000035531000000
000017DFFFFFA30000
0003DFFFFFFFFF8000
003EFFFFFFFFFFF900
00DFFFFFFEFFFFFE10
06FFFFD510CFFFF400
0CFFFE2009FFFF6000
1FFFF7005FFFF90000
3FFFF202EFFFB00000
4FFFF10CFFFD100000
3FFFF29FFFE2000000
1FFFFBFFFF40020000
0BFFFFFFF7008E2000
05FFFFFFA03AFFE200
00CFFFFFFFFFFFFD10
002EFFFFFFFFFFF800
0002CFFFFFFFFF7000
000006CFFFFE930000
000000024431000000
ENDCHAR
STARTCHAR Edotaccent
ENCODING 278
SWIDTH 578 0
DWIDTH 19 0
BBX 16 29 2 0
BITMAP
0000000110000000
0000008FE5000000
000001FFFC000000
000000EFFB000000
0000004BA2000000
0000000000000000
6666666666666663
EFFFFFFFFFFFFFF7
EFFFFFFFFFFFFFF7
EFFFFFFFFFFFFFF7
EFFFFFFFFFFFFFF7
EFFF911111111110
EFFF800000000000
EFFF800000000000
EFFF800000000000
EFFFB77777760000
EFFFFFFFFFFE0000
EFFFFFFFFFFE0000
EFFFFFFFFFFE0000
EFFFFFFFFFFE0000
EFFF911111110000
EFFF800000000000
EFFF800000000000
EFFF800000000000
EFFFC77777777773
EFFFFFFFFFFFFFF7
EFFFFFFFFFFFFFF7
EFFFFFFFFFFFFFF7
EFFFFFFFFFFFFFF7
ENDCHAR
STARTCHAR edotaccent
ENCODING 279
SWIDTH 524 0
DWIDTH 17 0
BBX 17 25 0 -1
BITMAP
000000001100000000
00000005FF70000000
0000000DFFE0000000
0000000CFFD0000000
00000002BB30000000
000000000000000000
000000035531000000
000017DFFFFFA30000
0003DFFFFFFFFF8000
003EFFFFFFFFFFF900
00DFFFFFFEFFFFFE10
06FFFFD510CFFFF400
0CFFFE2009FFFF6000
1FFFF7005FFFF90000
3FFFF202EFFFB00000
4FFFF10CFFFD100000
3FFFF29FFFE2000000
1FFFFBFFFF40020000
0BFFFFFFF7008E2000
05FFFFFFA03AFFE200
00CFFFFFFFFFFFFD10
002EFFFFFFFFFFF800
0002CFFFFFFFFF7000
000006CFFFFE930000
000000024431000000
ENDCHAR
STARTCHAR Eogonek
ENCODING 280
SWIDTH 578 0
DWIDTH 19 0
BBX 16 29 2 -6
BITMAP
6666666666666663
EFFFFFFFFFFFFFF7
EFFFFFFFFFFFFFF7
EFFFFFFFFFFFFFF7
EFFFFFFFFFFFFFF7
EFFF911111111110
EFFF800000000000
EFFF800000000000
EFFF800000000000
EFFFB77777760000
EFFFFFFFFFFE0000
EFFFFFFFFFFE0000
EFFFFFFFFFFE0000
EFFFFFFFFFFE0000
EFFF911111110000
EFFF800000000000
EFFF800000000000
EFFF800000000000
EFFFC77777777773
EFFFFFFFFFFFFFF7
EFFFFFFFFFFFFFF7
EFFFFFFFFFFFFFF7
EFFFFFFFFFFFFFF7
0000000003EF5000
000000001EFC0000
000000005FFC6B10
000000004FFFFFC1
000000000AFFFFC1
00000000006A9500
ENDCHAR
STARTCHAR eogonek
ENCODING 281
SWIDTH 524 0
DWIDTH 17 0
BBX 17 24 0 -6
BITMAP
000000035531000000
000017DFFFFFA30000
0003DFFFFFFFFF8000
003EFFFFFFFFFFF900
00DFFFFFFEFFFFFE10
06FFFFD510CFFFF400
0CFFFE2009FFFF6000
1FFFF7005FFFF90000
3FFFF202EFFFB00000
4FFFF10CFFFD100000
3FFFF29FFFE2000000
1FFFFBFFFF40020000
0BFFFFFFF7008E2000
05FFFFFFA03AFFE200
00CFFFFFFFFFFFFD10
002EFFFFFFFFFFF800
0002CFFFFFFFFF7000
000006CFFFFFE30000
000000024AFF400000
000000002EFA000000
000000007FFB7A0000
000000005FFFFFB100
000000000CFFFFB100
00000000006A940000
ENDCHAR
STARTCHAR Ecaron
ENCODING 282
SWIDTH 578 0
DWIDTH 19 0
BBX 16 30 2 0
BITMAP
0000050001300000
00008F801CE30000
0003FFFACFFD0000
00007FFFFFE40000
000006FFFE300000
0000004EE3000000
0000000330000000
6666666666666663
EFFFFFFFFFFFFFF7
EFFFFFFFFFFFFFF7
EFFFFFFFFFFFFFF7
EFFFFFFFFFFFFFF7
EFFF911111111110
EFFF800000000000
EFFF800000000000
EFFF800000000000
EFFFB77777760000
EFFFFFFFFFFE0000
EFFFFFFFFFFE0000
EFFFFFFFFFFE0000
EFFFFFFFFFFE0000
EFFF911111110000
EFFF800000000000
EFFF800000000000
EFFF800000000000
EFFFC77777777773
EFFFFFFFFFFFFFF7
EFFFFFFFFFFFFFF7
EFFFFFFFFFFFFFF7
EFFFFFFFFFFFFFF7
ENDCHAR
STARTCHAR ecaron
ENCODING 283
SWIDTH 524 0
DWIDTH 17 0
BBX 17 26 0 -1
BITMAP
000000500004000000
000005FA10AF500000
00001EFFCBFFE10000
000005FFFFFF600000
0000004EFFF5000000
00000003DF50000000
000000002400000000
000000035531000000
000017DFFFFFA30000
0003DFFFFFFFFF8000
003EFFFFFFFFFFF900
00DFFFFFFEFFFFFE10
06FFFFD510CFFFF400
0CFFFE2009FFFF6000
1FFFF7005FFFF90000
3FFFF202EFFFB00000
4FFFF10CFFFD100000
3FFFF29FFFE2000000
1FFFFBFFFF40020000
0BFFFFFFF7008E2000
05FFFFFFA03AFFE200
00CFFFFFFFFFFFFD10
002EFFFFFFFFFFF800
0002CFFFFFFFFF7000
000006CFFFFE930000
000000024431000000
ENDCHAR
STARTCHAR Gcircumflex
ENCODING 284
SWIDTH 665 0
DWIDTH 21 0
BBX 20 31 0 -1
BITMAP
00000000000100000000
00000000002DA0000000
0000000002DFFB100000
000000003EFFFFC10000
00000002EFFEEFFD1000
00000000AFD23EF80000
00000000092003A00000
000000000479A8730000
00000018EFFFFFFFD610
000005EFFFFFFFFFFFD3
00007FFFFFFFFFFFFFFA
0006FFFFFFFDCEFFFFE2
003FFFFFE7100028FF70
00CFFFFC100000003B00
04FFFFD1000000000000
09FFFF30000000000000
0DFFFB00000000000000
1FFFF700000000000000
2FFFF500000000012221
2FFFF60000000006FFFE
0FFFF80000000006FFFE
0CFFFC0000000006FFFE
08FFFF5000000006FFFE
03FFFFE200000006FFFE
00AFFFFD30000006FFFE
002EFFFFF941025CFFFE
0004FFFFFFFFFFFFFFFE
00005FFFFFFFFFFFFFFD
000003CFFFFFFFFFFFB1
00000005CFFFFFFFB400
00000000025676410000
ENDCHAR
STARTCHAR gcircumflex
ENCODING 285
SWIDTH 607 0
DWIDTH 19 0
BBX 18 32 0 -7
BITMAP
000000000100000000
00000000AD20000000
0000001BFFD2000000
000001CFFFFE300000
00000CFFFDFFE30000
000006FF51CFC00000
00000074001A200000
000000024530000000
000007DFFFFE810059
0002DFFFFFFFFE44FC
002EFFFFFFFFFFFEFC
00CFFFFFFFFFFFFFFC
05FFFFD5003AFFFFFC
0BFFFE100000AFFFFC
1FFFF70000001EFFFC
3FFFF200000009FFFC
4FFFF100000007FFFC
3FFFF300000009FFFC
1FFFF70000001EFFFC
0CFFFE200000AFFFFC
06FFFFE5103BFFFFFC
00DFFFFFFFFFFFFFFC
003EFFFFFFFFFFFFFC
0003DFFFFFFFFFFFFC
000017DFFFFFADFFFA
0000000244315FFFF6
000000000006EFFFE1
0000000BDDFFFFFF60
0000000DFFFFFFFA00
0000000DFFFFFF9000
0000000DFFFFB40000
000000056641000000
ENDCHAR
STARTCHAR Gbreve
ENCODING 286
SWIDTH 665 0
DWIDTH 21 0
BBX 20 30 0 -1
BITMAP
000000004BB42BB40000
000000007FF74FF80000
000000005FFFFFF70000
000000000BFFFFD10000
00000000006AB8100000
00000000000000000000
000000000479A8730000
00000018EFFFFFFFD610
000005EFFFFFFFFFFFD3
00007FFFFFFFFFFFFFFA
0006FFFFFFFDCEFFFFE2
003FFFFFE7100028FF70
00CFFFFC100000003B00
04FFFFD1000000000000
09FFFF30000000000000
0DFFFB00000000000000
1FFFF700000000000000
2FFFF500000000012221
2FFFF60000000006FFFE
0FFFF80000000006FFFE
0CFFFC0000000006FFFE
08FFFF5000000006FFFE
03FFFFE200000006FFFE
00AFFFFD30000006FFFE
002EFFFFF941025CFFFE
0004FFFFFFFFFFFFFFFE
00005FFFFFFFFFFFFFFD
000003CFFFFFFFFFFFB1
00000005CFFFFFFFB400
00000000025676410000
ENDCHAR
STARTCHAR gbreve
ENCODING 287
SWIDTH 607 0
DWIDTH 19 0
BBX 18 30 0 -7
BITMAP
000003BB52BB500000
000006FF83FF900000
000003FFFFFF800000
0000009FFFFE200000
00000006AB82000000
000000024530000000
000007DFFFFE810059
0002DFFFFFFFFE44FC
002EFFFFFFFFFFFEFC
00CFFFFFFFFFFFFFFC
05FFFFD5003AFFFFFC
0BFFFE100000AFFFFC
1FFFF70000001EFFFC
3FFFF200000009FFFC
4FFFF100000007FFFC
3FFFF300000009FFFC
1FFFF70000001EFFFC
0CFFFE200000AFFFFC
06FFFFE5103BFFFFFC
00DFFFFFFFFFFFFFFC
003EFFFFFFFFFFFFFC
0003DFFFFFFFFFFFFC
000017DFFFFFADFFFA
0000000244315FFFF6
000000000006EFFFE1
0000000BDDFFFFFF60
0000000DFFFFFFFA00
0000000DFFFFFF9000
0000000DFFFFB40000
000000056641000000
ENDCHAR
STARTCHAR Gdotaccent
ENCODING 288
SWIDTH 665 0
DWIDTH 21 0
BBX 20 30 0 -1
BITMAP
00000000000110000000
00000000007FF5000000
0000000000FFFD000000
0000000000EFFB000000
00000000003BB2000000
00000000000000000000
000000000479A8730000
00000018EFFFFFFFD610
000005EFFFFFFFFFFFD3
00007FFFFFFFFFFFFFFA
0006FFFFFFFDCEFFFFE2
003FFFFFE7100028FF70
00CFFFFC100000003B00
04FFFFD1000000000000
09FFFF30000000000000
0DFFFB00000000000000
1FFFF700000000000000
2FFFF500000000012221
2FFFF60000000006FFFE
0FFFF80000000006FFFE
0CFFFC0000000006FFFE
08FFFF5000000006FFFE
03FFFFE200000006FFFE
00AFFFFD30000006FFFE
002EFFFFF941025CFFFE
0004FFFFFFFFFFFFFFFE
00005FFFFFFFFFFFFFFD
000003CFFFFFFFFFFFB1
00000005CFFFFFFFB400
00000000025676410000
ENDCHAR
STARTCHAR gdotaccent
ENCODING 289
SWIDTH 607 0
DWIDTH 19 0
BBX 18 30 0 -7
BITMAP
000000001100000000
00000005FF70000000
0000000DFFF0000000
0000000BFFE0000000
00000002BB30000000
000000024530000000
000007DFFFFE810059
0002DFFFFFFFFE44FC
002EFFFFFFFFFFFEFC
00CFFFFFFFFFFFFFFC
05FFFFD5003AFFFFFC
0BFFFE100000AFFFFC
1FFFF70000001EFFFC
3FFFF200000009FFFC
4FFFF100000007FFFC
3FFFF300000009FFFC
1FFFF70000001EFFFC
0CFFFE200000AFFFFC
06FFFFE5103BFFFFFC
00DFFFFFFFFFFFFFFC
003EFFFFFFFFFFFFFC
0003DFFFFFFFFFFFFC
000017DFFFFFADFFFA
0000000244315FFFF6
000000000006EFFFE1
0000000BDDFFFFFF60
0000000DFFFFFFFA00
0000000DFFFFFF9000
0000000DFFFFB40000
000000056641000000
ENDCHAR
STARTCHAR Gcommaaccent
ENCODING 290
SWIDTH 665 0
DWIDTH 21 0
BBX 20 32 0 -9
BITMAP
000000000479A8730000
00000018EFFFFFFFD610
000005EFFFFFFFFFFFD3
00007FFFFFFFFFFFFFFA
0006FFFFFFFDCEFFFFE2
003FFFFFE7100028FF70
00CFFFFC100000003B00
04FFFFD1000000000000
09FFFF30000000000000
0DFFFB00000000000000
1FFFF700000000000000
2FFFF500000000012221
2FFFF60000000006FFFE
0FFFF80000000006FFFE
0CFFFC0000000006FFFE
08FFFF5000000006FFFE
03FFFFE200000006FFFE
00AFFFFD30000006FFFE
002EFFFFF941025CFFFE
0004FFFFFFFFFFFFFFFE
00005FFFFFFFFFFFFFFD
000003CFFFFFFFFFFFB1
00000005CFFFFFFFB400
00000000025676410000
00000000001650000000
0000000000CFF9000000
0000000003FFFF000000
0000000001EFFE000000
00000000004DFB000000
00000000000BF6000000
00000000001CB0000000
00000000000010000000
ENDCHAR
STARTCHAR gcommaaccent
ENCODING 291
SWIDTH 607 0
DWIDTH 19 0
BBX 18 33 0 -7
BITMAP
000000005400000000
00000003FE10000000
0000000AF900000000
0000000EFFA0000000
0000000FFFF2000000
0000000EFFF1000000
00000004DD50000000
000000000000000000
000000024530000000
000007DFFFFE810059
0002DFFFFFFFFE44FC
002EFFFFFFFFFFFEFC
00CFFFFFFFFFFFFFFC
05FFFFD5003AFFFFFC
0BFFFE100000AFFFFC
1FFFF70000001EFFFC
3FFFF200000009FFFC
4FFFF100000007FFFC
3FFFF300000009FFFC
1FFFF70000001EFFFC
0CFFFE200000AFFFFC
06FFFFE5103BFFFFFC
00DFFFFFFFFFFFFFFC
003EFFFFFFFFFFFFFC
0003DFFFFFFFFFFFFC
000017DFFFFFADFFFA
0000000244315FFFF6
000000000006EFFFE1
0000000BDDFFFFFF60
0000000DFFFFFFFA00
0000000DFFFFFF9000
0000000DFFFFB40000
000000056641000000
ENDCHAR
STARTCHAR Hcircumflex
ENCODING 292
SWIDTH 689 0
DWIDTH 22 0
BBX 18 30 2 0
BITMAP
000000001000000000
00000001CB10000000
0000001CFFC1000000
000002DFFFFD200000
00001DFFEEFFD10000
000008FE32DFA00000
00000093002A100000
666630000000036666
EFFF8000000007FFFF
EFFF8000000007FFFF
EFFF8000000007FFFF
EFFF8000000007FFFF
EFFF8000000007FFFF
EFFF8000000007FFFF
EFFF8000000007FFFF
EFFF8000000007FFFF
EFFFB77777777BFFFF
EFFFFFFFFFFFFFFFFF
EFFFFFFFFFFFFFFFFF
EFFFFFFFFFFFFFFFFF
EFFFFFFFFFFFFFFFFF
EFFF9111111118FFFF
EFFF8000000007FFFF
EFFF8000000007FFFF
EFFF8000000007FFFF
EFFF8000000007FFFF
EFFF8000000007FFFF
EFFF8000000007FFFF
EFFF8000000007FFFF
EFFF8000000007FFFF
ENDCHAR
STARTCHAR hcircumflex
ENCODING 293
SWIDTH 562 0
DWIDTH 18 0
BBX 16 25 1 0
BITMAP
0000000001000000
266650002DA00000
6FFFD002DFFB1000
6FFFD03EFFFFC100
6FFFD2EFFEEFFD00
6FFFD0AFD24EF800
6FFFD0092003A000
6FFFD00000000000
6FFFD6CEFEA30000
6FFFFFFFFFFF9000
6FFFFFFFFFFFFA00
6FFFFFFFFFFFFF60
6FFFFFB559FFFFE0
6FFFF900006FFFF4
6FFFF100000DFFF7
6FFFE000000BFFF9
6FFFD000000BFFF9
6FFFD000000BFFF9
6FFFD000000BFFF9
6FFFD000000BFFF9
6FFFD000000BFFF9
6FFFD000000BFFF9
6FFFD000000BFFF9
6FFFD000000BFFF9
6FFFD000000BFFF9
ENDCHAR
STARTCHAR Hbar
ENCODING 294
SWIDTH 689 0
DWIDTH 22 0
BBX 22 23 0 0
BITMAP
0066663000000003666600
00EFFF8000000007FFFF00
00EFFF8000000007FFFF00
5AFFFFDAAAAAAAACFFFFA6
8FFFFFFFFFFFFFFFFFFFF9
8FFFFFFFFFFFFFFFFFFFF9
8FFFFFFFFFFFFFFFFFFFF9
59FFFFC99999999CFFFF95
00EFFF8000000007FFFF00
00EFFFB77777777BFFFF00
00EFFFFFFFFFFFFFFFFF00
00EFFFFFFFFFFFFFFFFF00
00EFFFFFFFFFFFFFFFFF00
00EFFFFFFFFFFFFFFFFF00
00EFFF9111111118FFFF00
00EFFF8000000007FFFF00
00EFFF8000000007FFFF00
00EFFF8000000007FFFF00
00EFFF8000000007FFFF00
00EFFF8000000007FFFF00
00EFFF8000000007FFFF00
00EFFF8000000007FFFF00
00EFFF8000000007FFFF00
ENDCHAR
STARTCHAR hbar
ENCODING 295
SWIDTH 562 0
DWIDTH 18 0
BBX 17 24 0 0
BITMAP
026665000000000000
69FFFE620000000000
FFFFFFF60000000000
FFFFFFF60000000000
FFFFFFF60000000000
8BFFFE830000000000
06FFFD000000000000
06FFFD6CEFEA300000
06FFFFFFFFFFF90000
06FFFFFFFFFFFFA000
06FFFFFFFFFFFFF600
06FFFFFB559FFFFE00
06FFFF900006FFFF40
06FFFF100000DFFF70
06FFFE000000BFFF90
06FFFD000000BFFF90
06FFFD000000BFFF90
06FFFD000000BFFF90
06FFFD000000BFFF90
06FFFD000000BFFF90
06FFFD000000BFFF90
06FFFD000000BFFF90
06FFFD000000BFFF90
06FFFD000000BFFF90
ENDCHAR
STARTCHAR Itilde
ENCODING 296
SWIDTH 270 0
DWIDTH 9 0
BBX 11 30 -1 0
BITMAP
000000000100
08EFC308EF50
7FFFFE4AFF70
BFFFFFFFFF60
CFF97FFFFF20
9FF605EFE500
244200120000
000666630000
000EFFF80000
000EFFF80000
000EFFF80000
000EFFF80000
000EFFF80000
000EFFF80000
000EFFF80000
000EFFF80000
000EFFF80000
000EFFF80000
000EFFF80000
000EFFF80000
000EFFF80000
000EFFF80000
000EFFF80000
000EFFF80000
000EFFF80000
000EFFF80000
000EFFF80000
000EFFF80000
000EFFF80000
000EFFF80000
ENDCHAR
STARTCHAR itilde
ENCODING 297
SWIDTH 235 0
DWIDTH 8 0
BBX 11 24 -2 0
BITMAP
000000000010
03CFE802DFB0
1EFFFF94FFE0
4FFFFFFFFFD0
5FFE5DFFFF80
2FFD01BFFB10
044300022000
0004BBBA0000
0006FFFE0000
0006FFFE0000
0006FFFE0000
0006FFFE0000
0006FFFE0000
0006FFFE0000
0006FFFE0000
0006FFFE0000
0006FFFE0000
0006FFFE0000
0006FFFE0000
0006FFFE0000
0006FFFE0000
0006FFFE0000
0006FFFE0000
0006FFFE0000
ENDCHAR
STARTCHAR Imacron
ENCODING 298
SWIDTH 270 0
DWIDTH 9 0
BBX 9 28 0 0
BITMAP
4666666620
AFFFFFFF40
AFFFFFFF40
8DDDDDDD30
0000000000
0066663000
00EFFF8000
00EFFF8000
00EFFF8000
00EFFF8000
00EFFF8000
00EFFF8000
00EFFF8000
00EFFF8000
00EFFF8000
00EFFF8000
00EFFF8000
00EFFF8000
00EFFF8000
00EFFF8000
00EFFF8000
00EFFF8000
00EFFF8000
00EFFF8000
00EFFF8000
00EFFF8000
00EFFF8000
00EFFF8000
ENDCHAR
STARTCHAR imacron
ENCODING 299
SWIDTH 235 0
DWIDTH 8 0
BBX 9 22 -1 0
BITMAP
1666666650
2FFFFFFFC0
2FFFFFFFC0
2DDDDDDDA0
0000000000
004BBBA000
006FFFE000
006FFFE000
006FFFE000
006FFFE000
006FFFE000
006FFFE000
006FFFE000
006FFFE000
006FFFE000
006FFFE000
006FFFE000
006FFFE000
006FFFE000
006FFFE000
006FFFE000
006FFFE000
ENDCHAR
STARTCHAR Ibreve
ENCODING 300
SWIDTH 270 0
DWIDTH 9 0
BBX 8 29 0 0
BITMAP
0AB809B7
2FFC1DFD
0EFFFFFC
06FFFFF4
0039B930
00000000
00666630
00EFFF80
00EFFF80
00EFFF80
00EFFF80
00EFFF80
00EFFF80
00EFFF80
00EFFF80
00EFFF80
00EFFF80
00EFFF80
00EFFF80
00EFFF80
00EFFF80
00EFFF80
00EFFF80
00EFFF80
00EFFF80
00EFFF80
00EFFF80
00EFFF80
00EFFF80
ENDCHAR
STARTCHAR ibreve
ENCODING 301
SWIDTH 235 0
DWIDTH 8 0
BBX 8 23 0 0
BITMAP
6BB15BB1
BFF38FF4
9FFFFFF3
1DFFFFA0
018BA600
00000000
04BBBA00
06FFFE00
06FFFE00
06FFFE00
06FFFE00
06FFFE00
06FFFE00
06FFFE00
06FFFE00
06FFFE00
06FFFE00
06FFFE00
06FFFE00
06FFFE00
06FFFE00
06FFFE00
06FFFE00
ENDCHAR
STARTCHAR Iogonek
ENCODING 302
SWIDTH 270 0
DWIDTH 9 0
BBX 7 29 1 -6
BITMAP
06666300
0EFFF800
0EFFF800
0EFFF800
0EFFF800
0EFFF800
0EFFF800
0EFFF800
0EFFF800
0EFFF800
0EFFF800
0EFFF800
0EFFF800
0EFFF800
0EFFF800
0EFFF800
0EFFF800
0EFFF800
0EFFF800
0EFFF800
0EFFF800
0EFFF800
0EFFF800
0BFB0000
9FF30000
EFF6B400
DFFFFE40
4FFFFE50
039A7100
ENDCHAR
STARTCHAR iogonek
ENCODING 303
SWIDTH 235 0
DWIDTH 8 0
BBX 8 31 0 -6
BITMAP
00010000
02BFE700
0BFFFF50
0FFFFF90
0EFFFF70
06FFFD10
00376100
00000000
04BBBA00
06FFFE00
06FFFE00
06FFFE00
06FFFE00
06FFFE00
06FFFE00
06FFFE00
06FFFE00
06FFFE00
06FFFE00
06FFFE00
06FFFE00
06FFFE00
06FFFE00
06FFFE00
06FFFE00
03EF6000
1DFC0000
4FFC6B10
3FFFFFC1
0AFFFFC2
005A9500
ENDCHAR
STARTCHAR Idotaccent
ENCODING 304
SWIDTH 270 0
DWIDTH 9 0
BBX 5 29 2 0
BITMAP
002000
3EFA00
9FFF30
8FFF20
19C600
000000
666630
EFFF80
EFFF80
EFFF80
EFFF80
EFFF80
EFFF80
EFFF80
EFFF80
EFFF80
EFFF80
EFFF80
EFFF80
EFFF80
EFFF80
EFFF80
EFFF80
EFFF80
EFFF80
EFFF80
EFFF80
EFFF80
EFFF80
ENDCHAR
STARTCHAR dotlessi
ENCODING 305
SWIDTH 235 0
DWIDTH 8 0
BBX 5 17 1 0
BITMAP
4BBBA0
6FFFE0
6FFFE0
6FFFE0
6FFFE0
6FFFE0
6FFFE0
6FFFE0
6FFFE0
6FFFE0
6FFFE0
6FFFE0
6FFFE0
6FFFE0
6FFFE0
6FFFE0
6FFFE0
ENDCHAR
STARTCHAR IJ
ENCODING 306
SWIDTH 687 0
DWIDTH 22 0
BBX 19 23 2 0
BITMAP
66663000000002666610
EFFF8000000005FFFF20
EFFF8000000005FFFF20
EFFF8000000005FFFF20
EFFF8000000005FFFF20
EFFF8000000005FFFF20
EFFF8000000005FFFF20
EFFF8000000005FFFF20
EFFF8000000005FFFF20
EFFF8000000005FFFF20
EFFF8000000005FFFF20
EFFF8000000005FFFF20
EFFF8000000005FFFF20
EFFF8000000005FFFF20
EFFF8000000005FFFF20
EFFF8000000009FFFF00
EFFF800000002EFFFC00
EFFF80000003DFFFF700
EFFF801D98AFFFFFD100
EFFF801FFFFFFFFF4000
EFFF801FFFFFFFF60000
EFFF801FFFFFFD400000
EFFF800CEFDA50000000
ENDCHAR
STARTCHAR ij
ENCODING 307
SWIDTH 474 0
DWIDTH 15 0
BBX 14 32 1 -7
BITMAP
00100000001000
2BFE70005EFD30
BFFFF502FFFFD0
FFFFF906FFFFF3
EFFFF705FFFFF1
6FFFD100BFFF80
03761000068400
00000000000000
4BBBA0009BBB60
6FFFE000CFFF80
6FFFE000CFFF80
6FFFE000CFFF80
6FFFE000CFFF80
6FFFE000CFFF80
6FFFE000CFFF80
6FFFE000CFFF80
6FFFE000CFFF80
6FFFE000CFFF80
6FFFE000CFFF80
6FFFE000CFFF80
6FFFE000CFFF80
6FFFE000CFFF80
6FFFE000CFFF80
6FFFE000DFFF70
6FFFE002FFFF50
0000000BFFFF10
000002BFFFFA00
03EDEFFFFFE200
03FFFFFFFF5000
03FFFFFFE40000
03FFFFE8200000
01665300000000
ENDCHAR
STARTCHAR Jcircumflex
ENCODING 308
SWIDTH 416 0
DWIDTH 13 0
BBX 14 30 0 0
BITMAP
00000000010000
00000000AD2000
0000000BFFD300
000001BFFFFE30
00000CFFFDFFE3
000006FF51CFC0
00000074001A20
00000006666300
0000000EFFF800
0000000EFFF800
0000000EFFF800
0000000EFFF800
0000000EFFF800
0000000EFFF800
0000000EFFF800
0000000EFFF800
0000000EFFF800
0000000EFFF800
0000000EFFF800
0000000EFFF800
0000000EFFF800
0000000FFFF700
0000003FFFF600
000000BFFFF200
00001AFFFFC000
AA89EFFFFF4000
AFFFFFFFF90000
AFFFFFFFB00000
AFFFFFE7000000
8EFEC710000000
ENDCHAR
STARTCHAR jcircumflex
ENCODING 309
SWIDTH 237 0
DWIDTH 8 0
BBX 13 32 -5 -7
BITMAP
00000000100000
00000002D90000
0000003EFFA000
000003EFFFFB10
00003EFFDFFFC0
00000BFD24EF70
00000191003900
00000000000000
0000004BBBB000
0000005FFFF000
0000005FFFF000
0000005FFFF000
0000005FFFF000
0000005FFFF000
0000005FFFF000
0000005FFFF000
0000005FFFF000
0000005FFFF000
0000005FFFF000
0000005FFFF000
0000005FFFF000
0000005FFFF000
0000005FFFF000
0000006FFFE000
000000BFFFC000
000005FFFF8000
00017FFFFF2000
AEEFFFFFF80000
BFFFFFFFB00000
BFFFFFF9100000
BFFFFB40000000
46542000000000
ENDCHAR
STARTCHAR Kcommaaccent
ENCODING 310
SWIDTH 625 0
DWIDTH 20 0
BBX 18 32 2 -9
BITMAP
666630000000166665
EFFF80000000BFFFF5
EFFF80000008FFFF90
EFFF8000004FFFFC00
EFFF800001EFFFE200
EFFF80000BFFFF5000
EFFF80007FFFF90000
EFFF8004FFFFC00000
EFFF801EFFFE200000
EFFF80BFFFF5000000
EFFF87FFFFF3000000
EFFFCFFFFFFB000000
EFFFFFFFFFFF400000
EFFFFFFFFFFFC00000
EFFFFFF8BFFFF50000
EFFFFFC03FFFFD0000
EFFFFE2009FFFF7000
EFFFF50002FFFFE100
EFFFA000008FFFF800
EFFF8000001EFFFF20
EFFF80000007FFFFA0
EFFF80000000DFFFF3
EFFF800000006FFFFB
000000000000000000
000000055000000000
000000BFFA00000000
000002FFFF10000000
000000EFFF10000000
0000003CFD00000000
0000000AF700000000
0000000BC100000000
000000001000000000
ENDCHAR
STARTCHAR kcommaaccent
ENCODING 311
SWIDTH 539 0
DWIDTH 17 0
BBX 16 33 1 -9
BITMAP
2666500000000000
6FFFE00000000000
6FFFE00000000000
6FFFE00000000000
6FFFE00000000000
6FFFE00000000000
6FFFE00000000000
6FFFE000001ABBB9
6FFFE00000AFFFF4
6FFFE00007FFFF60
6FFFE0004FFFFA00
6FFFE002EFFFC100
6FFFE00CFFFE2000
6FFFE09FFFF40000
6FFFE6FFFFC00000
6FFFFFFFFFF50000
6FFFFFFFFFFD0000
6FFFFFFFFFFF7000
6FFFFFF7CFFFE100
6FFFFFA04FFFF900
6FFFFD100AFFFF30
6FFFF30002FFFFB0
6FFFE000008FFFF5
6FFFE000001EFFFD
0000000000000000
0000002630000000
000002EFF5000000
000007FFFA000000
000005FFFA000000
0000007EF7000000
0000001EF2000000
0000003E70000000
0000000100000000
ENDCHAR
STARTCHAR kgreenlandic
ENCODING 312
SWIDTH 539 0
DWIDTH 17 0
BBX 16 17 1 0
BITMAP
5CCCB000001ABBB9
6FFFE00000AFFFF4
6FFFE00007FFFF60
6FFFE0004FFFFA00
6FFFE002EFFFC100
6FFFE00CFFFE2000
6FFFE09FFFF40000
6FFFE6FFFFC00000
6FFFFFFFFFF50000
6FFFFFFFFFFD0000
6FFFFFFFFFFF7000
6FFFFFF7CFFFE100
6FFFFFA04FFFF900
6FFFFD100AFFFF30
6FFFF30002FFFFB0
6FFFE000008FFFF5
6FFFE000001EFFFD
ENDCHAR
STARTCHAR Lacute
ENCODING 313
SWIDTH 562 0
DWIDTH 18 0
BBX 16 29 2 0
BITMAP
0000000002000000
000000009E200000
0000000AFFC00000
000001BFFFF90000
00001BFFFFB20000
00001DFFE6000000
666633E910000000
EFFF801000000000
EFFF800000000000
EFFF800000000000
EFFF800000000000
EFFF800000000000
EFFF800000000000
EFFF800000000000
EFFF800000000000
EFFF800000000000
EFFF800000000000
EFFF800000000000
EFFF800000000000
EFFF800000000000
EFFF800000000000
EFFF800000000000
EFFF800000000000
EFFF800000000000
EFFFC77777777776
EFFFFFFFFFFFFFFC
EFFFFFFFFFFFFFFC
EFFFFFFFFFFFFFFC
EFFFFFFFFFFFFFFC
ENDCHAR
STARTCHAR lacute
ENCODING 314
SWIDTH 235 0
DWIDTH 8 0
BBX 10 32 1 0
BITMAP
0000002000
000004E600
00005FFE30
0006FFFFD1
007FFFFE50
008FFF9100
000BC40000
0001000000
2666500000
6FFFE00000
6FFFE00000
6FFFE00000
6FFFE00000
6FFFE00000
6FFFE00000
6FFFE00000
6FFFE00000
6FFFE00000
6FFFE00000
6FFFE00000
6FFFE00000
6FFFE00000
6FFFE00000
6FFFE00000
6FFFE00000
6FFFE00000
6FFFE00000
6FFFE00000
6FFFE00000
6FFFE00000
6FFFE00000
6FFFE00000
ENDCHAR
STARTCHAR Lcommaaccent
ENCODING 315
SWIDTH 562 0
DWIDTH 18 0
BBX 16 32 2 -9
BITMAP
6666300000000000
EFFF800000000000
EFFF800000000000
EFFF800000000000
EFFF800000000000
EFFF800000000000
EFFF800000000000
EFFF800000000000
EFFF800000000000
EFFF800000000000
EFFF800000000000
EFFF800000000000
EFFF800000000000
EFFF800000000000
EFFF800000000000
EFFF800000000000
EFFF800000000000
EFFF800000000000
EFFFC77777777776
EFFFFFFFFFFFFFFC
EFFFFFFFFFFFFFFC
EFFFFFFFFFFFFFFC
EFFFFFFFFFFFFFFC
0000000000000000
0000005500000000
00000BFFB0000000
00002FFFF1000000
00000EFFF1000000
000003CFD0000000
000000AF70000000
000000BC10000000
0000000100000000
ENDCHAR
STARTCHAR lcommaaccent
ENCODING 316
SWIDTH 235 0
DWIDTH 8 0
BBX 5 33 1 -9
BITMAP
266650
6FFFE0
6FFFE0
6FFFE0
6FFFE0
6FFFE0
6FFFE0
6FFFE0
6FFFE0
6FFFE0
6FFFE0
6FFFE0
6FFFE0
6FFFE0
6FFFE0
6FFFE0
6FFFE0
6FFFE0
6FFFE0
6FFFE0
6FFFE0
6FFFE0
6FFFE0
6FFFE0
000000
016400
1DFF70
5FFFD0
2FFFD0
05DF90
00DF40
02DA00
001000
ENDCHAR
STARTCHAR Lcaron
ENCODING 317
SWIDTH 562 0
DWIDTH 18 0
BBX 16 23 2 0
BITMAP
6666300263000000
EFFF802EFF400000
EFFF807FFFA00000
EFFF805FFFA00000
EFFF8007EF700000
EFFF8001EF200000
EFFF8004E7000000
EFFF800010000000
EFFF800000000000
EFFF800000000000
EFFF800000000000
EFFF800000000000
EFFF800000000000
EFFF800000000000
EFFF800000000000
EFFF800000000000
EFFF800000000000
EFFF800000000000
EFFFC77777777776
EFFFFFFFFFFFFFFC
EFFFFFFFFFFFFFFC
EFFFFFFFFFFFFFFC
EFFFFFFFFFFFFFFC
ENDCHAR
STARTCHAR lcaron
ENCODING 318
SWIDTH 369 0
DWIDTH 12 0
BBX 11 24 1 0
BITMAP
266650000000
6FFFE0016300
6FFFE01EFF50
6FFFE06FFFB0
6FFFE04FFFB0
6FFFE007EF80
6FFFE001EF30
6FFFE003E800
6FFFE0001000
6FFFE0000000
6FFFE0000000
6FFFE0000000
6FFFE0000000
6FFFE0000000
6FFFE0000000
6FFFE0000000
6FFFE0000000
6FFFE0000000
6FFFE0000000
6FFFE0000000
6FFFE0000000
6FFFE0000000
6FFFE0000000
6FFFE0000000
ENDCHAR
STARTCHAR Ldot
ENCODING 319
SWIDTH 745 0
DWIDTH 24 0
BBX 21 23 2 0
BITMAP
6666300000000000000000
EFFF800000000000000000
EFFF800000000000000000
EFFF800000000000000000
EFFF800000000000000000
EFFF800000000000000000
EFFF800000000000000000
EFFF800000000000000000
EFFF800000000000000000
EFFF8000000000008CA200
EFFF800000000009FFFD10
EFFF80000000000EFFFF40
EFFF80000000000DFFFF30
EFFF800000000005FFFA00
EFFF800000000000364000
EFFF800000000000000000
EFFF800000000000000000
EFFF800000000000000000
EFFFC77777777776000000
EFFFFFFFFFFFFFFC000000
EFFFFFFFFFFFFFFC000000
EFFFFFFFFFFFFFFC000000
EFFFFFFFFFFFFFFC000000
ENDCHAR
STARTCHAR ldotaccent
ENCODING 320
SWIDTH 463 0
DWIDTH 15 0
BBX 13 24 1 0
BITMAP
26665000000000
6FFFE000000000
6FFFE000000000
6FFFE000000000
6FFFE000000000
6FFFE000000000
6FFFE000000000
6FFFE000000000
6FFFE000000000
6FFFE000000000
6FFFE0008CA200
6FFFE009FFFD10
6FFFE00EFFFF40
6FFFE00DFFFF30
6FFFE005FFFA00
6FFFE000365000
6FFFE000000000
6FFFE000000000
6FFFE000000000
6FFFE000000000
6FFFE000000000
6FFFE000000000
6FFFE000000000
6FFFE000000000
ENDCHAR
STARTCHAR Lslash
ENCODING 321
SWIDTH 585 0
DWIDTH 19 0
BBX 19 23 0 0
BITMAP
00166662000000000000
003FFFF4000000000000
003FFFF4000000000000
003FFFF4000000000000
003FFFF4000000000000
003FFFF4000000000000
003FFFF4000000000000
003FFFF44A0000000000
003FFFFDFD0000000000
003FFFFFFD0000000000
003FFFFFFD0000000000
18EFFFFFE60000000000
BFFFFFF9100000000000
BFFFFFF4000000000000
BFFFFFF4000000000000
BB6FFFF4000000000000
203FFFF4000000000000
003FFFF4000000000000
003FFFFA777777777740
003FFFFFFFFFFFFFFF80
003FFFFFFFFFFFFFFF80
003FFFFFFFFFFFFFFF80
003FFFFFFFFFFFFFFF80
ENDCHAR
STARTCHAR lslash
ENCODING 322
SWIDTH 319 0
DWIDTH 10 0
BBX 10 24 0 0
BITMAP
0016666100
002FFFF300
002FFFF300
002FFFF300
002FFFF300
002FFFF300
002FFFF300
002FFFF300
002FFFF34A
002FFFFCFE
002FFFFFFE
003FFFFFFE
17EFFFFFE7
AFFFFFF910
AFFFFFF300
AFFFFFF300
AB5FFFF300
202FFFF300
002FFFF300
002FFFF300
002FFFF300
002FFFF300
002FFFF300
002FFFF300
ENDCHAR
STARTCHAR Nacute
ENCODING 323
SWIDTH 689 0
DWIDTH 22 0
BBX 18 30 2 0
BITMAP
000000000002000000
00000000003E800000
0000000004EFF50000
000000004EFFFE2000
00000005FFFFE70000
00000006FFFA200000
00000000AD50000000
666660001100036666
EFFFF600000007FFFF
EFFFFE10000007FFFF
EFFFFF90000007FFFF
EFFFFFF3000007FFFF
EFFFFFFB000007FFFF
EFFFFFFF500007FFFF
EFFFFFFFD10007FFFF
EFFFDFFFF80007FFFF
EFFF8BFFFE2007FFFF
EFFF82FFFFA007FFFF
EFFF808FFFF407FFFF
EFFF801EFFFC07FFFF
EFFF8005FFFF67FFFF
EFFF8000CFFFE8FFFF
EFFF80003FFFFEFFFF
EFFF800009FFFFFFFF
EFFF800001EFFFFFFF
EFFF8000007FFFFFFF
EFFF8000000CFFFFFF
EFFF80000004FFFFFF
EFFF80000000AFFFFF
EFFF800000002FFFFF
ENDCHAR
STARTCHAR nacute
ENCODING 324
SWIDTH 562 0
DWIDTH 18 0
BBX 16 26 1 0
BITMAP
0000000000020000
00000000006F4000
0000000007FFE200
000000008FFFFC00
00000009FFFFD400
0000000AFFF81000
00000001DC300000
0000000010000000
0000000000000000
4A1028DFFE930000
6FB7FFFFFFFF9000
6FFFFFFFFFFFFA00
6FFFFFFFFFFFFF60
6FFFFFB559FFFFE0
6FFFF900006FFFF4
6FFFF100000DFFF7
6FFFE000000BFFF9
6FFFD000000AFFF9
6FFFD000000AFFF9
6FFFD000000AFFF9
6FFFD000000AFFF9
6FFFD000000AFFF9
6FFFD000000AFFF9
6FFFD000000AFFF9
6FFFD000000AFFF9
6FFFD000000AFFF9
ENDCHAR
STARTCHAR Ncommaaccent
ENCODING 325
SWIDTH 689 0
DWIDTH 22 0
BBX 18 32 2 -9
BITMAP
666660000000036666
EFFFF600000007FFFF
EFFFFE10000007FFFF
EFFFFF90000007FFFF
EFFFFFF3000007FFFF
EFFFFFFB000007FFFF
EFFFFFFF500007FFFF
EFFFFFFFD10007FFFF
EFFFDFFFF80007FFFF
EFFF8BFFFE2007FFFF
EFFF82FFFFA007FFFF
EFFF808FFFF407FFFF
EFFF801EFFFC07FFFF
EFFF8005FFFF67FFFF
EFFF8000CFFFE8FFFF
EFFF80003FFFFEFFFF
EFFF800009FFFFFFFF
EFFF800001EFFFFFFF
EFFF8000007FFFFFFF
EFFF8000000CFFFFFF
EFFF80000004FFFFFF
EFFF80000000AFFFFF
EFFF800000002FFFFF
000000000000000000
000000005600000000
0000000AFFB0000000
0000001FFFF2000000
0000000DFFF2000000
00000003CFD0000000
000000009F80000000
00000000AD10000000
000000000100000000
ENDCHAR
STARTCHAR ncommaaccent
ENCODING 326
SWIDTH 562 0
DWIDTH 18 0
BBX 16 26 1 -9
BITMAP
4A1028DFFE930000
6FB7FFFFFFFF9000
6FFFFFFFFFFFFA00
6FFFFFFFFFFFFF60
6FFFFFB559FFFFE0
6FFFF900006FFFF4
6FFFF100000DFFF7
6FFFE000000BFFF9
6FFFD000000AFFF9
6FFFD000000AFFF9
6FFFD000000AFFF9
6FFFD000000AFFF9
6FFFD000000AFFF9
6FFFD000000AFFF9
6FFFD000000AFFF9
6FFFD000000AFFF9
6FFFD000000AFFF9
0000000000000000
0000000550000000
000000BFFB000000
000002FFFF100000
000000EFFF100000
0000003CFD000000
0000000AF7000000
0000000BC1000000
0000000010000000
ENDCHAR
STARTCHAR Ncaron
ENCODING 327
SWIDTH 689 0
DWIDTH 22 0
BBX 18 30 2 0
BITMAP
000000500004000000
000005FA00AF400000
00001EFFBBFFE10000
000005FFFFFF600000
0000004EFFF5000000
00000003EF50000000
000000002400000000
666660000000036666
EFFFF600000007FFFF
EFFFFE10000007FFFF
EFFFFF90000007FFFF
EFFFFFF3000007FFFF
EFFFFFFB000007FFFF
EFFFFFFF500007FFFF
EFFFFFFFD10007FFFF
EFFFDFFFF80007FFFF
EFFF8BFFFE2007FFFF
EFFF82FFFFA007FFFF
EFFF808FFFF407FFFF
EFFF801EFFFC07FFFF
EFFF8005FFFF67FFFF
EFFF8000CFFFE8FFFF
EFFF80003FFFFEFFFF
EFFF800009FFFFFFFF
EFFF800001EFFFFFFF
EFFF8000007FFFFFFF
EFFF8000000CFFFFFF
EFFF80000004FFFFFF
EFFF80000000AFFFFF
EFFF800000002FFFFF
ENDCHAR
STARTCHAR ncaron
ENCODING 328
SWIDTH 562 0
DWIDTH 18 0
BBX 16 25 1 0
BITMAP
0000050000300000
00006FA01BF40000
0001FFFBBFFE1000
00006FFFFFF50000
000004EFFF500000
0000003EE4000000
0000000240000000
0000000000000000
4A1028DFFE930000
6FB7FFFFFFFF9000
6FFFFFFFFFFFFA00
6FFFFFFFFFFFFF60
6FFFFFB559FFFFE0
6FFFF900006FFFF4
6FFFF100000DFFF7
6FFFE000000BFFF9
6FFFD000000AFFF9
6FFFD000000AFFF9
6FFFD000000AFFF9
6FFFD000000AFFF9
6FFFD000000AFFF9
6FFFD000000AFFF9
6FFFD000000AFFF9
6FFFD000000AFFF9
6FFFD000000AFFF9
ENDCHAR
STARTCHAR napostrophe
ENCODING 329
SWIDTH 694 0
DWIDTH 22 0
BBX 21 23 0 0
BITMAP
0451000000000000000000
9FFC000000000000000000
EFFF300000000000000000
CFFF300000000000000000
2BFE000000000000000000
08F9000000000100000000
0AD201B3017CFFEB500000
001002FD5EFFFFFFFB1000
000002FFFFFFFFFFFFD100
000002FFFFFFFFFFFFFA00
000002FFFFFD647EFFFF30
000002FFFFC10003FFFF80
000002FFFF500000AFFFB0
000002FFFF2000007FFFC0
000002FFFF2000007FFFC0
000002FFFF2000007FFFC0
000002FFFF2000007FFFC0
000002FFFF2000007FFFC0
000002FFFF2000007FFFC0
000002FFFF2000007FFFC0
000002FFFF2000007FFFC0
000002FFFF2000007FFFC0
000002FFFF2000007FFFC0
ENDCHAR
STARTCHAR Eng
ENCODING 330
SWIDTH 689 0
DWIDTH 22 0
BBX 18 30 2 -7
BITMAP
666660000000036666
EFFFF600000007FFFF
EFFFFE10000007FFFF
EFFFFF90000007FFFF
EFFFFFF3000007FFFF
EFFFFFFB000007FFFF
EFFFFFFF500007FFFF
EFFFFFFFD10007FFFF
EFFFDFFFF80007FFFF
EFFF8BFFFE2007FFFF
EFFF82FFFFA007FFFF
EFFF808FFFF407FFFF
EFFF801EFFFC07FFFF
EFFF8006FFFF67FFFF
EFFF8000CFFFE8FFFF
EFFF80003FFFFEFFFF
EFFF800009FFFFFFFF
EFFF800001EFFFFFFF
EFFF8000007FFFFFFF
EFFF8000000DFFFFFF
EFFF80000004FFFFFF
EFFF80000000BFFFFD
EFFF800000003FFFFB
000000000001BFFFF6
00000026225DFFFFE1
0000003FFFFFFFFF60
0000003FFFFFFFF900
0000003FFFFFFF8000
0000003FFFFFA30000
000000046541000000
ENDCHAR
STARTCHAR eng
ENCODING 331
SWIDTH 562 0
DWIDTH 18 0
BBX 16 24 1 -7
BITMAP
4A1028DFFE930000
6FB7FFFFFFFF9000
6FFFFFFFFFFFFA00
6FFFFFFFFFFFFF60
6FFFFFB559FFFFE0
6FFFF900006FFFF4
6FFFF100000DFFF7
6FFFE000000BFFF9
6FFFD000000AFFF9
6FFFD000000AFFF9
6FFFD000000BFFF9
6FFFD000000BFFF9
6FFFD000000BFFF9
6FFFD000000BFFF9
6FFFD000000BFFF9
6FFFD000000CFFF8
6FFFD000002FFFF6
0000000000AFFFF2
000000002BFFFFB0
00002EEEFFFFFF30
00002FFFFFFFF500
00002FFFFFFE5000
00002FFFFE920000
0000166530000000
ENDCHAR
STARTCHAR Omacron
ENCODING 332
SWIDTH 777 0
DWIDTH 25 0
BBX 24 29 0 -1
BITMAP
000000003666666620000000
000000008FFFFFFF60000000
000000008FFFFFFF60000000
000000007DDDDDDD50000000
000000000000000000000000
000000000479A97400000000
00000018EFFFFFFFE8100000
000005EFFFFFFFFFFFE40000
00007FFFFFFFFFFFFFFF6000
0007FFFFFFFDCDFFFFFFF500
003FFFFFE7100027EFFFFE20
00CFFFFB100000002CFFFFA0
04FFFFC10000000001DFFFF2
09FFFF3000000000005FFFF7
0DFFFB0000000000000DFFFB
1FFFF700000000000009FFFE
2FFFF500000000000007FFFF
2FFFF600000000000007FFFF
0FFFF80000000000000AFFFE
0CFFFD0000000000000EFFFB
08FFFF5000000000007FFFF6
03FFFFE20000000003FFFFF1
00AFFFFE400000005EFFFF80
002EFFFFFA51025BFFFFFD10
0004FFFFFFFFFFFFFFFFE300
00004EFFFFFFFFFFFFFE3000
000003CFFFFFFFFFFFB20000
00000005CFFFFFFFB5000000
000000000156764100000000
ENDCHAR
STARTCHAR omacron
ENCODING 333
SWIDTH 579 0
DWIDTH 19 0
BBX 18 24 0 -1
BITMAP
000004666666610000
00000AFFFFFFF30000
00000AFFFFFFF30000
000009DDDDDDD30000
000000000000000000
000000034541000000
000007DFFFFFB40000
0002DFFFFFFFFF9000
002EFFFFFFFFFFFA00
00CFFFFFFFFFFFFF60
06FFFFD50029FFFFE1
0CFFFE2000008FFFF5
1FFFF70000001EFFF9
3FFFF200000009FFFB
4FFFF100000008FFFC
3FFFF200000009FFFB
1FFFF80000001EFFF8
0CFFFF3000009FFFF4
05FFFFE6103AFFFFD0
00CFFFFFFFFFFFFF40
002EFFFFFFFFFFF800
0002CFFFFFFFFF7000
000006CFFFFEA20000
000000024430000000
ENDCHAR
STARTCHAR Obreve
ENCODING 334
SWIDTH 777 0
DWIDTH 25 0
BBX 24 30 0 -1
BITMAP
0000000009B908B900000000
000000000FFD1CFF00000000
000000000DFFFFFE00000000
0000000004FFFFF600000000
000000000039BA4000000000
000000000000000000000000
000000000479A97400000000
00000018EFFFFFFFE8100000
000005EFFFFFFFFFFFE40000
00007FFFFFFFFFFFFFFF6000
0007FFFFFFFDCDFFFFFFF500
003FFFFFE7100027EFFFFE20
00CFFFFB100000002CFFFFA0
04FFFFC10000000001DFFFF2
09FFFF3000000000005FFFF7
0DFFFB0000000000000DFFFB
1FFFF700000000000009FFFE
2FFFF500000000000007FFFF
2FFFF600000000000007FFFF
0FFFF80000000000000AFFFE
0CFFFD0000000000000EFFFB
08FFFF5000000000007FFFF6
03FFFFE20000000003FFFFF1
00AFFFFE400000005EFFFF80
002EFFFFFA51025BFFFFFD10
0004FFFFFFFFFFFFFFFFE300
00004EFFFFFFFFFFFFFE3000
000003CFFFFFFFFFFFB20000
00000005CFFFFFFFB5000000
000000000156764100000000
ENDCHAR
STARTCHAR obreve
ENCODING 335
SWIDTH 579 0
DWIDTH 19 0
BBX 18 24 0 -1
BITMAP
000001AB70AB700000
000003FFB1EFC00000
000001FFFFFFB00000
0000006FFFFF400000
00000004AB93000000
000000034541000000
000007DFFFFFB40000
0002DFFFFFFFFF9000
002EFFFFFFFFFFFA00
00CFFFFFFFFFFFFF60
06FFFFD50029FFFFE1
0CFFFE2000008FFFF5
1FFFF70000001EFFF9
3FFFF200000009FFFB
4FFFF100000008FFFC
3FFFF200000009FFFB
1FFFF80000001EFFF8
0CFFFF3000009FFFF4
05FFFFE6103AFFFFD0
00CFFFFFFFFFFFFF40
002EFFFFFFFFFFF800
0002CFFFFFFFFF7000
000006CFFFFEA20000
000000024430000000
ENDCHAR
STARTCHAR Ohungarumlaut
ENCODING 336
SWIDTH 777 0
DWIDTH 25 0
BBX 24 32 0 -1
BITMAP
00000000000A400001000000
00000000008FF5008C100000
0000000004FFFF55FFC20000
000000002EFFFC4EFFFC0000
00000000BFFFB1CFFFD20000
00000001BFF909FFFC100000
000000001B7003EFA1000000
000000000000002800000000
000000000479A97400000000
00000018EFFFFFFFE8100000
000005EFFFFFFFFFFFE40000
00007FFFFFFFFFFFFFFF6000
0007FFFFFFFDCDFFFFFFF500
003FFFFFE7100027EFFFFE20
00CFFFFB100000002CFFFFA0
04FFFFC10000000001DFFFF2
09FFFF3000000000005FFFF7
0DFFFB0000000000000DFFFB
1FFFF700000000000009FFFE
2FFFF500000000000007FFFF
2FFFF600000000000007FFFF
0FFFF80000000000000AFFFE
0CFFFD0000000000000EFFFB
08FFFF5000000000007FFFF6
03FFFFE20000000003FFFFF1
00AFFFFE400000005EFFFF80
002EFFFFFA51025BFFFFFD10
0004FFFFFFFFFFFFFFFFE300
00004EFFFFFFFFFFFFFE3000
000003CFFFFFFFFFFFB20000
00000005CFFFFFFFB5000000
000000000156764100000000
ENDCHAR
STARTCHAR ohungarumlaut
ENCODING 337
SWIDTH 579 0
DWIDTH 19 0
BBX 18 26 0 -1
BITMAP
00000000B300010000
00000009FE400AB100
0000005FFFF46FFC10
000002EFFFC4FFFFB0
00000CFFFA1DFFFC20
00001CFF80AFFFB100
000001C6004EF90000
000000034544700000
000007DFFFFFB40000
0002DFFFFFFFFF9000
002EFFFFFFFFFFFA00
00CFFFFFFFFFFFFF60
06FFFFD50029FFFFE1
0CFFFE2000008FFFF5
1FFFF70000001EFFF9
3FFFF200000009FFFB
4FFFF100000008FFFC
3FFFF200000009FFFB
1FFFF80000001EFFF8
0CFFFF3000009FFFF4
05FFFFE6103AFFFFD0
00CFFFFFFFFFFFFF40
002EFFFFFFFFFFF800
0002CFFFFFFFFF7000
000006CFFFFEA20000
000000024430000000
ENDCHAR
STARTCHAR OE
ENCODING 338
SWIDTH 1125 0
DWIDTH 36 0
BBX 35 24 0 -1
BITMAP
000000000479A97400026666666666666660
00000018EFFFFFFFE716FFFFFFFFFFFFFFF0
000005EFFFFFFFFFFFD9FFFFFFFFFFFFFFF0
00007FFFFFFFFFFFFFFFFFFFFFFFFFFFFFF0
0007FFFFFFFDCDFFFFFFFFFFFFFFFFFFFFF0
003FFFFFE7100027EFFFFFFF211111111110
00CFFFFB100000002CFFFFFF100000000000
04FFFFC10000000001DFFFFF100000000000
09FFFF3000000000005FFFFF100000000000
0DFFFB0000000000000DFFFF777777730000
1FFFF700000000000009FFFFFFFFFFF70000
2FFFF500000000000007FFFFFFFFFFF70000
2FFFF600000000000007FFFFFFFFFFF70000
0FFFF80000000000000AFFFFFFFFFFF70000
0CFFFD0000000000000EFFFF211111100000
08FFFF5000000000007FFFFF100000000000
03FFFFE20000000003FFFFFF100000000000
00AFFFFE400000005EFFFFFF100000000000
002EFFFFFA51025BFFFFFFFF877777777770
0004FFFFFFFFFFFFFFFFFFFFFFFFFFFFFFF0
00004EFFFFFFFFFFFFFFFFFFFFFFFFFFFFF0
000003CFFFFFFFFFFFB8FFFFFFFFFFFFFFF0
00000005CFFFFFFFB406FFFFFFFFFFFFFFF0
000000000156764100000000000000000000
ENDCHAR
STARTCHAR oe
ENCODING 339
SWIDTH 924 0
DWIDTH 30 0
BBX 29 19 0 -1
BITMAP
000000034541000000003553100000
000007DFFFFFB400019EFFFFE92000
0002DFFFFFFFFF905EFFFFFFFFE600
002EFFFFFFFFFFFCFFFFFFFFFFFF60
00CFFFFFFFFFFFFFFFFFFFFFFFFFC0
06FFFFD50029FFFFFFFC402EFFFE20
0CFFFE2000008FFFFFD100CFFFF400
1FFFF70000001EFFFF4008FFFF6000
3FFFF200000009FFFE004FFFF90000
4FFFF100000008FFFD02EFFFB00000
3FFFF200000009FFFE0CFFFD100000
1FFFF80000001EFFFFBFFFE2011000
0CFFFF3000009FFFFFFFFF400BC100
05FFFFE6103AFFFFFFFFF704BFFC10
00CFFFFFFFFFFFFFFFFFFFFFFFFFC0
002EFFFFFFFFFFFAFFFFFFFFFFFF50
0002CFFFFFFFFF704EFFFFFFFFE500
000006CFFFFEA200018DFFFFE81000
000000024431000000002442000000
ENDCHAR
STARTCHAR Racute
ENCODING 340
SWIDTH 651 0
DWIDTH 21 0
BBX 18 31 2 0
BITMAP
000000000011000000
0000000001CB000000
000000002DFF800000
00000002DFFFF50000
0000003EFFFF910000
0000003FFFC3000000
00000006E700000000
000000001000000000
666666666641000000
EFFFFFFFFFFFA30000
EFFFFFFFFFFFFF6000
EFFFFFFFFFFFFFF800
EFFFFFFFFFFFFFFF50
EFFF9111125CFFFFE1
EFFF80000000BFFFF6
EFFF800000001EFFFB
EFFF800000000AFFFE
EFFF8000000008FFFF
EFFF8000000009FFFE
EFFF800000001EFFFB
EFFF800000009FFFF7
EFFF8000003CFFFFF1
EFFFFEEEEFFFFFFF60
EFFFFFFFFFFFFFFA00
EFFFFFFFFFFFFF9000
EFFFFFFFFFFFFE1000
EFFFC8887AFFFF6000
EFFF800001EFFFC000
EFFF8000008FFFF400
EFFF8000002FFFFA00
EFFF8000000AFFFF20
ENDCHAR
STARTCHAR racute
ENCODING 341
SWIDTH 414 0
DWIDTH 13 0
BBX 12 25 1 0
BITMAP
000000002000
00000002D900
0000003EFF50
000004EFFFE3
00004FFFFF70
00005FFFB200
000009E50000
000000100000
4A00037ABBB9
6F82BFFFFFFD
6FFEFFFFFFFD
6FFFFFFFFFFD
6FFFFFEA8887
6FFFFC200000
6FFFF3000000
6FFFE0000000
6FFFD0000000
6FFFD0000000
6FFFD0000000
6FFFD0000000
6FFFD0000000
6FFFD0000000
6FFFD0000000
6FFFD0000000
6FFFD0000000
ENDCHAR
STARTCHAR Rcommaaccent
ENCODING 342
SWIDTH 651 0
DWIDTH 21 0
BBX 18 32 2 -9
BITMAP
666666666641000000
EFFFFFFFFFFFA30000
EFFFFFFFFFFFFF6000
EFFFFFFFFFFFFFF800
EFFFFFFFFFFFFFFF50
EFFF9111125CFFFFE1
EFFF80000000BFFFF6
EFFF800000001EFFFB
EFFF800000000AFFFE
EFFF8000000008FFFF
EFFF8000000009FFFE
EFFF800000001EFFFB
EFFF800000009FFFF7
EFFF8000003CFFFFF1
EFFFFEEEEFFFFFFF60
EFFFFFFFFFFFFFFA00
EFFFFFFFFFFFFF9000
EFFFFFFFFFFFFE1000
EFFFC8887AFFFF6000
EFFF800001EFFFC000
EFFF8000008FFFF400
EFFF8000002FFFFA00
EFFF8000000AFFFF20
000000000000000000
000000036200000000
0000004FFF30000000
000000AFFF80000000
0000008FFF70000000
00000008FF40000000
00000003FD00000000
00000005E500000000
000000001000000000
ENDCHAR
STARTCHAR rcommaaccent
ENCODING 343
SWIDTH 414 0
DWIDTH 13 0
BBX 12 26 1 -9
BITMAP
4A00037ABBB9
6F82BFFFFFFD
6FFEFFFFFFFD
6FFFFFFFFFFD
6FFFFFEA8887
6FFFFC200000
6FFFF3000000
6FFFE0000000
6FFFD0000000
6FFFD0000000
6FFFD0000000
6FFFD0000000
6FFFD0000000
6FFFD0000000
6FFFD0000000
6FFFD0000000
6FFFD0000000
000000000000
026400000000
2EFF60000000
6FFFC0000000
4FFFB0000000
06EF80000000
01EF30000000
03D800000000
001000000000
ENDCHAR
STARTCHAR Rcaron
ENCODING 344
SWIDTH 651 0
DWIDTH 21 0
BBX 18 30 2 0
BITMAP
000003200030000000
00001DE305FA000000
00009FFE8FFF700000
00001CFFFFFB100000
000001BFFFA0000000
0000000AFA00000000
000000006000000000
666666666641000000
EFFFFFFFFFFFA30000
EFFFFFFFFFFFFF6000
EFFFFFFFFFFFFFF800
EFFFFFFFFFFFFFFF50
EFFF9111125CFFFFE1
EFFF80000000BFFFF6
EFFF800000001EFFFB
EFFF800000000AFFFE
EFFF8000000008FFFF
EFFF8000000009FFFE
EFFF800000001EFFFB
EFFF800000009FFFF7
EFFF8000003CFFFFF1
EFFFFEEEEFFFFFFF60
EFFFFFFFFFFFFFFA00
EFFFFFFFFFFFFF9000
EFFFFFFFFFFFFE1000
EFFFC8887AFFFF6000
EFFF800001EFFFC000
EFFF8000008FFFF400
EFFF8000002FFFFA00
EFFF8000000AFFFF20
ENDCHAR
STARTCHAR rcaron
ENCODING 345
SWIDTH 414 0
DWIDTH 13 0
BBX 12 25 1 0
BITMAP
001400021000
00BF503EC100
06FFF8EFFA00
00AFFFFFD200
0009FFFC1000
00007FC10000
000005100000
000000000000
4A00037ABBB9
6F82BFFFFFFD
6FFEFFFFFFFD
6FFFFFFFFFFD
6FFFFFEA8887
6FFFFC200000
6FFFF3000000
6FFFE0000000
6FFFD0000000
6FFFD0000000
6FFFD0000000
6FFFD0000000
6FFFD0000000
6FFFD0000000
6FFFD0000000
6FFFD0000000
6FFFD0000000
ENDCHAR
STARTCHAR Sacute
ENCODING 346
SWIDTH 610 0
DWIDTH 20 0
BBX 19 31 0 0
BITMAP
00000000000011000000
000000000001CB000000
00000000002DFF800000
0000000002DFFFF50000
000000003EFFFF910000
000000003FFFC3000000
0000000006E700000000
00000000001000000000
00000156666666666500
0002AFFFFFFFFFFFFC00
003EFFFFFFFFFFFFFC00
01EFFFFFFFFFFFFFFC00
09FFFFFFFFFFFFFFFC00
0EFFFE52111111111100
2FFFF700000000000000
3FFFF500000000000000
2FFFF900000000000000
0DFFFFB7777763000000
06FFFFFFFFFFFFE60000
00BFFFFFFFFFFFFF9000
001AFFFFFFFFFFFFF700
00005BEFFFFFFFFFFE10
0000000111112BFFFF60
00000000000001EFFF90
00000000000000DFFFA0
00000000000003FFFF80
0077777777779EFFFF40
00FFFFFFFFFFFFFFFC00
00FFFFFFFFFFFFFFE300
00FFFFFFFFFFFFFE4000
00FFFFFFFFFFEC710000
ENDCHAR
STARTCHAR sacute
ENCODING 347
SWIDTH 523 0
DWIDTH 17 0
BBX 16 25 1 0
BITMAP
0000000000200000
0000000003E80000
000000003EFF5000
00000004EFFFE200
0000005FFFFE7000
0000006FFFB20000
00000009D5000000
0000000110000000
00059ABBBBBBBB00
02CFFFFFFFFFFF00
1DFFFFFFFFFFFF00
7FFFFFFFFFFFFF00
CFFFD88888888800
EFFF600000000000
DFFFB54444310000
9FFFFFFFFFFF9100
2EFFFFFFFFFFFD10
04EFFFFFFFFFFF90
0029DEEEEEFFFFE0
00000000004FFFF1
44444444449FFFF1
EFFFFFFFFFFFFFC0
EFFFFFFFFFFFFF40
EFFFFFFFFFFFF700
EFFFFFFFFFEB4000
ENDCHAR
STARTCHAR Scircumflex
ENCODING 348
SWIDTH 610 0
DWIDTH 20 0
BBX 19 30 0 0
BITMAP
00000000010000000000
000000003E8000000000
00000003EFF900000000
0000004EFFFFA1000000
000003FFFDFFFB000000
000000CFC15FF6000000
00000019100490000000
00000156666666666500
0002AFFFFFFFFFFFFC00
003EFFFFFFFFFFFFFC00
01EFFFFFFFFFFFFFFC00
09FFFFFFFFFFFFFFFC00
0EFFFE52111111111100
2FFFF700000000000000
3FFFF500000000000000
2FFFF900000000000000
0DFFFFB7777763000000
06FFFFFFFFFFFFE60000
00BFFFFFFFFFFFFF9000
001AFFFFFFFFFFFFF700
00005BEFFFFFFFFFFE10
0000000111112BFFFF60
00000000000001EFFF90
00000000000000DFFFA0
00000000000003FFFF80
0077777777779EFFFF40
00FFFFFFFFFFFFFFFC00
00FFFFFFFFFFFFFFE300
00FFFFFFFFFFFFFE4000
00FFFFFFFFFFEC710000
ENDCHAR
STARTCHAR scircumflex
ENCODING 349
SWIDTH 523 0
DWIDTH 17 0
BBX 16 25 1 0
BITMAP
0000000100000000
0000008E30000000
000008FFE4000000
00009FFFFF500000
0009FFFDFFF50000
0004FF70AFE20000
0000560009400000
0000000000000000
00059ABBBBBBBB00
02CFFFFFFFFFFF00
1DFFFFFFFFFFFF00
7FFFFFFFFFFFFF00
CFFFD88888888800
EFFF600000000000
DFFFB54444310000
9FFFFFFFFFFF9100
2EFFFFFFFFFFFD10
04EFFFFFFFFFFF90
0029DEEEEEFFFFE0
00000000004FFFF1
44444444449FFFF1
EFFFFFFFFFFFFFC0
EFFFFFFFFFFFFF40
EFFFFFFFFFFFF700
EFFFFFFFFFEB4000
ENDCHAR
STARTCHAR Scedilla
ENCODING 350
SWIDTH 610 0
DWIDTH 20 0
BBX 19 31 0 -8
BITMAP
00000156666666666500
0002AFFFFFFFFFFFFC00
003EFFFFFFFFFFFFFC00
01EFFFFFFFFFFFFFFC00
09FFFFFFFFFFFFFFFC00
0EFFFE52111111111100
2FFFF700000000000000
3FFFF500000000000000
2FFFF900000000000000
0DFFFFB7777763000000
06FFFFFFFFFFFFE60000
00BFFFFFFFFFFFFF9000
001AFFFFFFFFFFFFF700
00005BEFFFFFFFFFFE10
0000000111112BFFFF60
00000000000001EFFF90
00000000000000DFFFA0
00000000000003FFFF80
0077777777779EFFFF40
00FFFFFFFFFFFFFFFC00
00FFFFFFFFFFFFFFE300
00FFFFFFFFFFFFFE4000
00FFFFFFFFFFEC710000
000000000EE000000000
000000005FE800000000
000000009FFFA0000000
0000000301FFF0000000
0000001FBAFFF1000000
0000006FFFFFA0000000
00000019FFFA10000000
00000000131000000000
ENDCHAR
STARTCHAR scedilla
ENCODING 351
SWIDTH 523 0
DWIDTH 17 0
BBX 16 25 1 -8
BITMAP
00059ABBBBBBBB00
02CFFFFFFFFFFF00
1DFFFFFFFFFFFF00
7FFFFFFFFFFFFF00
CFFFD88888888800
EFFF600000000000
DFFFB54444310000
9FFFFFFFFFFF9100
2EFFFFFFFFFFFD10
04EFFFFFFFFFFF90
0029DEEEEEFFFFE0
00000000004FFFF1
44444444449FFFF1
EFFFFFFFFFFFFFC0
EFFFFFFFFFFFFF40
EFFFFFFFFFFFF700
EFFFFFFFFFEB4000
0000005F90000000
000000AFC5000000
000001EFFF400000
00001207FFA00000
00006E9DFFA00000
0000CFFFFF500000
00004CFFE7000000
0000002200000000
ENDCHAR
STARTCHAR Scaron
ENCODING 352
SWIDTH 610 0
DWIDTH 20 0
BBX 19 30 0 0
BITMAP
00000014000220000000
000000AF602DD1000000
000005FFF9EFFB000000
0000009FFFFFD2000000
00000008FFFD20000000
000000006FD200000000
00000000042000000000
00000156666666666500
0002AFFFFFFFFFFFFC00
003EFFFFFFFFFFFFFC00
01EFFFFFFFFFFFFFFC00
09FFFFFFFFFFFFFFFC00
0EFFFE52111111111100
2FFFF700000000000000
3FFFF500000000000000
2FFFF900000000000000
0DFFFFB7777763000000
06FFFFFFFFFFFFE60000
00BFFFFFFFFFFFFF9000
001AFFFFFFFFFFFFF700
00005BEFFFFFFFFFFE10
0000000111112BFFFF60
00000000000001EFFF90
00000000000000DFFFA0
00000000000003FFFF80
0077777777779EFFFF40
00FFFFFFFFFFFFFFFC00
00FFFFFFFFFFFFFFE300
00FFFFFFFFFFFFFE4000
00FFFFFFFFFFEC710000
ENDCHAR
STARTCHAR scaron
ENCODING 353
SWIDTH 523 0
DWIDTH 17 0
BBX 16 25 1 0
BITMAP
0000050001200000
00009F702DD20000
0004FFF9DFFC0000
00008FFFFFE30000
000007FFFE200000
0000006FD2000000
0000000420000000
0000000000000000
00059ABBBBBBBB00
02CFFFFFFFFFFF00
1DFFFFFFFFFFFF00
7FFFFFFFFFFFFF00
CFFFD88888888800
EFFF600000000000
DFFFB54444310000
9FFFFFFFFFFF9100
2EFFFFFFFFFFFD10
04EFFFFFFFFFFF90
0029DEEEEEFFFFE0
00000000004FFFF1
44444444449FFFF1
EFFFFFFFFFFFFFC0
EFFFFFFFFFFFFF40
EFFFFFFFFFFFF700
EFFFFFFFFFEB4000
ENDCHAR
STARTCHAR Tcommaaccent
ENCODING 354
SWIDTH 578 0
DWIDTH 19 0
BBX 19 32 0 -9
BITMAP
46666666666666666610
BFFFFFFFFFFFFFFFFF30
BFFFFFFFFFFFFFFFFF30
BFFFFFFFFFFFFFFFFF30
BFFFFFFFFFFFFFFFFF30
1111111FFFF811111100
0000000FFFF700000000
0000000FFFF700000000
0000000FFFF700000000
0000000FFFF700000000
0000000FFFF700000000
0000000FFFF700000000
0000000FFFF700000000
0000000FFFF700000000
0000000FFFF700000000
0000000FFFF700000000
0000000FFFF700000000
0000000FFFF700000000
0000000FFFF700000000
0000000FFFF700000000
0000000FFFF700000000
0000000FFFF700000000
0000000FFFF700000000
00000000000000000000
00000000461000000000
00000007FFD100000000
0000000DFFF500000000
0000000AFFF500000000
00000001AFF200000000
000000006FB000000000
000000008E3000000000
00000000010000000000
ENDCHAR
STARTCHAR tcommaaccent
ENCODING 355
SWIDTH 437 0
DWIDTH 14 0
BBX 14 33 0 -9
BITMAP
00366650000000
007FFFC0000000
007FFFC0000000
007FFFC0000000
007FFFC0000000
007FFFC0000000
007FFFC0000000
6BDFFFEBBBBBB3
8FFFFFFFFFFFF4
8FFFFFFFFFFFF4
8FFFFFFFFFFFF4
48BFFFE8888882
007FFFC0000000
007FFFC0000000
007FFFC0000000
007FFFC0000000
007FFFC0000000
006FFFE0000000
003FFFF8000000
000CFFFFA54441
0004FFFFFFFFF4
00008FFFFFFFF4
000007FFFFFFF4
00000028CEFFF4
00000000000000
00000055000000
00000BFFB00000
00001FFFF20000
00000EFFF10000
000003CFD00000
000000AF700000
000000BC100000
00000001000000
ENDCHAR
STARTCHAR Tcaron
ENCODING 356
SWIDTH 578 0
DWIDTH 19 0
BBX 19 30 0 0
BITMAP
00000041000400000000
000003EC107F70000000
00000CFFD9FFF4000000
000003EFFFFF90000000
0000002DFFF800000000
00000001CF7000000000
00000000150000000000
46666666666666666610
BFFFFFFFFFFFFFFFFF30
BFFFFFFFFFFFFFFFFF30
BFFFFFFFFFFFFFFFFF30
BFFFFFFFFFFFFFFFFF30
1111111FFFF811111100
0000000FFFF700000000
0000000FFFF700000000
0000000FFFF700000000
0000000FFFF700000000
0000000FFFF700000000
0000000FFFF700000000
0000000FFFF700000000
0000000FFFF700000000
0000000FFFF700000000
0000000FFFF700000000
0000000FFFF700000000
0000000FFFF700000000
0000000FFFF700000000
0000000FFFF700000000
0000000FFFF700000000
0000000FFFF700000000
0000000FFFF700000000
ENDCHAR
STARTCHAR tcaron
ENCODING 357
SWIDTH 570 0
DWIDTH 18 0
BBX 19 24 0 0
BITMAP
00366650000000000000
007FFFC0000000045100
007FFFC00000008FFC00
007FFFC0000000EFFF30
007FFFC0000000CFFF30
007FFFC00000002BFE00
007FFFC000000008FA00
6BDFFFEBBBBBB30AD200
8FFFFFFFFFFFF4001000
8FFFFFFFFFFFF4000000
8FFFFFFFFFFFF4000000
48BFFFE8888882000000
007FFFC0000000000000
007FFFC0000000000000
007FFFC0000000000000
007FFFC0000000000000
007FFFC0000000000000
006FFFE0000000000000
003FFFF8000000000000
000CFFFFA54441000000
0004FFFFFFFFF4000000
00008FFFFFFFF4000000
000007FFFFFFF4000000
00000028CEFFF4000000
ENDCHAR
STARTCHAR Tbar
ENCODING 358
SWIDTH 578 0
DWIDTH 19 0
BBX 19 23 0 0
BITMAP
46666666666666666610
BFFFFFFFFFFFFFFFFF30
BFFFFFFFFFFFFFFFFF30
BFFFFFFFFFFFFFFFFF30
BFFFFFFFFFFFFFFFFF30
1111111FFFF811111100
0000000FFFF700000000
0000000FFFF700000000
0000000FFFF700000000
0000000FFFF700000000
0000000FFFF700000000
00005AAFFFFCAA000000
00008FFFFFFFFF100000
00008FFFFFFFFF100000
00008FFFFFFFFF100000
0000599FFFFC99000000
0000000FFFF700000000
0000000FFFF700000000
0000000FFFF700000000
0000000FFFF700000000
0000000FFFF700000000
0000000FFFF700000000
0000000FFFF700000000
ENDCHAR
STARTCHAR tbar
ENCODING 359
SWIDTH 437 0
DWIDTH 14 0
BBX 14 24 0 0
BITMAP
00366650000000
007FFFC0000000
007FFFC0000000
007FFFC0000000
007FFFC0000000
007FFFC0000000
007FFFC0000000
6BDFFFEBBBBBB3
8FFFFFFFFFFFF4
8FFFFFFFFFFFF4
8FFFFFFFFFFFF4
48BFFFE8888882
007FFFC0000000
5ADFFFEAAA1000
8FFFFFFFFF2000
8FFFFFFFFF2000
8FFFFFFFFF2000
248FFFF4441000
003FFFF8000000
000DFFFFA54441
0004FFFFFFFFF4
00008FFFFFFFF4
000007FFFFFFF4
00000028CEFFF4
ENDCHAR
STARTCHAR Utilde
ENCODING 360
SWIDTH 673 0
DWIDTH 22 0
BBX 19 30 1 0
BITMAP
00000000000000100000
000004CFE803DFB00000
00001EFFFF94FFD00000
00005FFFFFFFFFC00000
00005FFE5DFFFF800000
00002FFC01BFFB100000
00000443000210000000
16666200000000466650
3FFFF400000000BFFFB0
3FFFF400000000BFFFB0
3FFFF400000000BFFFB0
3FFFF400000000BFFFB0
3FFFF400000000BFFFB0
3FFFF400000000BFFFB0
3FFFF400000000BFFFB0
3FFFF400000000BFFFB0
3FFFF400000000BFFFB0
3FFFF400000000BFFFB0
3FFFF400000000BFFFB0
3FFFF400000000BFFFB0
3FFFF400000000BFFFB0
2FFFF500000000CFFFB0
0FFFF800000001EFFF90
0CFFFF20000008FFFF60
07FFFFD300007FFFFE10
01EFFFFFA88DFFFFF800
004FFFFFFFFFFFFFC100
0006FFFFFFFFFFFD2000
00004DFFFFFFFF910000
0000005ADFEC83000000
ENDCHAR
STARTCHAR utilde
ENCODING 361
SWIDTH 562 0
DWIDTH 18 0
BBX 16 25 1 -1
BITMAP
0000000000001000
0002BEEA10CEE000
000CFFFFC3EFF200
001FFFFFFFFFF100
002FFF6BFFFFB000
000EFF109FFC2000
0003441002200000
7BBB7000000ABBB4
9FFFA000000EFFF5
9FFFA000000EFFF5
9FFFA000000EFFF5
9FFFA000000EFFF5
9FFFA000000EFFF5
9FFFA000000EFFF5
9FFFA000000EFFF5
9FFFA000000EFFF5
9FFFA000000EFFF5
8FFFC000001FFFF5
6FFFF300009FFFF5
1FFFFD4018FFFFF5
0AFFFFFFFFFFFFF5
01DFFFFFFFFFFFF5
003DFFFFFFFF6BF5
00018EFFFFA202E5
0000003441000000
ENDCHAR
STARTCHAR Umacron
ENCODING 362
SWIDTH 673 0
DWIDTH 22 0
BBX 19 28 1 0
BITMAP
00000166666665000000
000003FFFFFFFB000000
000003FFFFFFFB000000
000002DDDDDDD9000000
00000000000000000000
16666200000000466650
3FFFF400000000BFFFB0
3FFFF400000000BFFFB0
3FFFF400000000BFFFB0
3FFFF400000000BFFFB0
3FFFF400000000BFFFB0
3FFFF400000000BFFFB0
3FFFF400000000BFFFB0
3FFFF400000000BFFFB0
3FFFF400000000BFFFB0
3FFFF400000000BFFFB0
3FFFF400000000BFFFB0
3FFFF400000000BFFFB0
3FFFF400000000BFFFB0
2FFFF500000000CFFFB0
0FFFF800000001EFFF90
0CFFFF20000008FFFF60
07FFFFD300007FFFFE10
01EFFFFFA88DFFFFF800
004FFFFFFFFFFFFFC100
0006FFFFFFFFFFFD2000
00004DFFFFFFFF910000
0000005ADFEC83000000
ENDCHAR
STARTCHAR umacron
ENCODING 363
SWIDTH 562 0
DWIDTH 18 0
BBX 16 23 1 -1
BITMAP
0000666666660000
0000FFFFFFFE0000
0000FFFFFFFE0000
0000DDDDDDDC0000
0000000000000000
7BBB7000000ABBB4
9FFFA000000EFFF5
9FFFA000000EFFF5
9FFFA000000EFFF5
9FFFA000000EFFF5
9FFFA000000EFFF5
9FFFA000000EFFF5
9FFFA000000EFFF5
9FFFA000000EFFF5
9FFFA000000EFFF5
8FFFC000001FFFF5
6FFFF300009FFFF5
1FFFFD4018FFFFF5
0AFFFFFFFFFFFFF5
01DFFFFFFFFFFFF5
003DFFFFFFFF6BF5
00018EFFFFA202E5
0000003441000000
ENDCHAR
STARTCHAR Ubreve
ENCODING 364
SWIDTH 673 0
DWIDTH 22 0
BBX 19 28 1 0
BITMAP
0000006BB24BB2000000
000000AFF47FF5000000
0000007FFFFFF4000000
0000001DFFFFB0000000
000000017BB710000000
16666200000000466650
3FFFF400000000BFFFB0
3FFFF400000000BFFFB0
3FFFF400000000BFFFB0
3FFFF400000000BFFFB0
3FFFF400000000BFFFB0
3FFFF400000000BFFFB0
3FFFF400000000BFFFB0
3FFFF400000000BFFFB0
3FFFF400000000BFFFB0
3FFFF400000000BFFFB0
3FFFF400000000BFFFB0
3FFFF400000000BFFFB0
3FFFF400000000BFFFB0
2FFFF500000000CFFFB0
0FFFF800000001EFFF90
0CFFFF20000008FFFF60
07FFFFD300007FFFFE10
01EFFFFFA88DFFFFF800
004FFFFFFFFFFFFFC100
0006FFFFFFFFFFFD2000
00004DFFFFFFFF910000
0000005ADFEC83000000
ENDCHAR
STARTCHAR ubreve
ENCODING 365
SWIDTH 562 0
DWIDTH 18 0
BBX 16 24 1 -1
BITMAP
00005BB34BB20000
00009FF56FF60000
00007FFFFFF50000
00001CFFFFC00000
0000017BB7100000
0000000000000000
7BBB7000000ABBB4
9FFFA000000EFFF5
9FFFA000000EFFF5
9FFFA000000EFFF5
9FFFA000000EFFF5
9FFFA000000EFFF5
9FFFA000000EFFF5
9FFFA000000EFFF5
9FFFA000000EFFF5
9FFFA000000EFFF5
8FFFC000001FFFF5
6FFFF300009FFFF5
1FFFFD4018FFFFF5
0AFFFFFFFFFFFFF5
01DFFFFFFFFFFFF5
003DFFFFFFFF6BF5
00018EFFFFA202E5
0000003441000000
ENDCHAR
STARTCHAR Uring
ENCODING 366
SWIDTH 673 0
DWIDTH 22 0
BBX 19 30 1 0
BITMAP
00000000487100000000
00000008FFFE20000000
0000002FF8CFA0000000
0000004FC04FC0000000
0000002FF9CF90000000
00000007FFFD20000000
00000000376100000000
16666200000000466650
3FFFF400000000BFFFB0
3FFFF400000000BFFFB0
3FFFF400000000BFFFB0
3FFFF400000000BFFFB0
3FFFF400000000BFFFB0
3FFFF400000000BFFFB0
3FFFF400000000BFFFB0
3FFFF400000000BFFFB0
3FFFF400000000BFFFB0
3FFFF400000000BFFFB0
3FFFF400000000BFFFB0
3FFFF400000000BFFFB0
3FFFF400000000BFFFB0
2FFFF500000000CFFFB0
0FFFF800000001EFFF90
0CFFFF20000008FFFF60
07FFFFD300007FFFFE10
01EFFFFFA88DFFFFF800
004FFFFFFFFFFFFFC100
0006FFFFFFFFFFFD2000
00004DFFFFFFFF910000
0000005ADFEC83000000
ENDCHAR
STARTCHAR uring
ENCODING 367
SWIDTH 562 0
DWIDTH 18 0
BBX 16 25 1 -1
BITMAP
0000003883000000
000005FFFF400000
00000DF9AFD00000
00001FF01FF00000
00000DFBBFC00000
000004FFFE400000
0000002772000000
7BBB7000000ABBB4
9FFFA000000EFFF5
9FFFA000000EFFF5
9FFFA000000EFFF5
9FFFA000000EFFF5
9FFFA000000EFFF5
9FFFA000000EFFF5
9FFFA000000EFFF5
9FFFA000000EFFF5
9FFFA000000EFFF5
8FFFC000001FFFF5
6FFFF300009FFFF5
1FFFFD4018FFFFF5
0AFFFFFFFFFFFFF5
01DFFFFFFFFFFFF5
003DFFFFFFFF6BF5
00018EFFFFA202E5
0000003441000000
ENDCHAR
STARTCHAR Uhungarumlaut
ENCODING 368
SWIDTH 673 0
DWIDTH 22 0
BBX 19 31 1 0
BITMAP
00000000590000100000
00000002EFA003E50000
0000000CFFFB1DFF5000
0000009FFFF6AFFFF400
000005FFFE46FFFF7000
000006FFD33FFFF50000
0000005C200AFE300000
00000000000082000000
16666200000000466650
3FFFF400000000BFFFB0
3FFFF400000000BFFFB0
3FFFF400000000BFFFB0
3FFFF400000000BFFFB0
3FFFF400000000BFFFB0
3FFFF400000000BFFFB0
3FFFF400000000BFFFB0
3FFFF400000000BFFFB0
3FFFF400000000BFFFB0
3FFFF400000000BFFFB0
3FFFF400000000BFFFB0
3FFFF400000000BFFFB0
3FFFF400000000BFFFB0
2FFFF500000000CFFFB0
0FFFF800000001EFFF90
0CFFFF20000008FFFF60
07FFFFD300007FFFFE10
01EFFFFFA88DFFFFF800
004FFFFFFFFFFFFFC100
0006FFFFFFFFFFFD2000
00004DFFFFFFFF910000
0000005ADFEC83000000
ENDCHAR
STARTCHAR uhungarumlaut
ENCODING 369
SWIDTH 562 0
DWIDTH 18 0
BBX 16 26 1 -1
BITMAP
0000002B10001000
000001CFD201D700
000009FFFD2AFF80
00006FFFF87FFFF7
0003EFFF73FFFFA0
0003EFE51DFFF800
00003D3007FF6000
0000000000640000
7BBB7000000ABBB4
9FFFA000000EFFF5
9FFFA000000EFFF5
9FFFA000000EFFF5
9FFFA000000EFFF5
9FFFA000000EFFF5
9FFFA000000EFFF5
9FFFA000000EFFF5
9FFFA000000EFFF5
9FFFA000000EFFF5
8FFFC000001FFFF5
6FFFF300009FFFF5
1FFFFD4018FFFFF5
0AFFFFFFFFFFFFF5
01DFFFFFFFFFFFF5
003DFFFFFFFF6BF5
00018EFFFFA202E5
0000003441000000
ENDCHAR
STARTCHAR Uogonek
ENCODING 370
SWIDTH 673 0
DWIDTH 22 0
BBX 19 29 1 -6
BITMAP
16666200000000466650
3FFFF400000000BFFFB0
3FFFF400000000BFFFB0
3FFFF400000000BFFFB0
3FFFF400000000BFFFB0
3FFFF400000000BFFFB0
3FFFF400000000BFFFB0
3FFFF400000000BFFFB0
3FFFF400000000BFFFB0
3FFFF400000000BFFFB0
3FFFF400000000BFFFB0
3FFFF400000000BFFFB0
3FFFF400000000BFFFB0
3FFFF400000000BFFFB0
2FFFF500000000CFFFB0
1FFFF800000001EFFF90
0CFFFF20000008FFFF60
07FFFFD300007FFFFE10
01EFFFFFA88DFFFFF800
005FFFFFFFFFFFFFC000
0006FFFFFFFFFFFC2000
00004DFFFFFFFF910000
0000006AFFFD92000000
00000009FE1000000000
0000006FF60000000000
000000BFF89600000000
000000AFFFFF70000000
0000002EFFFF70000000
000000028A8200000000
ENDCHAR
STARTCHAR uogonek
ENCODING 371
SWIDTH 562 0
DWIDTH 18 0
BBX 18 23 1 -6
BITMAP
7BBB7000000ABBB400
9FFFA000000EFFF500
9FFFA000000EFFF500
9FFFA000000EFFF500
9FFFA000000EFFF500
9FFFA000000EFFF500
9FFFA000000EFFF500
9FFFA000000EFFF500
9FFFA000000EFFF500
9FFFA000000EFFF500
8FFFC000001FFFF500
6FFFF300009FFFF500
1FFFFD4018FFFFF500
0AFFFFFFFFFFFFF500
01DFFFFFFFFFFFF500
003DFFFFFFFF6BF500
00018EFFFFA209F500
0000003441009FE100
000000000006FF6000
00000000000BFF8A60
00000000000AFFFFF7
000000000002EFFFF7
00000000000028A820
ENDCHAR
STARTCHAR Wcircumflex
ENCODING 372
SWIDTH 819 0
DWIDTH 26 0
BBX 24 31 1 -1
BITMAP
000000000000100000000000
00000000001BC10000000000
0000000001CFFD2000000000
000000001CFFFFD200000000
00000000DFFFEFFE20000000
000000007FE42DFB00000000
00000000083001A100000000
066662000166662000166662
1FFFF60002FFFF50002FFFF5
1FFFF60002FFFF50002FFFF5
1FFFF60002FFFF50002FFFF5
1FFFF60002FFFF50002FFFF5
1FFFF60002FFFF50002FFFF5
1FFFF60002FFFF50002FFFF5
1FFFF60002FFFF50002FFFF5
1FFFF60002FFFF50002FFFF5
1FFFF60002FFFF50002FFFF5
1FFFF60002FFFF50002FFFF5
1FFFF60002FFFF50002FFFF5
1FFFF60002FFFF50002FFFF5
1FFFF60002FFFF50002FFFF5
1FFFF60002FFFF50002FFFF5
1FFFF60002FFFF50002FFFF5
1FFFF60002FFFF60003FFFF5
0FFFFA0005FFFF90006FFFF3
0CFFFF836EFFFFF736EFFFE1
06FFFFFFFFFFFFFFFFFFFF90
00CFFFFFFFFFFFFFFFFFFE20
002CFFFFFFFEDFFFFFFFE300
00018EFFFFA218EFFFF92000
000000344100000343100000
ENDCHAR
STARTCHAR wcircumflex
ENCODING 373
SWIDTH 756 0
DWIDTH 24 0
BBX 22 26 1 -1
BITMAP
0000000000010000000000
0000000001BC1000000000
000000001BFFD200000000
00000001CFFFFD30000000
0000000CFFFEFFE2000000
00000007FE42DFB0000000
0000000083001A10000000
0000000000000000000000
6BBB80000BBBB20005BBB8
8FFFB0000FFFF40008FFFB
8FFFB0000FFFF40008FFFB
8FFFB0000FFFF40008FFFB
8FFFB0000FFFF40008FFFB
8FFFB0000FFFF40008FFFB
8FFFB0000FFFF40008FFFB
8FFFB0000FFFF40008FFFB
8FFFB0000FFFF40008FFFB
8FFFB0000FFFF40008FFFB
8FFFB0000FFFF40008FFFB
7FFFD0002FFFF50009FFFA
5FFFF701BFFFFD205FFFF8
1EFFFFFFFFFFFFFFFFFFF3
06FFFFFFFFFFFFFFFFFF90
009FFFFFFFEEFFFFFFFB10
0005DFFFFB319FFFFE7000
0000024410000134300000
ENDCHAR
STARTCHAR Ycircumflex
ENCODING 374
SWIDTH 620 0
DWIDTH 20 0
BBX 19 30 0 0
BITMAP
00000000010000000000
000000002DA000000000
00000002DFFB10000000
0000003EFFFFC1000000
000002EFFEEFFD000000
000000AFD24EF8000000
000000092003A0000000
06666300000000466650
1FFFF7000000009FFFD0
1FFFF7000000009FFFD0
1FFFF7000000009FFFD0
1FFFF7000000009FFFD0
1FFFF7000000009FFFD0
1FFFF7000000009FFFD0
0FFFF7000000009FFFD0
0EFFF900000000CFFFC0
0BFFFE20000003FFFF90
07FFFFC100002DFFFF40
01EFFFFE7448EFFFFC00
006FFFFFFFFFFFFFF300
0008FFFFFFFFFFFF6000
00006FFFFFFFFFE40000
0000029EFFFFD8100000
00000005FFFF20000000
00000005FFFF20000000
00000005FFFF20000000
00000005FFFF20000000
00000005FFFF20000000
00000005FFFF20000000
00000005FFFF20000000
ENDCHAR
STARTCHAR ycircumflex
ENCODING 375
SWIDTH 562 0
DWIDTH 18 0
BBX 16 32 1 -7
BITMAP
0000000100000000
0000001CB1000000
000001CFFC100000
00002DFFFFD20000
0001DFFEEFFD1000
00008FE33DFA0000
0000092002A10000
0000000000000000
7BBB7000000ABBB4
9FFFA000000EFFF6
9FFFA000000EFFF6
9FFFA000000EFFF6
9FFFA000000EFFF6
9FFFA000000EFFF6
9FFFA000000EFFF6
9FFFA000000EFFF6
9FFFA000000EFFF6
9FFFA000000EFFF6
8FFFC000001FFFF6
6FFFF300009FFFF6
1FFFFD4018FFFFF6
0AFFFFFFFFFFFFF6
01DFFFFFFFFFFFF6
003DFFFFFFFFFFF5
00018EFFFECFFFF3
0000003441CFFFE0
000000004CFFFF80
00005EDEFFFFFE10
00005FFFFFFFF300
00005FFFFFFE3000
00005FFFFE810000
0000266530000000
ENDCHAR
STARTCHAR Ydieresis
ENCODING 376
SWIDTH 620 0
DWIDTH 20 0
BBX 19 28 0 0
BITMAP
000003CD4005CA100000
00000CFFE01FFF900000
00000CFFF01FFF900000
000004EF6007FD200000
00000000000000000000
06666300000000466650
1FFFF7000000009FFFD0
1FFFF7000000009FFFD0
1FFFF7000000009FFFD0
1FFFF7000000009FFFD0
1FFFF7000000009FFFD0
1FFFF7000000009FFFD0
0FFFF7000000009FFFD0
0EFFF900000000CFFFC0
0BFFFE20000003FFFF90
07FFFFC100002DFFFF40
01EFFFFE7448EFFFFC00
006FFFFFFFFFFFFFF300
0008FFFFFFFFFFFF6000
00006FFFFFFFFFE40000
0000029EFFFFD8100000
00000005FFFF20000000
00000005FFFF20000000
00000005FFFF20000000
00000005FFFF20000000
00000005FFFF20000000
00000005FFFF20000000
00000005FFFF20000000
ENDCHAR
STARTCHAR Zacute
ENCODING 377
SWIDTH 586 0
DWIDTH 19 0
BBX 19 31 0 0
BITMAP
00000000000020000000
000000000004E6000000
00000000005FFF300000
0000000006FFFFD10000
000000007FFFFE600000
000000008FFF91000000
000000000BD400000000
00000000010000000000
26666666666666666600
4FFFFFFFFFFFFFFFF900
4FFFFFFFFFFFFFFFE200
4FFFFFFFFFFFFFFF8000
4FFFFFFFFFFFFFFE1000
0111111112EFFFF70000
0000000007FFFFD10000
000000001EFFFF600000
000000008FFFFD000000
00000002EFFFF5000000
00000009FFFFC0000000
0000002FFFFF40000000
000000AFFFFB00000000
000003FFFFF300000000
00000BFFFFA000000000
00004FFFFF2000000000
0000CFFFF90000000000
0005FFFFF20000000000
000DFFFFD77777777710
006FFFFFFFFFFFFFFF10
01DFFFFFFFFFFFFFFF10
07FFFFFFFFFFFFFFFF10
1EFFFFFFFFFFFFFFFF10
ENDCHAR
STARTCHAR zacute
ENCODING 378
SWIDTH 481 0
DWIDTH 15 0
BBX 15 25 0 0
BITMAP
0000000000110000
0000000001CB0000
000000002DFF8000
00000002DFFFF400
0000003EFFFF9100
0000003FFFC30000
00000006E7000000
0000000010000000
3BBBBBBBBBBBBB50
4FFFFFFFFFFFFE10
4FFFFFFFFFFFF700
4FFFFFFFFFFFD000
2888888BFFFF5000
0000000BFFFB0000
0000005FFFF30000
000000DFFF900000
000007FFFE100000
00001EFFF7000000
00009FFFD0000000
0003FFFF50000000
000BFFFD44444430
004FFFFFFFFFFFA0
00DFFFFFFFFFFFA0
06FFFFFFFFFFFFA0
1EFFFFFFFFFFFFA0
ENDCHAR
STARTCHAR Zdotaccent
ENCODING 379
SWIDTH 586 0
DWIDTH 19 0
BBX 19 29 0 0
BITMAP
00000000020000000000
00000002DFB000000000
00000008FFF500000000
00000007FFF300000000
000000009C7000000000
00000000000000000000
26666666666666666600
4FFFFFFFFFFFFFFFF900
4FFFFFFFFFFFFFFFE200
4FFFFFFFFFFFFFFF8000
4FFFFFFFFFFFFFFE1000
0111111112EFFFF70000
0000000007FFFFD10000
000000001EFFFF600000
000000008FFFFD000000
00000002EFFFF5000000
00000009FFFFC0000000
0000002FFFFF40000000
000000AFFFFB00000000
000003FFFFF300000000
00000BFFFFA000000000
00004FFFFF2000000000
0000CFFFF90000000000
0005FFFFF20000000000
000DFFFFD77777777710
006FFFFFFFFFFFFFFF10
01DFFFFFFFFFFFFFFF10
07FFFFFFFFFFFFFFFF10
1EFFFFFFFFFFFFFFFF10
ENDCHAR
STARTCHAR zdotaccent
ENCODING 380
SWIDTH 481 0
DWIDTH 15 0
BBX 15 23 0 0
BITMAP
0000000200000000
000000AFE3000000
000003FFF9000000
000002FFF8000000
0000006C91000000
0000000000000000
3BBBBBBBBBBBBB50
4FFFFFFFFFFFFE10
4FFFFFFFFFFFF700
4FFFFFFFFFFFD000
2888888BFFFF5000
0000000BFFFB0000
0000005FFFF30000
000000DFFF900000
000007FFFE100000
00001EFFF7000000
00009FFFD0000000
0003FFFF50000000
000BFFFD44444430
004FFFFFFFFFFFA0
00DFFFFFFFFFFFA0
06FFFFFFFFFFFFA0
1EFFFFFFFFFFFFA0
ENDCHAR
STARTCHAR Zcaron
ENCODING 381
SWIDTH 586 0
DWIDTH 19 0
BBX 19 30 0 0
BITMAP
00000032000300000000
000001DE305FA0000000
00000AFFE8FFF6000000
000002CFFFFFB0000000
0000001BFFFA00000000
00000000AFA000000000
00000000060000000000
26666666666666666600
4FFFFFFFFFFFFFFFF900
4FFFFFFFFFFFFFFFE200
4FFFFFFFFFFFFFFF8000
4FFFFFFFFFFFFFFE1000
0111111112EFFFF70000
0000000007FFFFD10000
000000001EFFFF600000
000000008FFFFD000000
00000002EFFFF5000000
00000009FFFFC0000000
0000002FFFFF40000000
000000AFFFFB00000000
000003FFFFF300000000
00000BFFFFA000000000
00004FFFFF2000000000
0000CFFFF90000000000
0005FFFFF20000000000
000DFFFFD77777777710
006FFFFFFFFFFFFFFF10
01DFFFFFFFFFFFFFFF10
07FFFFFFFFFFFFFFFF10
1EFFFFFFFFFFFFFFFF10
ENDCHAR
STARTCHAR zcaron
ENCODING 382
SWIDTH 481 0
DWIDTH 15 0
BBX 15 25 0 0
BITMAP
0000140002200000
0000AF602DD10000
0005FFF9EFFB0000
00009FFFFFD20000
000008FFFD200000
0000006FD2000000
0000000510000000
0000000000000000
3BBBBBBBBBBBBB50
4FFFFFFFFFFFFE10
4FFFFFFFFFFFF700
4FFFFFFFFFFFD000
2888888BFFFF5000
0000000BFFFB0000
0000005FFFF30000
000000DFFF900000
000007FFFE100000
00001EFFF7000000
00009FFFD0000000
0003FFFF50000000
000BFFFD44444430
004FFFFFFFFFFFA0
00DFFFFFFFFFFFA0
06FFFFFFFFFFFFA0
1EFFFFFFFFFFFFA0
ENDCHAR
STARTCHAR AEacute
ENCODING 508
SWIDTH 988 0
DWIDTH 32 0
BBX 30 31 1 0
BITMAP
000000000000000000020000000000
0000000000000000008E2000000000
000000000000000009FFD100000000
0000000000000000AFFFFA00000000
000000000000000BFFFFC300000000
000000000000000CFFE70000000000
0000000000000002EA200000000000
000000000000000010000000000000
000000014666666666666666666664
000004BFFFFFFFFFFFFFFFFFFFFFF9
0001AFFFFFFFFFFFFFFFFFFFFFFFF9
000BFFFFFFFFFFFFFFFFFFFFFFFFF9
009FFFFFFFFFFFFFFFFFFFFFFFFFF9
03FFFFFB421111CFFFB11111111111
09FFFF90000000CFFFB00000000000
0EFFFD00000000CFFFB00000000000
1FFFF700000000CFFFB00000000000
2FFFF500000000CFFFD77777770000
3FFFF400000000CFFFFFFFFFFF1000
3FFFF400000000CFFFFFFFFFFF1000
3FFFF400000000CFFFFFFFFFFF1000
3FFFF400000000CFFFFFFFFFFF1000
3FFFFFEEEEEEEEFFFFB11111110000
3FFFFFFFFFFFFFFFFFB00000000000
3FFFFFFFFFFFFFFFFFB00000000000
3FFFFFFFFFFFFFFFFFB00000000000
3FFFFA88888888DFFFD77777777774
3FFFF400000000CFFFFFFFFFFFFFF9
3FFFF400000000CFFFFFFFFFFFFFF9
3FFFF400000000CFFFFFFFFFFFFFF9
3FFFF400000000CFFFFFFFFFFFFFF9
ENDCHAR
STARTCHAR aeacute
ENCODING 509
SWIDTH 976 0
DWIDTH 31 0
BBX 31 26 0 -1
BITMAP
00000000000000000002000000000000
0000000000000000003E800000000000
000000000000000003EFF50000000000
00000000000000004EFFFE2000000000
0000000000000005FFFFE70000000000
0000000000000006FFFB200000000000
00000000000000009D50000000000000
00000003453000001100014542000000
000017DFFFFE81005904BFFFFFD70000
0003DFFFFFFFFE44FD9FFFFFFFFFC200
002EFFFFFFFFFFFEFFFFFFFFFFFFFD20
00CFFFFFFFFFFFFFFFFFFFFEFFFFFF70
06FFFFD5003AFFFFFFFFF9206FFFFA00
0CFFFE100000AFFFFFFF8003FFFFC100
1FFFF70000001EFFFFFD001DFFFE2000
3FFFF200000009FFFFF900AFFFF30000
4FFFF100000007FFFFF706FFFF600000
3FFFF200000009FFFFF93FFFF8000000
1FFFF70000001EFFFFFDDFFFB0020000
0CFFFE200000AFFFFFFFFFFC102E7000
07FFFFD5103BFFFFFFFFFFE216EFF700
00DFFFFFFFFFFFFFFFFFFFFFFFFFFF60
003FFFFFFFFFFFFEFFFFFFFFFFFFFD10
0003DFFFFFFFFD44FD8FFFFFFFFFB200
000017DFFFFD71008C03AFFFFFC60000
00000002442000000000013431000000
ENDCHAR
STARTCHAR Oslashacute
ENCODING 510
SWIDTH 777 0
DWIDTH 25 0
BBX 24 32 0 -1
BITMAP
000000000000000200000000
000000000000008E20000000
00000000000009FFD1000000
000000000000AFFFFA000000
00000000000BFFFFC3000000
00000000000CFFE700000000
000000000002EA2000000000
000000000000100000000000
000000000479A97300466640
00000018EFFFFFFFD8FFFE20
000005EFFFFFFFFFFFFFF600
00007FFFFFFFFFFFFFFFB000
0007FFFFFFFDCDFFFFFFF400
003FFFFFE710004FFFFFFE20
00CFFFFB100000CFFFFFFF90
04FFFFC1000008FFFBDFFFF2
09FFFF3000004FFFE15FFFF7
0DFFFB000001EFFF400DFFFB
1FFFF700000BFFF80009FFFD
2FFFF500007FFFC00007FFFF
1FFFF50003FFFE200007FFFF
0FFFF8001DFFF500000AFFFE
0CFFFC00AFFF9000000EFFFB
08FFFF56FFFD1000007FFFF6
03FFFFEEFFF3000003FFFFF1
00AFFFFFFF6000005EFFFF80
002EFFFFFE51025BFFFFFD10
0004FFFFFFFFFFFFFFFFE300
0002EFFFFFFFFFFFFFFE3000
000BFFFFFFFFFFFFFFB20000
007FFFC5CFFFFFFFB5000000
000000000156764100000000
ENDCHAR
STARTCHAR oslashacute
ENCODING 511
SWIDTH 579 0
DWIDTH 19 0
BBX 18 27 0 -1
BITMAP
000000000000200000
000000000006F40000
00000000007FFE2000
0000000008FFFFC000
000000009FFFFD4000
00000000AFFF800000
000000001DB2000000
000000000100000000
000000034531000000
000007DFFFFFACEEE7
0002DFFFFFFFFFFFB0
002EFFFFFFFFFFFF10
00CFFFFFFFFFFFFF60
06FFFFD500CFFFFFE0
0CFFFE2008FFFFFFF5
1FFFF7005FFFEEFFF9
3FFFF202EFFF49FFFB
4FFFF10CFFF808FFFC
3FFFF28FFFB009FFFB
1FFFFBFFFE101EFFF8
0CFFFFFFF4009FFFF4
05FFFFFF803AFFFFD0
00CFFFFFFFFFFFFF40
006FFFFFFFFFFFF800
02EFFFFFFFFFFF7000
0BFFFBCFFFFEA20000
000000023430000000
ENDCHAR
STARTCHAR dotlessj
ENCODING 567
SWIDTH 237 0
DWIDTH 8 0
BBX 11 24 -5 -7
BITMAP
0000004BBBB0
0000005FFFF0
0000005FFFF0
0000005FFFF0
0000005FFFF0
0000005FFFF0
0000005FFFF0
0000005FFFF0
0000005FFFF0
0000005FFFF0
0000005FFFF0
0000005FFFF0
0000005FFFF0
0000005FFFF0
0000005FFFF0
0000006FFFE0
000000BFFFC0
000005FFFF80
00017FFFFF20
AEEFFFFFF800
BFFFFFFFB000
BFFFFFF91000
BFFFFB400000
465420000000
ENDCHAR
STARTCHAR circumflex
ENCODING 710
SWIDTH 267 0
DWIDTH 9 0
BBX 9 7 0 16
BITMAP
0000100000
0009D20000
00AFFE3000
0AFFFFE400
AFFFDFFF40
5FF61BFD10
0650009300
ENDCHAR
STARTCHAR caron
ENCODING 711
SWIDTH 267 0
DWIDTH 9 0
BBX 9 7 0 16
BITMAP
0410004000
2ED207F800
CFFD9FFF40
2DFFFFF900
02DFFF9000
001CF80000
0001500000
ENDCHAR
STARTCHAR breve
ENCODING 728
SWIDTH 220 0
DWIDTH 7 0
BBX 7 5 0 17
BITMAP
9B908B90
FFE1CFF0
CFFFFFE0
4FFFFF60
029BA500
ENDCHAR
STARTCHAR dotaccent
ENCODING 729
SWIDTH 125 0
DWIDTH 4 0
BBX 4 5 0 17
BITMAP
0110
6FF6
EFFE
DFFD
3BB3
ENDCHAR
STARTCHAR ring
ENCODING 730
SWIDTH 192 0
DWIDTH 6 0
BBX 7 7 0 16
BITMAP
02883000
4EFFF600
CFA9FE00
EF20EF20
CFBAFE00
3EFFF500
02773000
ENDCHAR
STARTCHAR ogonek
ENCODING 731
SWIDTH 212 0
DWIDTH 7 0
BBX 7 7 0 -6
BITMAP
01AE7000
1CFB0000
9FF30000
EFF6B300
DFFFFE40
5FFFFE50
039A7100
ENDCHAR
STARTCHAR tilde
ENCODING 732
SWIDTH 321 0
DWIDTH 10 0
BBX 11 7 0 16
BITMAP
000000000100
1AEFB20AEF20
AFFFFD3CFF40
EFFFFFFFFF30
EFF79FFFFD00
CFF307FFD300
344100120000
ENDCHAR
STARTCHAR hungarumlaut
ENCODING 733
SWIDTH 384 0
DWIDTH 12 0
BBX 13 8 0 16
BITMAP
00087000010000
004FF8005D3000
02EFFF82EFE300
0CFFFE4CFFFE10
8FFFD29FFFE400
9FFC15FFFD3000
08A001CFC20000
00000018100000
ENDCHAR
STARTCHAR uni0312
ENCODING 786
SWIDTH 192 0
DWIDTH 6 0
BBX 5 7 1 17
BITMAP
054000
2FE100
9FA000
DFFA00
FFFF20
EFFF10
4DD500
ENDCHAR
STARTCHAR uni0315
ENCODING 789
SWIDTH 132 0
DWIDTH 4 0
BBX 5 8 0 15
BITMAP
045100
9FFC00
EFFF30
CFFF30
2BFE00
08F900
0AD200
001000
ENDCHAR
STARTCHAR uni0326
ENCODING 806
SWIDTH 193 0
DWIDTH 6 0
BBX 5 8 1 -9
BITMAP
056100
9FFC00
FFFF30
CFFF30
2BFE00
08F900
0AD100
001000
ENDCHAR
STARTCHAR pi
ENCODING 960
SWIDTH 555 0
DWIDTH 18 0
BBX 18 17 0 0
BITMAP
5BBBBBBBBBBBBBBBB2
6FFFFFFFFFFFFFFFF3
6FFFFFFFFFFFFFFFF3
6FFFFFFFFFFFFFFFF3
388EFFFB88DFFFC882
000CFFF700BFFF9000
000CFFF700BFFF9000
000CFFF700BFFF9000
000CFFF700BFFF9000
000CFFF700BFFF9000
000CFFF700BFFF9000
000CFFF700BFFF9000
000CFFF700BFFF9000
000CFFF700BFFF9000
000CFFF700BFFF9000
000CFFF700BFFF9000
000CFFF700BFFF9000
ENDCHAR
STARTCHAR Wgrave
ENCODING 7808
SWIDTH 819 0
DWIDTH 26 0
BBX 24 32 1 -1
BITMAP
000000002000000000000000
00000002E900000000000000
0000000CFFA0000000000000
0000009FFFFA000000000000
0000003CFFFFB10000000000
000000006EFFD10000000000
0000000001AE300000000000
000000000001000000000000
066662000166662000166662
1FFFF60002FFFF50002FFFF5
1FFFF60002FFFF50002FFFF5
1FFFF60002FFFF50002FFFF5
1FFFF60002FFFF50002FFFF5
1FFFF60002FFFF50002FFFF5
1FFFF60002FFFF50002FFFF5
1FFFF60002FFFF50002FFFF5
1FFFF60002FFFF50002FFFF5
1FFFF60002FFFF50002FFFF5
1FFFF60002FFFF50002FFFF5
1FFFF60002FFFF50002FFFF5
1FFFF60002FFFF50002FFFF5
1FFFF60002FFFF50002FFFF5
1FFFF60002FFFF50002FFFF5
1FFFF60002FFFF50002FFFF5
1FFFF60002FFFF60003FFFF5
0FFFFA0005FFFF90006FFFF3
0CFFFF836EFFFFF736EFFFE1
06FFFFFFFFFFFFFFFFFFFF90
00CFFFFFFFFFFFFFFFFFFE20
002CFFFFFFFEDFFFFFFFE300
00018EFFFFA218EFFFF92000
000000344100000343100000
ENDCHAR
STARTCHAR wgrave
ENCODING 7809
SWIDTH 756 0
DWIDTH 24 0
BBX 22 26 1 -1
BITMAP
0000000200000000000000
0000005F50000000000000
000003EFF5000000000000
00001DFFFF600000000000
000005EFFFF70000000000
00000019FFF80000000000
000000003CC00000000000
0000000000100000000000
6BBB80000BBBB20005BBB8
8FFFB0000FFFF40008FFFB
8FFFB0000FFFF40008FFFB
8FFFB0000FFFF40008FFFB
8FFFB0000FFFF40008FFFB
8FFFB0000FFFF40008FFFB
8FFFB0000FFFF40008FFFB
8FFFB0000FFFF40008FFFB
8FFFB0000FFFF40008FFFB
8FFFB0000FFFF40008FFFB
8FFFB0000FFFF40008FFFB
7FFFD0002FFFF50009FFFA
5FFFF701BFFFFD205FFFF8
1EFFFFFFFFFFFFFFFFFFF3
06FFFFFFFFFFFFFFFFFF90
009FFFFFFFEEFFFFFFFB10
0005DFFFFB319FFFFE7000
0000024410000134300000
ENDCHAR
STARTCHAR Wacute
ENCODING 7810
SWIDTH 819 0
DWIDTH 26 0
BBX 24 32 1 -1
BITMAP
000000000000000200000000
000000000000008E20000000
00000000000009FFC1000000
000000000000AFFFF9000000
00000000001BFFFFC3000000
00000000000CFFE600000000
000000000002EA1000000000
000000000000100000000000
066662000166662000166662
1FFFF60002FFFF50002FFFF5
1FFFF60002FFFF50002FFFF5
1FFFF60002FFFF50002FFFF5
1FFFF60002FFFF50002FFFF5
1FFFF60002FFFF50002FFFF5
1FFFF60002FFFF50002FFFF5
1FFFF60002FFFF50002FFFF5
1FFFF60002FFFF50002FFFF5
1FFFF60002FFFF50002FFFF5
1FFFF60002FFFF50002FFFF5
1FFFF60002FFFF50002FFFF5
1FFFF60002FFFF50002FFFF5
1FFFF60002FFFF50002FFFF5
1FFFF60002FFFF50002FFFF5
1FFFF60002FFFF50002FFFF5
1FFFF60002FFFF60003FFFF5
0FFFFA0005FFFF90006FFFF3
0CFFFF836EFFFFF736EFFFE1
06FFFFFFFFFFFFFFFFFFFF90
00CFFFFFFFFFFFFFFFFFFE20
002CFFFFFFFEDFFFFFFFE300
00018EFFFFA218EFFFF92000
000000344100000343100000
ENDCHAR
STARTCHAR wacute
ENCODING 7811
SWIDTH 756 0
DWIDTH 24 0
BBX 22 26 1 -1
BITMAP
0000000000000020000000
00000000000004E7000000
0000000000004EFF400000
000000000005FFFFE10000
00000000006FFFFE600000
00000000007FFFA1000000
00000000000BD400000000
0000000000010000000000
6BBB80000BBBB20005BBB8
8FFFB0000FFFF40008FFFB
8FFFB0000FFFF40008FFFB
8FFFB0000FFFF40008FFFB
8FFFB0000FFFF40008FFFB
8FFFB0000FFFF40008FFFB
8FFFB0000FFFF40008FFFB
8FFFB0000FFFF40008FFFB
8FFFB0000FFFF40008FFFB
8FFFB0000FFFF40008FFFB
8FFFB0000FFFF40008FFFB
7FFFD0002FFFF50009FFFA
5FFFF701BFFFFD205FFFF8
1EFFFFFFFFFFFFFFFFFFF3
06FFFFFFFFFFFFFFFFFF90
009FFFFFFFEEFFFFFFFB10
0005DFFFFB319FFFFE7000
0000024410000134300000
ENDCHAR
STARTCHAR Wdieresis
ENCODING 7812
SWIDTH 819 0
DWIDTH 26 0
BBX 24 29 1 -1
BITMAP
00000001AD6003BB20000000
00000009FFF20DFFB0000000
00000009FFF30DFFC0000000
00000002DF9005EE40000000
000000000000000000000000
066662000166662000166662
1FFFF60002FFFF50002FFFF5
1FFFF60002FFFF50002FFFF5
1FFFF60002FFFF50002FFFF5
1FFFF60002FFFF50002FFFF5
1FFFF60002FFFF50002FFFF5
1FFFF60002FFFF50002FFFF5
1FFFF60002FFFF50002FFFF5
1FFFF60002FFFF50002FFFF5
1FFFF60002FFFF50002FFFF5
1FFFF60002FFFF50002FFFF5
1FFFF60002FFFF50002FFFF5
1FFFF60002FFFF50002FFFF5
1FFFF60002FFFF50002FFFF5
1FFFF60002FFFF50002FFFF5
1FFFF60002FFFF50002FFFF5
1FFFF60002FFFF60003FFFF5
0FFFFA0005FFFF90006FFFF3
0CFFFF836EFFFFF736EFFFE1
06FFFFFFFFFFFFFFFFFFFF90
00CFFFFFFFFFFFFFFFFFFE20
002CFFFFFFFEDFFFFFFFE300
00018EFFFFA218EFFFF92000
000000344100000343100000
ENDCHAR
STARTCHAR wdieresis
ENCODING 7813
SWIDTH 756 0
DWIDTH 24 0
BBX 22 23 1 -1
BITMAP
0000001AD7003BB3000000
0000009FFF20CFFC000000
0000009FFF30DFFD000000
0000002DF9005EE5000000
0000000000000000000000
6BBB80000BBBB20005BBB8
8FFFB0000FFFF40008FFFB
8FFFB0000FFFF40008FFFB
8FFFB0000FFFF40008FFFB
8FFFB0000FFFF40008FFFB
8FFFB0000FFFF40008FFFB
8FFFB0000FFFF40008FFFB
8FFFB0000FFFF40008FFFB
8FFFB0000FFFF40008FFFB
8FFFB0000FFFF40008FFFB
8FFFB0000FFFF40008FFFB
7FFFD0002FFFF50009FFFA
5FFFF701BFFFFD205FFFF8
1EFFFFFFFFFFFFFFFFFFF3
06FFFFFFFFFFFFFFFFFF90
009FFFFFFFEEFFFFFFFB10
0005DFFFFB319FFFFE7000
0000024410000134300000
ENDCHAR
STARTCHAR Ygrave
ENCODING 7922
SWIDTH 620 0
DWIDTH 20 0
BBX 19 31 0 0
BITMAP
00000100000000000000
00000CB1000000000000
00009FFC100000000000
0006FFFFC10000000000
0001AFFFFD2000000000
000004DFFE2000000000
00000018F50000000000
00000000100000000000
06666300000000466650
1FFFF7000000009FFFD0
1FFFF7000000009FFFD0
1FFFF7000000009FFFD0
1FFFF7000000009FFFD0
1FFFF7000000009FFFD0
1FFFF7000000009FFFD0
0FFFF7000000009FFFD0
0EFFF900000000CFFFC0
0BFFFE20000003FFFF90
07FFFFC100002DFFFF40
01EFFFFE7448EFFFFC00
006FFFFFFFFFFFFFF300
0008FFFFFFFFFFFF6000
00006FFFFFFFFFE40000
0000029EFFFFD8100000
00000005FFFF20000000
00000005FFFF20000000
00000005FFFF20000000
00000005FFFF20000000
00000005FFFF20000000
00000005FFFF20000000
00000005FFFF20000000
ENDCHAR
STARTCHAR ygrave
ENCODING 7923
SWIDTH 562 0
DWIDTH 18 0
BBX 16 32 1 -7
BITMAP
0002000000000000
001CB10000000000
00AFFB1000000000
07FFFFC100000000
02AFFFFD20000000
0004DFFE20000000
000018F400000000
0000001000000000
7BBB7000000ABBB4
9FFFA000000EFFF6
9FFFA000000EFFF6
9FFFA000000EFFF6
9FFFA000000EFFF6
9FFFA000000EFFF6
9FFFA000000EFFF6
9FFFA000000EFFF6
9FFFA000000EFFF6
9FFFA000000EFFF6
8FFFC000001FFFF6
6FFFF300009FFFF6
1FFFFD4018FFFFF6
0AFFFFFFFFFFFFF6
01DFFFFFFFFFFFF6
003DFFFFFFFFFFF5
00018EFFFECFFFF3
0000003441CFFFE0
000000004CFFFF80
00005EDEFFFFFE10
00005FFFFFFFF300
00005FFFFFFE3000
00005FFFFE810000
0000266530000000
ENDCHAR
STARTCHAR endash
ENCODING 8211
SWIDTH 418 0
DWIDTH 13 0
BBX 11 5 1 9
BITMAP
077777777730
1FFFFFFFFF80
1FFFFFFFFF80
1FFFFFFFFF80
1CCCCCCCCC60
ENDCHAR
STARTCHAR emdash
ENCODING 8212
SWIDTH 719 0
DWIDTH 23 0
BBX 21 5 1 9
BITMAP
0777777777777777777710
1FFFFFFFFFFFFFFFFFFF20
1FFFFFFFFFFFFFFFFFFF20
1FFFFFFFFFFFFFFFFFFF20
1CCCCCCCCCCCCCCCCCCC20
ENDCHAR
STARTCHAR quoteleft
ENCODING 8216
SWIDTH 246 0
DWIDTH 8 0
BBX 6 9 1 14
BITMAP
003100
02ED30
0BFE10
3FFB10
7FFFD1
9FFFF8
9FFFF9
4FFFF5
06CC60
ENDCHAR
STARTCHAR quoteright
ENCODING 8217
SWIDTH 245 0
DWIDTH 8 0
BBX 6 9 1 14
BITMAP
015400
2EFFC0
AFFFF5
BFFFF7
7FFFF6
07EFF3
00DFD0
05FF50
008700
ENDCHAR
STARTCHAR quotesinglbase
ENCODING 8218
SWIDTH 264 0
DWIDTH 8 0
BBX 6 9 1 -4
BITMAP
001300
08FFC2
4FFFFA
6FFFFD
3FFFFC
06EFF9
006FF4
01DFC0
006D20
ENDCHAR
STARTCHAR quotedblleft
ENCODING 8220
SWIDTH 445 0
DWIDTH 14 0
BBX 13 9 1 14
BITMAP
00310000030000
02ED3000AF7000
0BFE1005FF6000
3FFB100CFF3000
7FFFD11FFFF500
9FFFF83FFFFE00
9FFFF93FFFFF10
4FFFF50DFFFB00
06CC6002BDA100
ENDCHAR
STARTCHAR quotedblright
ENCODING 8221
SWIDTH 444 0
DWIDTH 14 0
BBX 12 9 1 14
BITMAP
015400004620
2EFFC00AFFE4
AFFFF54FFFFC
BFFFF75FFFFD
7FFFF61EFFFC
07EFF304CFF8
00DFD0007FF3
05FF5001EFB0
008700004B10
ENDCHAR
STARTCHAR quotedblbase
ENCODING 8222
SWIDTH 463 0
DWIDTH 15 0
BBX 13 9 1 -4
BITMAP
00130000031000
08FFC203EFF600
4FFFFA0DFFFF10
6FFFFD0FFFFF40
3FFFFC0CFFFF30
06EFF902CFFE00
006FF4001FFA00
01DFC0008FF300
006D20003C6000
ENDCHAR
STARTCHAR dagger
ENCODING 8224
SWIDTH 434 0
DWIDTH 14 0
BBX 12 30 1 -4
BITMAP
000399992000
0004FFFF3000
0004FFFF3000
0004FFFF3000
0004FFFF3000
0004FFFF3000
CDDDFFFFDDDB
FFFFFFFFFFFD
FFFFFFFFFFFD
FFFFFFFFFFFD
6669FFFF8665
0004FFFF3000
0004FFFF3000
0004FFFF3000
0004FFFF3000
0004FFFF3000
0004FFFF3000
0004FFFF3000
0004FFFF3000
0004FFFF3000
0004FFFF3000
0004FFFF3000
0004FFFF3000
0004FFFF3000
0004FFFF3000
0004FFFF3000
0004FFFF3000
0004FFFF3000
0004FFFF3000
000133331000
ENDCHAR
STARTCHAR daggerdbl
ENCODING 8225
SWIDTH 452 0
DWIDTH 14 0
BBX 13 30 1 -4
BITMAP
00009999400000
0000FFFF800000
0000FFFF800000
0000FFFF800000
0000FFFF800000
0000FFFF800000
9DDDFFFFEDDD20
AFFFFFFFFFFF20
AFFFFFFFFFFF20
AFFFFFFFFFFF20
4666FFFFB66610
0000FFFF800000
0000FFFF800000
0000FFFF800000
0000FFFF800000
0000FFFF800000
0000FFFF800000
0000FFFF800000
0111FFFF811100
AFFFFFFFFFFF20
AFFFFFFFFFFF20
AFFFFFFFFFFF20
AFFFFFFFFFFF20
2333FFFF933300
0000FFFF800000
0000FFFF800000
0000FFFF800000
0000FFFF800000
0000FFFF800000
00003333200000
ENDCHAR
STARTCHAR bullet
ENCODING 8226
SWIDTH 354 0
DWIDTH 11 0
BBX 7 7 2 8
BITMAP
02ADC400
1DFFFF50
7FFFFFD0
9FFFFFF0
7FFFFFC0
0CFFFF40
018BA300
ENDCHAR
STARTCHAR ellipsis
ENCODING 8230
SWIDTH 789 0
DWIDTH 25 0
BBX 23 7 1 -2
BITMAP
001300000003100000022000
08FFD20003EFF60000AFFB10
4FFFFA000DFFFF1006FFFF70
6FFFFC000FFFFF4009FFFFA0
3FFFF9000CFFFE1005FFFF60
06EFB10002CFD400008FF900
000100000001000000000000
ENDCHAR
STARTCHAR perthousand
ENCODING 8240
SWIDTH 998 0
DWIDTH 32 0
BBX 30 24 1 -1
BITMAP
0039BB710000003665000000000000
06FFFFFC100000DFF7000000000000
2FFFFFFF900007FFD0000000000000
7FFD47FFE0001EFF60000000000000
AFF600DFF2009FFC00000000000000
BFF400BFF402FFF400000000000000
BFF400BFF30AFFB000000000000000
9FF700EFF23FFF3000000000000000
6FFE7BFFD0BFF90000000000000000
1DFFFFFF75FFE20000000000000000
03EFFFFA0DFF800000000000000000
001687306FFE100000000000000000
00000001EFF62AEFD700002AEFD700
00000008FFD2EFFFFFA001EFFFFFA0
0000002EFF59FFFFFFF409FFFFFFF4
0000009FFC0EFF60AFF90EFF60AFF9
000003FFF31FFE003FFC1FFE004FFC
00000BFFA02FFD002FFD2FFD002FFC
00004FFF202FFE003FFC2FFE003FFC
0000CFF9000EFF307FFA0FFF307FFA
0005FFE1000BFFEBFFF60BFFEBFFF6
000DFF700003FFFFFFD103FFFFFFD1
007FFD1000005EFFFC20005EFFFC20
000000000000003430000000343000
ENDCHAR
STARTCHAR guilsinglleft
ENCODING 8249
SWIDTH 403 0
DWIDTH 13 0
BBX 11 17 1 0
BITMAP
000000010000
0000002D9000
000001DFFA00
00001DFFFF60
0001CFFFF800
001CFFFF8000
01BFFFF80000
0BFFFF900000
BFFFF9000000
BFFFFC100000
0AFFFFD20000
009FFFFE3000
0008FFFFE400
00007FFFFF40
000007FFFD10
0000006FE200
000000053000
ENDCHAR
STARTCHAR guilsinglright
ENCODING 8250
SWIDTH 402 0
DWIDTH 13 0
BBX 11 17 1 0
BITMAP
000100000000
00AC10000000
1BFFC1000000
7FFFFB100000
09FFFFB00000
009FFFFB0000
000AFFFFA000
0000AFFFFA00
00000AFFFF90
00002DFFFF90
0003DFFFF800
003EFFFF8000
04EFFFF70000
5FFFFF600000
2EFFF5000000
03EF40000000
004400000000
ENDCHAR
STARTCHAR fraction
ENCODING 8260
SWIDTH 477 0
DWIDTH 15 0
BBX 17 23 -1 0
BITMAP
000000000000066620
0000000000006FFE10
000000000001EFF700
000000000008FFD000
00000000001EFF5000
00000000009FFC0000
0000000002FFF40000
000000000BFFA00000
000000004FFF200000
00000000CFF9000000
00000005FFE1000000
0000000DFF70000000
0000007FFD10000000
000001EFF600000000
000008FFC000000000
00002FFF4000000000
0000AFFB0000000000
0003FFF30000000000
000BFFA00000000000
004FFF200000000000
00DFF8000000000000
06FFE1000000000000
1EFF70000000000000
ENDCHAR
STARTCHAR Euro
ENCODING 8364
SWIDTH 806 0
DWIDTH 26 0
BBX 24 24 1 -1
BITMAP
000000000000379AA9620000
00000000005CFFFFFFFFB400
000000002BFFFFFFFFFFFF91
00000002EFFFFFFFFFFFFFF3
0000002EFFFFFFECCEFFFF80
000000BFFFFFA300004CFD10
000005FFFFE5000000007500
00BBBEFFFFDBBBB100000000
03FFFFFFFFFFFFE000000000
06FFFFFFFFFFFFA000000000
09FFFFFFFFFFFF7000000000
0233BFFFC333331000000000
0444CFFFD444440000000000
4FFFFFFFFFFFFD0000000000
7FFFFFFFFFFFF90000000000
AFFFFFFFFFFFF60000000000
89999DFFFFE9920000000000
000003FFFFF800000001B700
0000009FFFFFD721138EFE20
0000000CFFFFFFFFFFFFFFA0
00000001BFFFFFFFFFFFFFF3
0000000008FFFFFFFFFFFE50
000000000029EFFFFFFD7100
000000000000036775200000
ENDCHAR
STARTCHAR trademark
ENCODING 8482
SWIDTH 606 0
DWIDTH 19 0
BBX 17 9 1 14
BITMAP
177777720376277100
2FFFFFF53FFFFFFD00
033CE3319F3AF67F40
000BD000AE07F24F60
000BD000AE07F24F60
000BD000AE07F24F60
000BD000AE07F24F60
000BD000AE07F24F60
000780006904912940
ENDCHAR
STARTCHAR partialdiff
ENCODING 8706
SWIDTH 609 0
DWIDTH 20 0
BBX 18 26 1 -1
BITMAP
000000555551000000
0000009FFFFA000000
0000001DFFFF300000
00000004FFFFC00000
00000000AFFFF50000
000000002EFFFC0000
0000000007FFFF5000
0000000233EFFFB000
000029EFFFFFFFF300
0007FFFFFFFFFFF900
009FFFFFFFFFFFFE00
06FFFFFFEFFFFFFF40
1EFFFF82016EFFFF80
5FFFF7000003FFFFC0
AFFFD00000008FFFF1
CFFF800000003FFFF2
DFFF700000001FFFF3
CFFF800000003FFFF2
AFFFD10000008FFFE0
5FFFF8000003FFFFA0
1DFFFFA2016EFFFF40
06FFFFFFFFFFFFFA00
009FFFFFFFFFFFD100
0008FFFFFFFFFB1000
00003AEFFFFC500000
000000134410000000
ENDCHAR
STARTCHAR product
ENCODING 8719
SWIDTH 632 0
DWIDTH 20 0
BBX 19 23 1 0
BITMAP
56666666666666666610
CFFFFFFFFFFFFFFFFF20
CFFFFFFFFFFFFFFFFF20
CFFFFFFFFFFFFFFFFF20
CFFFFFFFFFFFFFFFFF20
111EFFF9115FFFF41100
000EFFF8004FFFF30000
000EFFF8004FFFF30000
000EFFF8004FFFF30000
000EFFF8004FFFF30000
000EFFF8004FFFF30000
000EFFF8004FFFF30000
000EFFF8004FFFF30000
000EFFF8004FFFF30000
000EFFF8004FFFF30000
000EFFF8004FFFF30000
000EFFF8004FFFF30000
000EFFF8004FFFF30000
000EFFF8004FFFF30000
000EFFF8004FFFF30000
000EFFF8004FFFF30000
000EFFF8004FFFF30000
000EFFF8004FFFF30000
ENDCHAR
STARTCHAR minus
ENCODING 8722
SWIDTH 543 0
DWIDTH 17 0
BBX 14 5 2 9
BITMAP
67777777777772
DFFFFFFFFFFFF4
DFFFFFFFFFFFF4
DFFFFFFFFFFFF4
ACCCCCCCCCCCC3
ENDCHAR
STARTCHAR infinity
ENCODING 8734
SWIDTH 771 0
DWIDTH 25 0
BBX 23 15 1 3
BITMAP
00006ACA6100027AA8200000
002DFFFFFD307FFFFFF80000
01EFFFFFFFEAFFFFFFFF9000
0AFFFFFFFFFFFFFFFFFFF500
2FFFFD9DFFFFFFDBEFFFFC00
7FFFE101BFFFFB0009FFFF20
9FFFA0002EFFF50001FFFF40
AFFF90000AFFF60000DFFF50
8FFFC00009FFFC0001FFFF40
5FFFF9104EFFFF9009FFFF10
1EFFFFFFFFFFFFFEEFFFFB00
07FFFFFFFFFFFFFFFFFFF400
00AFFFFFFFE7FFFFFFFF7000
0008FFFFFC304DFFFFE60000
000015763000004886100000
ENDCHAR
STARTCHAR approxequal
ENCODING 8776
SWIDTH 476 0
DWIDTH 15 0
BBX 12 14 2 4
BITMAP
016850015790
4EFFFC11FFF3
CFFFFFD8FFF4
FFFFFFFFFFF2
FFF93DFFFFC0
CFF701BFFC20
354300022000
038A710179B0
5FFFFD21FFF3
DFFFFFEAFFF4
FFFFFFFFFFF2
FFF81CFFFFB0
BFF8019FFA10
232100010000
ENDCHAR
STARTCHAR notequal
ENCODING 8800
SWIDTH 512 0
DWIDTH 16 0
BBX 14 20 1 1
BITMAP
000000003CCC90
000000009FFF60
00000000EFFE10
00000005FFFA00
4AAAAAADFFFCA7
6FFFFFFFFFFFFB
6FFFFFFFFFFFFB
6FFFFFFFFFFFFB
49999BFFFD9997
000009FFF60000
14444EFFF44443
6FFFFFFFFFFFFB
6FFFFFFFFFFFFB
6FFFFFFFFFFFFB
6FFFFFFFFFFFFB
000DFFF2000000
004FFFB0000000
009FFF50000000
01EFFE10000000
03BBB700000000
ENDCHAR
STARTCHAR fi
ENCODING 64257
SWIDTH 650 0
DWIDTH 21 0
BBX 20 25 0 0
BITMAP
00000016BEFFF7000100
000004DFFFFFF709FFA1
00004FFFFFFFF77FFFF9
0001EFFFFFFFF7BFFFFD
0009FFFFC64442AFFFFB
000EFFFB0000002EFFF4
002FFFF4000000027720
003FFFF1000000000000
3BCFFFFBBBBBBBBBBBB2
4FFFFFFFFFFFFFFFFFF3
4FFFFFFFFFFFFFFFFFF3
4FFFFFFFFFFFFFFFFFF3
289FFFF88888888FFFF3
003FFFF10000001FFFF3
003FFFF10000001FFFF3
003FFFF10000001FFFF3
003FFFF10000001FFFF3
003FFFF10000001FFFF3
003FFFF10000001FFFF3
003FFFF10000001FFFF3
003FFFF10000001FFFF3
003FFFF10000001FFFF3
003FFFF10000001FFFF3
003FFFF10000001FFFF3
003FFFF10000001FFFF3
ENDCHAR
STARTCHAR fl
ENCODING 64258
SWIDTH 631 0
DWIDTH 20 0
BBX 19 25 0 0
BITMAP
00000016BEFFFFFFFF90
000004DFFFFFFFFFFF90
00004FFFFFFFFFFFFF90
0001EFFFFFFFFFFFFF90
0009FFFFC64444CFFF90
000EFFFB000000BFFF90
002FFFF4000000BFFF90
003FFFF1000000BFFF90
3BCFFFFBBBBB30BFFF90
4FFFFFFFFFFF40BFFF90
4FFFFFFFFFFF40BFFF90
4FFFFFFFFFFF40BFFF90
289FFFF8888820BFFF90
003FFFF1000000BFFF90
003FFFF1000000BFFF90
003FFFF1000000BFFF90
003FFFF1000000BFFF90
003FFFF1000000BFFF90
003FFFF1000000BFFF90
003FFFF1000000BFFF90
003FFFF1000000BFFF90
003FFFF1000000BFFF90
003FFFF1000000BFFF90
003FFFF1000000BFFF90
003FFFF1000000BFFF90
ENDCHAR
STARTCHAR .notdef
ENCODING -1
SWIDTH 279 0
DWIDTH 9 0
BBX 1 1 0 0
BITMAP
00
ENDCHAR
STARTCHAR .null
ENCODING -1
SWIDTH 0 0
DWIDTH 0 0
BBX 1 1 0 0
BITMAP
00
ENDCHAR
STARTCHAR nonmarkingreturn
ENCODING -1
SWIDTH 279 0
DWIDTH 9 0
BBX 1 1 0 0
BITMAP
00
ENDCHAR
ENDFONT
